<svg xmlns="http://www.w3.org/2000/svg" width="190" height="57" viewBox="0 0 190 57">
    <path fill="#6661C7" fill-rule="nonzero" d="M3.136 18.344c-.496-.176-.9-.376-1.212-.6-.312-.224-.572-.592-.78-1.104-.256-.72-.384-1.568-.384-2.544 0-.944.056-1.748.168-2.412.112-.664.304-1.34.576-2.028l.216-.504c.256-.656.44-1.088.552-1.296.272-.624.752-1.432 1.44-2.424.608-.928 1.088-1.604 1.44-2.028a6.797 6.797 0 0 1 1.02-1.02c.328-.256.932-.688 1.812-1.296A2.083 2.083 0 0 1 9.256.68c.4 0 .772.1 1.116.3.344.2.604.484.78.852.176.304.264.712.264 1.224 0 .72-.16 1.472-.48 2.256-.32.784-.728 1.4-1.224 1.848-.16.144-.312.216-.456.216-.176 0-.408-.128-.696-.384a5.842 5.842 0 0 1-.24-.48c-.016-.048.016-.08.096-.096.144-.176.356-.516.636-1.02s.468-.9.564-1.188a3.07 3.07 0 0 0 .096-.48c.128-.56.192-.936.192-1.128a.616.616 0 0 0-.168-.456.26.26 0 0 0-.192-.072c-.128 0-.352.08-.672.24-.384.16-.872.52-1.464 1.08A13.39 13.39 0 0 0 5.8 5.216c-.736.96-1.3 1.752-1.692 2.376a8.51 8.51 0 0 0-.9 1.896l-.264.624c.016.064-.008.224-.072.48a3.104 3.104 0 0 1-.216.624 11.73 11.73 0 0 0-.336 2.76c0 .688.06 1.296.18 1.824s.292.888.516 1.08c.128.112.32.168.576.168.32 0 .716-.08 1.188-.24.472-.16 1.052-.392 1.74-.696a7.401 7.401 0 0 0 1.044-.504c.328-.192.572-.368.732-.528.416-.304.752-.456 1.008-.456.176-.064.296-.096.36-.096.032 0 .052.02.06.06.008.04.012.092.012.156 0 .224-.12.468-.36.732-.24.264-.56.516-.96.756-.32.32-.704.568-1.152.744a9.203 9.203 0 0 1-1.788.984c-.68.288-1.3.432-1.86.432-.128 0-.288-.016-.48-.048zm13.608-1.44c-.096-.032-.228-.14-.396-.324a13.561 13.561 0 0 0-.348-.372c0-.112.036-.2.108-.264.072-.064.124-.112.156-.144.048-.064.156-.112.324-.144.168-.032.276-.072.324-.12.064-.048.224-.16.48-.336.256-.176.484-.356.684-.54.2-.184.364-.372.492-.564.416-.592.856-1.296 1.32-2.112.144-.272.332-.644.564-1.116.232-.472.364-.78.396-.924l-.744-.24a1.43 1.43 0 0 1-.144-.192.603.603 0 0 1-.108-.24 1.754 1.754 0 0 1-.012-.216c0-.192.02-.328.06-.408.04-.08.124-.128.252-.144.496-.096.904-.168 1.224-.216.48-.064.84-.128 1.08-.192.192-.048.408-.072.648-.072.416 0 .792.072 1.128.216.24.096.448.288.624.576.224.304.336.608.336.912 0 .112-.008.22-.024.324a2.129 2.129 0 0 0-.024.324c0 .144.024.288.072.432a23.605 23.605 0 0 1-.672 2.112c-.048.128-.12.344-.216.648a8.838 8.838 0 0 0-.216.792c-.048.24-.12.464-.216.672a5.038 5.038 0 0 0-.24.888.65.65 0 0 1-.204.396c-.104.088-.216.16-.336.216l-.228.108c-.064.032-.176.016-.336-.048a1.198 1.198 0 0 1-.408-.264 1.249 1.249 0 0 1-.048-.384c0-.128.032-.304.096-.528.288-.928.68-2.272 1.176-4.032l.264-.912c.048-.144.072-.312.072-.504 0-.144-.024-.288-.072-.432-.256-.096-.456-.144-.6-.144a.84.84 0 0 0-.264.048 2.219 2.219 0 0 1-.264.072.67.67 0 0 0-.288.456c-.304.8-.616 1.504-.936 2.112-.32.608-.568 1.104-.744 1.488-.064.16-.248.464-.552.912-.192.288-.328.504-.408.648l-.264.336c-.08.08-.216.208-.408.384-.192.176-.328.304-.408.384l-.744.576c-.096.08-.268.116-.516.108a19.337 19.337 0 0 0-.492-.012zm10.008 0c-.336-.32-.544-.6-.624-.84.064-.096.096-.232.096-.408v-.6c0-.128.004-.288.012-.48a6.559 6.559 0 0 0-.012-.672c-.048-.48.136-.848.552-1.104.192-.112.34-.24.444-.384.104-.144.188-.336.252-.576l.384-1.608-.048.24c0 .08.112-.408.336-1.464v-.072c0-.064.016-.168.048-.312s.048-.256.048-.336c0-.336.176-.544.528-.624.336.112.54.188.612.228.072.04.228.196.468.468 0 .096-.016.236-.048.42s-.072.34-.12.468c-.064.208-.192.648-.384 1.32a4.47 4.47 0 0 1-.192.768c0 .032-.02.1-.06.204a.498.498 0 0 0-.012.324l1.848-.288h.048c.064 0 .148.02.252.06.104.04.196.068.276.084l.336-.672c.544-1.024.92-1.68 1.128-1.968.256-.368.56-.664.912-.888.288-.288.68-.432 1.176-.432l.864.816a8.22 8.22 0 0 1 .624-.048c.224 0 .416.036.576.108.16.072.304.188.432.348a.4.4 0 0 1 .06.18c.008.072-.004.124-.036.156l-.624.552a15.311 15.311 0 0 1 .336.72.84.84 0 0 1-.06.24.402.402 0 0 0-.012.288c.08.144.12.312.12.504 0 .08-.008.196-.024.348a1.43 1.43 0 0 0 0 .372c.032.112-.016.336-.144.672s-.208.56-.24.672c-.032.144-.084.28-.156.408a4.769 4.769 0 0 1-.156.264c-.16.256-.264.456-.312.6a.26.26 0 0 1-.108.096 2.89 2.89 0 0 1-.132.072 5.23 5.23 0 0 1-1.128.984c-.384.272-.7.432-.948.48-.248.048-.676.072-1.284.072a6.997 6.997 0 0 1-.612-.348.678.678 0 0 1-.228-.252 4.138 4.138 0 0 0-.336-.408c0-.208-.08-.424-.24-.648a.532.532 0 0 0 .024-.168c0-.112-.012-.212-.036-.3a1.044 1.044 0 0 1-.036-.276v-1.368a1.443 1.443 0 0 0-.24-.048.43.43 0 0 0-.216.072c-.08.048-.152.064-.216.048a3.36 3.36 0 0 1-.756.264c-.28.064-.452.104-.516.12-.16.048-.32.112-.48.192-.16.08-.264.152-.312.216-.16.16-.256.376-.288.648 0 .096-.072.344-.216.744-.16.608-.24.904-.24.888 0 .096-.036.236-.108.42-.072.184-.14.292-.204.324-.16.112-.304.168-.432.168a.762.762 0 0 1-.216-.048zm6.792-1.752a3.13 3.13 0 0 0 .864-.6c.288-.272.624-.688 1.008-1.248.256-.496.404-.84.444-1.032.04-.192.06-.576.06-1.152a2.147 2.147 0 0 0-.204-.864c-.12-.24-.26-.468-.42-.684-.16-.216-.28-.38-.36-.492a5.484 5.484 0 0 1-.48.528 9.38 9.38 0 0 0-.576.672c-.16.208-.32.48-.48.816a3.52 3.52 0 0 1-.12.264l-.144.288c-.208.4-.36.756-.456 1.068-.096.312-.128.676-.096 1.092 0 .304.024.556.072.756.048.2.08.348.096.444.016.144.152.216.408.216a.967.967 0 0 0 .384-.072zM46.72 3.32c-.016.064-.048.22-.096.468-.048.248-.128.404-.24.468-.048 0-.12-.004-.216-.012a.66.66 0 0 1-.24-.06c-.176-.08-.436-.152-.78-.216a5.444 5.444 0 0 0-.996-.096c-.32 0-.56.04-.72.12-.064.032-.208.068-.432.108-.224.04-.368.092-.432.156.096.192.304.528.624 1.008.176.24.36.528.552.864a.624.624 0 0 1 .024.192c0 .08.024.136.072.168.096.224.18.464.252.72.072.256.108.496.108.72.064.144.128.376.192.696.064.32.096.592.096.816a.98.98 0 0 1-.048.312l.048.288c0 .112-.028.252-.084.42-.056.168-.092.3-.108.396l-.024.192c0 .32-.024.576-.072.768-.048.192-.136.44-.264.744l-.504 1.512c-.608 1.072-1.124 1.848-1.548 2.328-.424.48-.78.664-1.068.552a1.284 1.284 0 0 1-.552-.072 3.98 3.98 0 0 1-.6-.288c-.656-.384-.984-1.12-.984-2.208 0-.656.112-1.36.336-2.112.304-1.024.728-1.98 1.272-2.868.544-.888 1.08-1.484 1.608-1.788.112-.016.256-.024.432-.024.208 0 .376.016.504.048.08-.24-.024-.668-.312-1.284s-.552-1.084-.792-1.404c-.224-.288-.328-.416-.312-.384-.192-.192-.32-.344-.384-.456a.747.747 0 0 1-.096-.312c0-.096.024-.18.072-.252a.307.307 0 0 1 .216-.132l.672-.288a8.01 8.01 0 0 1 .648-.264c.128-.048.42-.12.876-.216s.812-.16 1.068-.192c.08-.016.2-.024.36-.024.176 0 .44.016.792.048.224.016.392.056.504.12.112.064.22.176.324.336l.252.384zm-4.08 5.208c-.016.144-.112.356-.288.636a3.64 3.64 0 0 1-.456.612c-.384.384-.752 1.024-1.104 1.92-.352.896-.568 1.656-.648 2.28-.032.32-.048.504-.048.552 0 .176.04.416.12.72l.48.432c.256-.304.468-.596.636-.876a12 12 0 0 0 .444-.804c.272-.512.472-.864.6-1.056.048-.272.128-.528.24-.768.112-.256.212-.592.3-1.008.088-.416.132-.824.132-1.224 0-.672-.136-1.144-.408-1.416zm5.28 7.56c-.24.048-.416.072-.528.072a.445.445 0 0 1-.24-.06 1.703 1.703 0 0 1-.264-.228 1.992 1.992 0 0 1-.828-.756c-.2-.328-.284-.62-.252-.876.064-.736.276-1.544.636-2.424.36-.88.788-1.656 1.284-2.328.496-.672.976-1.088 1.44-1.248.288-.112.528-.168.72-.168.384 0 .656.16.816.48.112.224.168.392.168.504 0 .192-.112.32-.336.384-.048 0-.104.024-.168.072-.064.048-.096.096-.096.144.016.016.088.024.216.024a5.3 5.3 0 0 0 1.008-.12c.4-.08.656-.168.768-.264a.566.566 0 0 1 .24-.072l.336.048c.272.08.408.176.408.288 0 .064.024.124.072.18a.216.216 0 0 0 .168.084c.096.016.084.08-.036.192s-.348.296-.684.552c-.08.048-.196.12-.348.216-.152.096-.24.176-.264.24-.024.064-.02.152.012.264.064.144.096.32.096.528 0 .528-.228 1.112-.684 1.752a7.087 7.087 0 0 1-1.704 1.68c-.68.48-1.332.76-1.956.84zm-.408-1.056c.096 0 .336-.096.72-.288.208-.208.376-.336.504-.384.112 0 .264-.084.456-.252.192-.168.488-.508.888-1.02.304-.352.532-.648.684-.888.152-.24.228-.472.228-.696a.728.728 0 0 0-.024-.216c-.016-.048-.068-.092-.156-.132a5.959 5.959 0 0 0-.252-.108.755.755 0 0 1-.396-.108 5.566 5.566 0 0 1-.516-.372l-.384-.48-.408.408c-.384.384-.776 1.012-1.176 1.884-.4.872-.624 1.548-.672 2.028-.016.224.02.38.108.468.088.088.22.14.396.156zm9.864-4.608c.08 0 .184-.016.312-.048.16.016.336.048.528.096s.328.08.408.096c.064.096.16.244.288.444.128.2.216.372.264.516l.168.72a.702.702 0 0 0-.024.24v.36c0 .288-.024.488-.072.6l-.144.504c-.16.608-.328 1.04-.504 1.296-.464.688-.84 1.12-1.128 1.296-.08.048-.2.096-.36.144-.16.048-.28.088-.36.12-.048.032-.128.048-.24.048-.16 0-.352-.056-.576-.168-.224-.096-.384-.144-.48-.144-.144 0-.308-.112-.492-.336a2.986 2.986 0 0 1-.456-.78c-.12-.296-.164-.54-.132-.732a.35.35 0 0 0-.036-.228.545.545 0 0 1-.06-.204c-.016-.576.012-1.204.084-1.884.072-.68.196-1.212.372-1.596a.986.986 0 0 1-.372-.396l-.156-.3c.032-.064.088-.216.168-.456.288-.032.504-.072.648-.12a18.983 18.983 0 0 1 1.812-4.008c.744-1.232 1.636-2.176 2.676-2.832.336-.208.616-.368.84-.48A.945.945 0 0 1 61 2.096c.048 0 .1.004.156.012.056.008.1-.004.132-.036l.192.096c.048.064.236.22.564.468.328.248.58.516.756.804a.81.81 0 0 1 .096.408c0 .224-.064.492-.192.804-.128.312-.216.524-.264.636-.064.16-.192.384-.384.672-.128.192-.24.376-.336.552-.016.064-.072.14-.168.228a.496.496 0 0 0-.168.252c-.112.048-.216.148-.312.3a1.19 1.19 0 0 1-.24.3c-.272.24-.464.424-.576.552-.16.192-.352.36-.576.504a2.28 2.28 0 0 0-.576.48c-.032.016-.24.152-.624.408-.368.272-.672.448-.912.528-.24.08-.576.216-1.008.408-.16.064-.304.32-.432.768a7.937 7.937 0 0 0-.264 1.452c-.048.52-.08.82-.096.9-.032.192-.02.484.036.876.056.392.124.676.204.852.032.064.084.12.156.168.072.048.14.072.204.072a.163.163 0 0 0 .12-.048c.08-.064.228-.232.444-.504s.348-.456.396-.552c.24-.48.416-.92.528-1.32a2.19 2.19 0 0 0 .096-.648c0-.224-.028-.42-.084-.588-.056-.168-.14-.388-.252-.66a2.76 2.76 0 0 1-.192-.42c-.048-.136-.064-.268-.048-.396zm-.624-1.488c.352-.112.828-.404 1.428-.876s1.06-.884 1.38-1.236l.456-.552.432-.552c.272-.304.516-.676.732-1.116.216-.44.324-.836.324-1.188a.32.32 0 0 0-.084-.216.261.261 0 0 0-.204-.096l-.096.024a1.96 1.96 0 0 0-.72.432 39.73 39.73 0 0 0-.552.48c-.432.368-.712.624-.84.768l-.072.144-.696 1.152-.288.432c-.128.208-.336.624-.624 1.248-.272.592-.464.976-.576 1.152zm5.832 7.536c-.256 0-.456-.056-.6-.168a2.18 2.18 0 0 1-.384-.384 25.461 25.461 0 0 1-.24-.312 1.367 1.367 0 0 1-.24-.816c0-.432.104-.972.312-1.62.208-.648.424-1.188.648-1.62.016-.144.084-.32.204-.528.12-.208.196-.36.228-.456.064-.208.268-.612.612-1.212s.612-1.004.804-1.212a.941.941 0 0 1 .24-.54c.144-.168.24-.292.288-.372.048.016.128.048.24.096.112.048.232.144.36.288.048.08.132.176.252.288.12.112.204.248.252.408 0 .16-.068.324-.204.492-.136.168-.22.276-.252.324a4.354 4.354 0 0 0-.408.552c-.096.16-.176.28-.24.36-.112.144-.232.32-.36.528.256.112.432.168.528.168.192-.016.4.028.624.132.224.104.408.172.552.204.256.096.556.324.9.684.344.36.556.652.636.876.176.352.264.632.264.84 0 .08-.008.144-.024.192a1.433 1.433 0 0 0-.072.456c-.064.096-.172.252-.324.468a4.11 4.11 0 0 1-.444.54c-.144.144-.328.28-.552.408-1.104.656-2.152.96-3.144.912a.685.685 0 0 0-.228.048c-.088.032-.164.024-.228-.024zm.144-1.416c.192 0 .416-.032.672-.096.256-.064.456-.112.6-.144.416-.064.856-.272 1.32-.624.464-.352.752-.712.864-1.08a.79.79 0 0 0 .048-.24c0-.24-.08-.416-.24-.528-.048-.032-.14-.096-.276-.192a1.773 1.773 0 0 0-.396-.216 1.087 1.087 0 0 0-.384-.072h-.048c-.032 0-.12-.024-.264-.072a1.116 1.116 0 0 0-.384-.048c-.16 0-.28.016-.36.048-.048.016-.128.04-.24.072a.471.471 0 0 0-.252.156.478.478 0 0 0-.084.3c0 .032-.04.088-.12.168-.064.064-.24.552-.528 1.464l-.192.624a.267.267 0 0 0-.024.12l.024.336.264.024zm18.048-5.64c.096.384.144.76.144 1.128 0 .96-.268 1.924-.804 2.892a8.975 8.975 0 0 1-2.004 2.484c-.736.608-1.36.912-1.872.912a1.44 1.44 0 0 1-.888-.288 2.836 2.836 0 0 1-.72-.756c-.208-.312-.304-.612-.288-.9a1.28 1.28 0 0 0 .024-.288c0-.112-.016-.2-.048-.264-.112-.064-.12-.16-.024-.288.096-.016.128-.06.096-.132a.535.535 0 0 1-.048-.132.5.5 0 0 1-.024-.192c0-.304.088-.72.264-1.248a.387.387 0 0 0-.168.048c-.272.096-.632.144-1.08.144-.496 0-.912.056-1.248.168-.096.288-.256.72-.48 1.296-.448 1.104-.728 1.96-.84 2.568-.016.112-.048.192-.096.24a.556.556 0 0 1-.24.12.852.852 0 0 1-.312.048.488.488 0 0 1-.276-.072 1.116 1.116 0 0 1-.228-.216 3.631 3.631 0 0 0-.216-.24 2.88 2.88 0 0 1-.048-.408c0-.256.064-.528.192-.816.272-.544.576-1.32.912-2.328a23.308 23.308 0 0 1-.528-.936c.144-.304.264-.488.36-.552.096-.064.32-.12.672-.168.112-.144.22-.364.324-.66.104-.296.192-.556.264-.78l.18-.552c.208-.736.388-1.296.54-1.68.152-.384.332-.632.54-.744.048 0 .156.012.324.036.168.024.312.068.432.132s.188.152.204.264c.048.224-.004.596-.156 1.116-.152.52-.364 1.148-.636 1.884l-.24.72c.112 0 .356.004.732.012s.708-.028.996-.108c.176-.048.44-.088.792-.12.768-1.408 1.728-2.344 2.88-2.808a2.63 2.63 0 0 0 .324-.12c.152-.064.276-.096.372-.096.16 0 .36.096.6.288.384.112.676.272.876.48.2.208.356.512.468.912zm-1.32 1.704c.032-.288.048-.488.048-.6 0-.384-.064-.688-.192-.912-.128-.224-.312-.336-.552-.336-.32 0-.704.224-1.152.672-.384.384-.736.952-1.056 1.704a16.05 16.05 0 0 0-.768 2.232 3.435 3.435 0 0 0-.096.72c0 .288.052.524.156.708.104.184.26.276.468.276.16 0 .32-.04.48-.12.272-.128.516-.312.732-.552.216-.24.46-.544.732-.912.64-.88 1.04-1.84 1.2-2.88zm8.976 5.76c-.192-.064-.392-.252-.6-.564-.208-.312-.312-.596-.312-.852l.336-1.008.456-1.44c.144-.208.26-.46.348-.756.088-.296.14-.468.156-.516.16-.304.48-1.04.96-2.208l.456-1.104.192-.456c.096-.24.16-.432.192-.576 0-.128.032-.236.096-.324.064-.088.128-.132.192-.132.08-.08.232-.12.456-.12.176 0 .328.112.456.336.128.224.192.44.192.648 0 .176-.076.456-.228.84-.152.384-.316.768-.492 1.152-.144.304-.268.588-.372.852-.104.264-.132.42-.084.468l.408-.204c.208-.104.424-.236.648-.396.144-.08.28-.164.408-.252l.336-.228c.496-.336.8-.52.912-.552.096-.064.28-.176.552-.336.288-.192.44-.296.456-.312.192-.096.352-.144.48-.144.096 0 .184.032.264.096.08.064.176.16.288.288a.519.519 0 0 1 .144.336c0 .112-.064.228-.192.348-.128.12-.344.276-.648.468-.208.144-.424.28-.648.408-.224.128-.44.256-.648.384-1.152.704-1.744 1.08-1.776 1.128.032.064.108.208.228.432.12.224.236.416.348.576l.36.624c.192.272.288.448.288.528.144.4.34.712.588.936.248.224.516.336.804.336.144 0 .312-.04.504-.12.24-.096.432-.144.576-.144.224 0 .376.128.456.384a.553.553 0 0 1 .072.216c0 .064-.112.208-.336.432-.416.416-.84.624-1.272.624-.144 0-.312-.04-.504-.12-.24.016-.54-.144-.9-.48-.36-.336-.86-.92-1.5-1.752 0-.064-.088-.272-.264-.624a2.66 2.66 0 0 0-.216-.396l-.168-.252c0-.064-.036-.148-.108-.252a2.219 2.219 0 0 1-.156-.252c-.176-.048-.316-.032-.42.048-.104.08-.2.192-.288.336a4.355 4.355 0 0 1-.204.312c-.16.416-.32.924-.48 1.524-.16.6-.216.988-.168 1.164 0 .256-.04.428-.12.516-.08.088-.248.132-.504.132zm25.08-8.856c.192.144.288.296.288.456a.393.393 0 0 1-.048.216 4.263 4.263 0 0 1-.648 1.02c-.256.296-.688.732-1.296 1.308l-.744.72c-.208.176-.472.384-.792.624-.32.24-.544.416-.672.528-.016.032-.06.056-.132.072a1.856 1.856 0 0 0-.18.048c.16.208.356.548.588 1.02.232.472.452.956.66 1.452.096.192.208.384.336.576l.336.552a2.44 2.44 0 0 1-.084.42c-.04.136-.092.212-.156.228a1.485 1.485 0 0 1-.672.144c-.208 0-.4-.024-.576-.072l-.456-1.44a.724.724 0 0 1-.216-.324 2.847 2.847 0 0 0-.12-.3c-.064-.112-.168-.376-.312-.792a6.35 6.35 0 0 0-.132-.408 2.227 2.227 0 0 0-.276-.552h-.192l-.408.984a8.902 8.902 0 0 0-.312.792c-.08.24-.168.6-.264 1.08a.566.566 0 0 1 .072.24.413.413 0 0 1-.096.264c-.064.08-.104.128-.12.144-.08.128-.2.16-.36.096-.544-.112-.88-.296-1.008-.552.032-.16.04-.288.024-.384-.016-.24.076-.62.276-1.14.2-.52.404-1.024.612-1.512.208-.488.336-.796.384-.924-.208.256-.92.96-2.136 2.112-.576.512-.928.848-1.056 1.008a2.6 2.6 0 0 1-.504.576c-.208.208-.416.432-.624.672h-.672a2.289 2.289 0 0 1-.42-.384c-.088-.112-.148-.272-.18-.48.208-.192.448-.424.72-.696l.672-.6c.352-.336.844-.812 1.476-1.428a74.491 74.491 0 0 0 1.596-1.596 15.605 15.605 0 0 1-.912-1.656c-.08-.16-.172-.36-.276-.6-.104-.24-.18-.424-.228-.552a1.287 1.287 0 0 1-.072-.312.932.932 0 0 0-.072-.288 1.292 1.292 0 0 1-.072-.408c0-.224.064-.376.192-.456.064.032.164.076.3.132.136.056.252.092.348.108a.583.583 0 0 1 .288.12c.08.064.128.104.144.12a.409.409 0 0 1 .204.24c.04.112.084.192.132.24a.368.368 0 0 0-.048.144c0 .032.016.08.048.144.032.064.056.12.072.168.176.56.348 1.052.516 1.476.168.424.284.708.348.852.016.016.04.048.072.096.032.048.136.136.312.264.256-.768.68-1.936 1.272-3.504.016-.032.036-.084.06-.156a.592.592 0 0 0 .036-.18v-.072c0-.112.028-.192.084-.24a.6.6 0 0 1 .18-.108c.064-.024.112-.044.144-.06.384.048.712.248.984.6.08.24.12.424.12.552 0 .144-.032.288-.096.432-.24.512-.56 1.32-.96 2.424l-.36.984h.144c.384-.24.72-.52 1.008-.84l2.688-2.88-.144.144c.112-.144.196-.3.252-.468l.108-.324a3.39 3.39 0 0 1 .456-.024h.216c.112 0 .224.04.336.12zm5.76 8.928c-.384-.368-.672-.912-.864-1.632-.032-.096-.048-.264-.048-.504v-.504c-.096.24-.272.456-.528.648-.368.368-.736.64-1.104.816-.56.368-1.016.552-1.368.552-.32 0-.624-.176-.912-.528a2.135 2.135 0 0 1-.468-.528 1.254 1.254 0 0 1-.156-.648c0-.176.024-.368.072-.576.032-.592.116-1.16.252-1.704s.396-1.24.78-2.088c.512-1.008.88-1.68 1.104-2.016a.852.852 0 0 1 .312-.048c.16 0 .292.048.396.144a.58.58 0 0 1 .18.384.431.431 0 0 1 .072.264c0 .4-.24 1.056-.72 1.968-.624 1.504-.936 2.544-.936 3.12 0 .336.096.536.288.6.08.048.168.072.264.072.4 0 .88-.272 1.44-.816.56-.544 1.096-1.416 1.608-2.616.224-.544.36-1.104.408-1.68a.728.728 0 0 1-.024-.216c0-.288.144-.52.432-.696a.67.67 0 0 1 .264-.228c.112-.056.184-.052.216.012l.384-.024c.048-.016.096.028.144.132a.493.493 0 0 0 .144.204c.112.096.168.272.168.528 0 .528-.232 1.336-.696 2.424-.304.64-.508 1.132-.612 1.476a4.16 4.16 0 0 0-.18.996c0 .608.232 1.112.696 1.512.16.112.256.232.288.36.032.128.04.304.024.528a.533.533 0 0 1-.276.348.965.965 0 0 1-.492.132.939.939 0 0 1-.552-.168zm5.232-.024c-.048 0-.204.004-.468.012a1.56 1.56 0 0 1-.756-.168c-.24-.12-.44-.308-.6-.564a3.75 3.75 0 0 1-.288-.72 2.536 2.536 0 0 1-.12-.696.84.84 0 0 1 .048-.264c.304-1.76.552-2.872.744-3.336l.384-.936a2.16 2.16 0 0 0 .072-.864v-.096c0-.208.08-.384.24-.528.272-.208.488-.48.648-.816.112-.272.288-.64.528-1.104.24-.464.416-.768.528-.912.176-.24.336-.472.48-.696l.348-.516c.2-.296.428-.548.684-.756.304-.512.904-1.128 1.8-1.848.384-.32.624-.528.72-.624.048-.048.192-.1.432-.156l.456-.108c.128-.032.344-.088.648-.168.096-.048.276-.012.54.108s.46.252.588.396c.256.448.384.8.384 1.056 0 .208-.048.44-.144.696-.096.256-.28.672-.552 1.248-.576 1.152-1.624 2.248-3.144 3.288A9.98 9.98 0 0 1 126.76 9.2c-.528.272-.96.464-1.296.576-.256.08-.44.264-.552.552a2.45 2.45 0 0 0-.156.528c-.04.208-.092.344-.156.408-.096.096-.256.632-.48 1.608-.224.976-.336 1.64-.336 1.992 0 .128.016.24.048.336a.36.36 0 0 0 .216.216c.224-.048.404-.124.54-.228.136-.104.308-.276.516-.516.448-.56.768-1.096.96-1.608a5.13 5.13 0 0 0 .144-.564c.048-.232.104-.412.168-.54 0-.56-.008-.924-.024-1.092a2.296 2.296 0 0 0-.168-.612c.08-.048.148-.1.204-.156.056-.056.132-.076.228-.06.368.08.744.304 1.128.672a.382.382 0 0 1 .096.408c-.064.512-.096.88-.096 1.104-.048.112-.128.36-.24.744a1.936 1.936 0 0 1-.144.6c-.288.592-.496.992-.624 1.2a5.17 5.17 0 0 1-1.44 1.68l-.792.48zm1.104-8.856c.08.016.176.024.288.024.16 0 .296-.08.408-.24 1.168-.768 2.156-1.516 2.964-2.244.808-.728 1.308-1.348 1.5-1.86.064-.128.152-.292.264-.492.112-.2.184-.388.216-.564l-.096-.672a6.883 6.883 0 0 0-1.092.588c-.264.184-.596.476-.996.876s-1.004 1.12-1.812 2.16-1.356 1.848-1.644 2.424zm6.576 8.016c-.24.048-.416.072-.528.072a.445.445 0 0 1-.24-.06 1.703 1.703 0 0 1-.264-.228 1.992 1.992 0 0 1-.828-.756c-.2-.328-.284-.62-.252-.876.064-.736.276-1.544.636-2.424.36-.88.788-1.656 1.284-2.328.496-.672.976-1.088 1.44-1.248.288-.112.528-.168.72-.168.384 0 .656.16.816.48.112.224.168.392.168.504 0 .192-.112.32-.336.384-.048 0-.104.024-.168.072-.064.048-.096.096-.096.144.016.016.088.024.216.024a5.3 5.3 0 0 0 1.008-.12c.4-.08.656-.168.768-.264a.566.566 0 0 1 .24-.072l.336.048c.272.08.408.176.408.288 0 .064.024.124.072.18a.216.216 0 0 0 .168.084c.096.016.084.08-.036.192s-.348.296-.684.552c-.08.048-.196.12-.348.216-.152.096-.24.176-.264.24-.024.064-.02.152.012.264.064.144.096.32.096.528 0 .528-.228 1.112-.684 1.752a7.087 7.087 0 0 1-1.704 1.68c-.68.48-1.332.76-1.956.84zm-.408-1.056c.096 0 .336-.096.72-.288.208-.208.376-.336.504-.384.112 0 .264-.084.456-.252.192-.168.488-.508.888-1.02.304-.352.532-.648.684-.888.152-.24.228-.472.228-.696a.728.728 0 0 0-.024-.216c-.016-.048-.068-.092-.156-.132a5.959 5.959 0 0 0-.252-.108.755.755 0 0 1-.396-.108 5.566 5.566 0 0 1-.516-.372l-.384-.48-.408.408c-.384.384-.776 1.012-1.176 1.884-.4.872-.624 1.548-.672 2.028-.016.224.02.38.108.468.088.088.22.14.396.156zm7.032 1.08c-.128-.16-.192-.32-.192-.48 0-.128-.04-.192-.12-.192-.096-.096.088-.644.552-1.644.464-1 .864-1.764 1.2-2.292a.43.43 0 0 0 .144-.204c.032-.088.032-.132 0-.132.032-.048.08-.128.144-.24.064-.112.128-.208.192-.288.272-.528.384-.952.336-1.272-.064-.064-.132-.088-.204-.072-.072.016-.116.032-.132.048a2.117 2.117 0 0 1-.252.084 1.27 1.27 0 0 0-.348.156c-.368.24-.6.36-.696.36-.096 0-.18-.048-.252-.144a1.927 1.927 0 0 1-.228-.48 1.142 1.142 0 0 1-.072-.312c0-.112.064-.224.192-.336.096-.096.212-.172.348-.228.136-.056.228-.1.276-.132.336-.192.576-.304.72-.336.288-.08.52-.12.696-.12.48 0 .816.224 1.008.672.224.272.336.584.336.936 0 .304-.112.696-.336 1.176l-.24.36a.58.58 0 0 0-.072.192c0 .032.008.048.024.048.064 0 .136-.056.216-.168.08-.08.184-.18.312-.3s.216-.18.264-.18c.016 0 .04-.012.072-.036.032-.024.048-.084.048-.18l.24-.216c.064 0 .256-.136.576-.408l.456-.36c.176-.128.336-.192.48-.192a.728.728 0 0 1 .216-.024c.304 0 .552.164.744.492.192.328.288.748.288 1.26l-.504 1.296.864-1.056c.144-.176.336-.368.576-.576.032-.096.076-.156.132-.18a.39.39 0 0 1 .108-.036.117.117 0 0 0 .06-.024.08.08 0 0 0 .036-.072c.064-.048.148-.108.252-.18a.807.807 0 0 0 .204-.18c.144-.064.304-.096.48-.096.336 0 .616.216.84.648.096.176.156.332.18.468.024.136.036.364.036.684-.064.352-.12.72-.168 1.104 0 .064-.016.224-.048.48-.08.176-.12.448-.12.816 0 .224.012.368.036.432.024.064.084.096.18.096.24-.048.556-.164.948-.348.392-.184.676-.364.852-.54.24-.24.456-.36.648-.36.176 0 .288.096.336.288.048.096-.076.352-.372.768-.296.416-.5.624-.612.624-.032 0-.092.048-.18.144-.088.096-.156.16-.204.192-.272.304-.496.456-.672.456a.746.746 0 0 0-.252.06.783.783 0 0 1-.276.06.702.702 0 0 1-.24.024c-.24 0-.472-.064-.696-.192a.882.882 0 0 1-.432-.576c-.128-.32-.192-.768-.192-1.344 0-.144.016-.376.048-.696l.12-.744c.032-.304.064-.488.096-.552V11.6c0-.272-.024-.408-.072-.408-.128 0-.552.412-1.272 1.236-.72.824-1.272 1.532-1.656 2.124a3.718 3.718 0 0 0-.372.636c-.136.28-.22.428-.252.444a.298.298 0 0 1-.216.096c-.096 0-.2-.048-.312-.144a1.298 1.298 0 0 1-.288-.36 1.09 1.09 0 0 1-.096-.36c0-.112.048-.332.144-.66.096-.328.232-.764.408-1.308.176-.528.324-.984.444-1.368.12-.384.196-.64.228-.768 0-.112-.4.176-1.2.864-.16.192-.344.392-.552.6-.368.384-.78.832-1.236 1.344-.456.512-.852 1-1.188 1.464-.352.48-.612.816-.78 1.008-.168.192-.308.288-.42.288-.08 0-.184-.072-.312-.216zm15.264.336a4.338 4.338 0 0 0-.408-.084 1.73 1.73 0 0 1-.564-.192c-.152-.088-.228-.204-.228-.348 0-.288.072-.496.216-.624l.048-.12a.59.59 0 0 0-.048-.216.312.312 0 0 1 0-.24c.016-.048.056-.156.12-.324s.096-.364.096-.588c0-.096.008-.168.024-.216.064-.176.144-.456.24-.84.176-.608.32-1.04.432-1.296a43.113 43.113 0 0 0 1.512-3.528c.112-.272.264-.408.456-.408.176 0 .372.092.588.276.216.184.38.372.492.564-.912 1.68-1.432 2.736-1.56 3.168.208.016.456.016.744 0 .112-.016.288-.024.528-.024.208 0 .36.008.456.024.112.016.272.024.48.024.24 0 .696-.048 1.368-.144l.24-.744c.192-.656.376-1.188.552-1.596.176-.408.424-.716.744-.924a.624.624 0 0 1 .192-.024c.112 0 .232.056.36.168.064.048.152.116.264.204.112.088.192.16.24.216a.272.272 0 0 1 .072.18c0 .112-.104.32-.312.624a1.943 1.943 0 0 0-.24.6c-.096.288-.184.488-.264.6-.064.08-.304.72-.72 1.92s-.632 1.864-.648 1.992l-.072.48a4.908 4.908 0 0 0-.096.816c0 .24-.128.36-.384.36-.288 0-.608-.112-.96-.336-.128-.08-.208-.256-.24-.528.096-.384.248-.864.456-1.44l.264-.816c.064-.16.064-.288 0-.384a6.955 6.955 0 0 0-.984-.072c-.352 0-.864.032-1.536.096l-.696.048c-.128.128-.328.696-.6 1.704a3.892 3.892 0 0 0-.144.48c.016.176-.032.444-.144.804-.112.36-.224.596-.336.708zm12.912.24c-.512.144-.88.216-1.104.216-.272 0-.528-.112-.768-.336a.658.658 0 0 1-.132-.228c-.04-.104-.084-.164-.132-.18v-.096c0-.176.112-.304.336-.384.16.096.36.144.6.144.384 0 .796-.116 1.236-.348.44-.232.78-.524 1.02-.876.656-.784 1-1.456 1.032-2.016a.836.836 0 0 0-.048-.324 2.099 2.099 0 0 0-.264-.372c-.592.192-1.04.44-1.344.744-.72.608-1.212 1.06-1.476 1.356-.264.296-.596.772-.996 1.428-.256.32-.48.48-.672.48l.024.144c0 .24-.12.384-.36.432-.352-.08-.596-.172-.732-.276-.136-.104-.204-.284-.204-.54 0-.128.008-.232.024-.312.032-.096.056-.188.072-.276l.048-.252c.032-.112.076-.284.132-.516.056-.232.108-.412.156-.54.288-.752.448-1.192.48-1.32.32-.88.58-1.56.78-2.04.2-.48.38-.84.54-1.08l.528-1.368c.288.032.5.092.636.18s.3.284.492.588c-.016.128-.352.984-1.008 2.568-.448 1.04-.672 1.6-.672 1.68 0 .016.096-.096.288-.336.192-.24.456-.496.792-.768.352-.352.864-.688 1.536-1.008.208-.08.392-.132.552-.156.16-.024.264-.044.312-.06.368 0 .676.092.924.276.248.184.428.404.54.66.112.256.168.48.168.672.08.352.12.656.12.912 0 .176-.024.36-.072.552a6.243 6.243 0 0 1-.528.972c-.224.344-.48.612-.768.804-.224.224-.544.456-.96.696-.416.24-.792.408-1.128.504zm4.992.384c-.576-.08-.944-.4-1.104-.96 0-.24.04-.504.12-.792.08-.288.136-.504.168-.648.08-.32.232-.8.456-1.44.144-.4.232-.656.264-.768.144-.32.288-.744.432-1.272.096-.336.256-.824.48-1.464.08-.272.168-.712.264-1.32.144-.16.304-.24.48-.24.24 0 .544.184.912.552.08.208.12.384.12.528 0 .112-.04.264-.12.456-.128.272-.392.984-.792 2.136-.032.208-.184.696-.456 1.464-.272.784-.448 1.336-.528 1.656-.144.368-.264.88-.36 1.536v.096c0 .208-.112.368-.336.48zm13.008-.144a2.014 2.014 0 0 1-.36-.252c-.144-.12-.28-.22-.408-.3a12.07 12.07 0 0 0-.18-.612 2.054 2.054 0 0 1-.108-.756c0-.08-.02-.212-.06-.396-.04-.184-.036-.324.012-.42l-.024-.288c0-.576.136-1.472.408-2.688a.349.349 0 0 0-.132-.12c-.04-.016-.092.008-.156.072-.208.192-.512.52-.912.984a2.08 2.08 0 0 1-.192.156.331.331 0 0 0-.144.276l-.864 1.152c-.064.096-.184.26-.36.492a2.465 2.465 0 0 0-.384.708.773.773 0 0 1-.228.324c-.104.088-.164.14-.18.156a3.6 3.6 0 0 0-.276-.096.682.682 0 0 1-.252-.132 5.18 5.18 0 0 1-.24-.228c-.32-.304-.448-.592-.384-.864-.016-.16-.02-.32-.012-.48.008-.16.012-.304.012-.432.016-.192.024-.48.024-.864 0-.736-.04-1.192-.12-1.368-.176.016-.296.04-.36.072-.064.032-.144.128-.24.288a6.291 6.291 0 0 1-.276.444c-.152.232-.348.516-.588.852l-.924 1.416c-.376.576-.556.856-.54.84a2.769 2.769 0 0 0-.48.864c-.176.4-.352.512-.528.336a4.87 4.87 0 0 1-.744-.456 1.787 1.787 0 0 1-.24-.768.816.816 0 0 0 .168-.084.833.833 0 0 0 .144-.108.301.301 0 0 0 .072-.12l1.824-2.664.312-.456c.08-.16.296-.464.648-.912.032-.08.188-.296.468-.648.28-.352.468-.552.564-.6a.555.555 0 0 0 .204-.252l.108-.228c.048-.256.216-.384.504-.384.096 0 .168.008.216.024l.936.72a1.43 1.43 0 0 0-.024.312c0 .224.064.56.192 1.008a.728.728 0 0 0-.024.216c0 .128.012.252.036.372.024.12.036.244.036.372a.728.728 0 0 1-.024.216c0 .304.08.456.24.456.112 0 .248-.08.408-.24.448-.56 1.296-1.464 2.544-2.712.464-.464.712-.72.744-.768.048-.08.128-.12.24-.12.08 0 .144.016.192.048.224.112.396.208.516.288.12.08.268.208.444.384a.544.544 0 0 1 .144.36c0 .08-.024.16-.072.24-.144.336-.336.996-.576 1.98-.24.984-.368 1.676-.384 2.076 0 .112-.012.284-.036.516a6.035 6.035 0 0 0-.036.612c0 .352.032.664.096.936.08.304.12.56.12.768 0 .16-.036.272-.108.336-.072.064-.204.112-.396.144zm1.824 1.968c-.176 0-.28-.008-.312-.024-.032-.016-.08-.088-.144-.216 0-.096.032-.188.096-.276.064-.088.144-.188.24-.3.272-.272.568-.6.888-.984.32-.384.536-.68.648-.888.112-.352.232-.824.36-1.416 0-.32.04-.52.12-.6.096-.096.184-.144.264-.144.192 0 .336.36.432 1.08.032.224.048.392.048.504 0 .368-.136.872-.408 1.512-.064.16-.26.436-.588.828-.328.392-.524.588-.588.588-.08 0-.192.072-.336.216-.048.048-.14.08-.276.096a3.813 3.813 0 0 1-.444.024zM6.088 54.568a2.183 2.183 0 0 1-.624-.348 4.545 4.545 0 0 1-.6-.588c-.192-.224-.568-.792-1.128-1.704-.56-.912-.872-1.424-.936-1.536a5.509 5.509 0 0 1-.18.42 2.443 2.443 0 0 0-.156.408c-.032.12-.048.276-.048.468-.16.224-.284.508-.372.852-.088.344-.156.588-.204.732-.096.352-.304.64-.624.864-.288-.016-.568-.192-.84-.528a.972.972 0 0 1-.12-.48c0-.176.04-.368.12-.576.032-.144.144-.48.336-1.008.192-.528.344-.952.456-1.272.08-.208.212-.564.396-1.068.184-.504.284-.804.3-.9.048-.208.192-.504.432-.888.32-.56.52-1.024.6-1.392.032-.112.116-.22.252-.324a.685.685 0 0 1 .42-.156c.176 0 .32.088.432.264.032.016.08.036.144.06.064.024.112.06.144.108.16.16.24.344.24.552 0 .112-.04.248-.12.408a7.438 7.438 0 0 1-.36.6c-.208.352-.38.672-.516.96-.136.288-.292.696-.468 1.224.416-.096.688-.18.816-.252.128-.072.344-.276.648-.612.288-.288.56-.544.816-.768.976-.944 1.496-1.456 1.56-1.536.128-.192.24-.34.336-.444a.836.836 0 0 1 .384-.228c.224.032.38.072.468.12.088.048.284.192.588.432.064.064.096.176.096.336 0 .304-.088.52-.264.648-.048.032-.36.28-.936.744-1.168.976-2.16 1.744-2.976 2.304.352.56.696 1.184 1.032 1.872.032.384.168.648.408.792.24.144.576.216 1.008.216a.493.493 0 0 1 .252.24c.04.096.064.2.072.312.008.112.02.2.036.264a3.295 3.295 0 0 0-.432.348c-.144.136-.264.204-.36.204-.112 0-.288-.048-.528-.144zm4.824.072a.92.92 0 0 1-.456-.096 3.635 3.635 0 0 1-.48-.36c-.528-.56-.792-1.072-.792-1.536 0-.112.008-.192.024-.24a.714.714 0 0 0 .06-.336 4.054 4.054 0 0 1-.012-.216c-.064-.064-.096-.108-.096-.132 0-.024.016-.048.048-.072a.238.238 0 0 0 .072-.084c.096 0 .128-.088.096-.264-.032-.128.032-.412.192-.852a5.9 5.9 0 0 1 .6-1.212c.176-.288.436-.648.78-1.08.344-.432.652-.76.924-.984.384-.336.728-.584 1.032-.744.304-.16.64-.28 1.008-.36.32-.08.536-.12.648-.12.112 0 .212.028.3.084.088.056.204.156.348.3.432.192.732.436.9.732.168.296.252.756.252 1.38 0 1.04-.424 2.168-1.272 3.384-.368.528-.712.932-1.032 1.212-.32.28-.744.58-1.272.9-.336.24-.644.412-.924.516a3.12 3.12 0 0 1-.948.18zm2.304-2.544c.384-.432.692-.84.924-1.224.232-.384.452-.872.66-1.464.08-.272.12-.6.12-.984 0-.48-.064-.752-.192-.816-.16-.08-.32-.12-.48-.12-.352 0-.72.16-1.104.48-.464.4-.88.892-1.248 1.476s-.744 1.308-1.128 2.172a2.28 2.28 0 0 0-.24.984c0 .24.06.432.18.576.12.144.284.216.492.216.528 0 1.2-.432 2.016-1.296zm15.792 2.424c-.16.032-.272.048-.336.048a1.27 1.27 0 0 1-.696-.216c-.032-.064-.08-.156-.144-.276a1.385 1.385 0 0 1-.132-.336.456.456 0 0 1 .012-.276c.032-.08.06-.204.084-.372.024-.168.044-.292.06-.372.032-.464.088-.784.168-.96a.387.387 0 0 0 .048-.168c.016-.144.064-.356.144-.636.08-.28.128-.468.144-.564.032-.176.076-.472.132-.888.056-.416.084-.704.084-.864a.41.41 0 0 1 .072-.192.218.218 0 0 0 0-.24c-.416.4-.924.948-1.524 1.644s-1.028 1.26-1.284 1.692c.016-.032-.064.072-.24.312a2.566 2.566 0 0 1-.228.252c-.104.104-.18.212-.228.324-.16.16-.352.384-.576.672-.32.384-.584.664-.792.84a.733.733 0 0 1-.372 0 2.606 2.606 0 0 1-.372-.132 4.06 4.06 0 0 0-.336-.132l-.24-.504.192-1.152c.096-.56.18-1.136.252-1.728.072-.592.1-1.024.084-1.296l-.024-.168a.32.32 0 0 1 .072-.192l.024-.168c-.048-.048-.072-.096-.072-.144 0-.032.012-.084.036-.156.024-.072.02-.132-.012-.18l-.144-.096a10.55 10.55 0 0 1-.768 1.068c-.304.376-.512.628-.624.756l-.936 1.176c-.08.128-.264.416-.552.864-.368.672-.704 1.144-1.008 1.416-.096.096-.208.22-.336.372a2.046 2.046 0 0 1-.36.348c-.064.224-.232.336-.504.336-.256 0-.504-.084-.744-.252-.24-.168-.36-.348-.36-.54a.46.46 0 0 1 .144-.336l.072-.168c.272-.112.552-.32.84-.624.288-.304.64-.72 1.056-1.248.368-.464.608-.76.72-.888.192-.208.384-.48.576-.816.064-.096.128-.196.192-.3.064-.104.144-.212.24-.324.096-.112.376-.496.84-1.152.048-.064.22-.3.516-.708.296-.408.588-.756.876-1.044.288.16.536.24.744.24.16.208.32.384.48.528.384.336.576.928.576 1.776 0 .544-.088 1.288-.264 2.232l-.12.744.024.072c.32-.288.704-.744 1.152-1.368l.648-.816c.768-.896 1.28-1.476 1.536-1.74s.504-.492.744-.684c.496-.448.848-.768 1.056-.96h.72c.096.08.188.14.276.18.088.04.196.076.324.108.016.064.044.184.084.36.04.176.052.296.036.36-.032.08-.052.188-.06.324a.688.688 0 0 1-.108.348c-.16.256-.316.74-.468 1.452-.152.712-.244 1.276-.276 1.692a2.033 2.033 0 0 1-.192.6c-.08.144-.128.256-.144.336a1.28 1.28 0 0 0-.024.288c0 .208-.024.368-.072.48l-.048.048v.384c0 .256-.032.44-.096.552a.842.842 0 0 1 .024.24v.192c0 .144.016.248.048.312l-.336.408zm4.728-.216c-.16.032-.304.048-.432.048-.208 0-.4-.02-.576-.06-.176-.04-.264-.092-.264-.156 0-.048-.008-.08-.024-.096s-.048-.024-.096-.024a2.567 2.567 0 0 0-.144-.12 1.24 1.24 0 0 0-.288-.168 1.308 1.308 0 0 1-.216-.72c0-.272.072-.696.216-1.272.048-.512.288-1.152.72-1.92s.94-1.496 1.524-2.184c.584-.688 1.108-1.168 1.572-1.44.24-.24.544-.36.912-.36.288 0 .56.072.816.216.224.128.46.344.708.648.248.304.444.616.588.936.064.24.096.472.096.696 0 .24-.032.616-.096 1.128-.08.288-.148.64-.204 1.056a8.252 8.252 0 0 0-.084 1.08c-.032.224-.016.404.048.54s.152.204.264.204c.08 0 .168-.024.264-.072.16-.08.336-.12.528-.12a.64.64 0 0 1 .432.144c.112.096.168.24.168.432 0 .288-.196.576-.588.864-.392.288-.764.432-1.116.432-.24 0-.46-.188-.66-.564-.2-.376-.396-.86-.588-1.452l-.144-.552-1.032.984-.552.552c-.256.256-.4.408-.432.456-.176.304-.616.592-1.32.864zm.072-1.416c.384-.224.856-.616 1.416-1.176.56-.56 1.024-1.096 1.392-1.608.496-.656.808-1.304.936-1.944a2.043 2.043 0 0 0-.312-.576c-.144-.192-.272-.296-.384-.312-.32 0-.656.184-1.008.552-.352.368-.768.88-1.248 1.536l-.792 1.176c-.096.128-.264.468-.504 1.02s-.36.884-.36.996c0 .352.104.528.312.528.16 0 .344-.064.552-.192zm8.76 1.56a4.338 4.338 0 0 0-.408-.084 1.73 1.73 0 0 1-.564-.192c-.152-.088-.228-.204-.228-.348 0-.288.072-.496.216-.624l.048-.12a.59.59 0 0 0-.048-.216.312.312 0 0 1 0-.24c.016-.048.056-.156.12-.324s.096-.364.096-.588c0-.096.008-.168.024-.216.064-.176.144-.456.24-.84.176-.608.32-1.04.432-1.296a43.113 43.113 0 0 0 1.512-3.528c.112-.272.264-.408.456-.408.176 0 .372.092.588.276.216.184.38.372.492.564-.912 1.68-1.432 2.736-1.56 3.168.208.016.456.016.744 0 .112-.016.288-.024.528-.024.208 0 .36.008.456.024.112.016.272.024.48.024.24 0 .696-.048 1.368-.144l.24-.744c.192-.656.376-1.188.552-1.596.176-.408.424-.716.744-.924a.624.624 0 0 1 .192-.024c.112 0 .232.056.36.168.064.048.152.116.264.204.112.088.192.16.24.216a.272.272 0 0 1 .072.18c0 .112-.104.32-.312.624a1.943 1.943 0 0 0-.24.6c-.096.288-.184.488-.264.6-.064.08-.304.72-.72 1.92s-.632 1.864-.648 1.992l-.072.48a4.908 4.908 0 0 0-.096.816c0 .24-.128.36-.384.36-.288 0-.608-.112-.96-.336-.128-.08-.208-.256-.24-.528.096-.384.248-.864.456-1.44l.264-.816c.064-.16.064-.288 0-.384a6.955 6.955 0 0 0-.984-.072c-.352 0-.864.032-1.536.096l-.696.048c-.128.128-.328.696-.6 1.704a3.892 3.892 0 0 0-.144.48c.016.176-.032.444-.144.804-.112.36-.224.596-.336.708zm11.016.408c-.08.032-.288-.036-.624-.204-.336-.168-.584-.34-.744-.516a3.426 3.426 0 0 1-.372-.528 1.127 1.127 0 0 1-.132-.552 2.34 2.34 0 0 1-.18-.684 9.083 9.083 0 0 1-.036-.9c0-.336.064-.664.192-.984.128-.32.304-.704.528-1.152.144-.4.468-.892.972-1.476s1.036-1.012 1.596-1.284c.448-.24.832-.36 1.152-.36.192 0 .376.032.552.096.192.048.336.124.432.228.096.104.168.172.216.204.128-.128.244-.42.348-.876a6.63 6.63 0 0 0 .156-1.476c0-.992-.168-1.712-.504-2.16-.528-.752-1.144-1.128-1.848-1.128-.272 0-.608.08-1.008.24a1.256 1.256 0 0 1-.528-.48c-.144-.224-.184-.44-.12-.648.368-.304.72-.488 1.056-.552a4.03 4.03 0 0 1 .696-.096c.272 0 .512.064.72.192.8.256 1.416.624 1.848 1.104a3.98 3.98 0 0 1 .9 1.704c.168.656.268 1.48.3 2.472.016.144.024.336.024.576 0 .208-.024.576-.072 1.104a.908.908 0 0 0-.168.48 7.234 7.234 0 0 0-.024.336c0 .32-.032.552-.096.696-.016.208-.08.432-.192.672-.112.24-.168.408-.168.504a11.186 11.186 0 0 1-2.016 3.528c-.88 1.04-1.832 1.68-2.856 1.92zm-.144-1.56c.224.096.612-.084 1.164-.54a7.443 7.443 0 0 0 1.38-1.476c.096-.144.248-.42.456-.828.208-.408.36-.716.456-.924.176-.48.264-.912.264-1.296 0-.272-.048-.456-.144-.552a.681.681 0 0 0-.504-.192c-.4 0-.888.2-1.464.6-.192.144-.38.34-.564.588l-.348.468a4.93 4.93 0 0 1-.384.552v.048a.376.376 0 0 1-.132.288c-.088.08-.148.144-.18.192a4.289 4.289 0 0 0-.384 1.02c-.08.344-.12.588-.12.732 0 .288.044.56.132.816.088.256.212.424.372.504zm7.776.912c-.288.064-.6-.024-.936-.264-.336-.24-.536-.504-.6-.792a1.43 1.43 0 0 1-.024-.312c0-.592.228-1.356.684-2.292.456-.936 1.012-1.8 1.668-2.592.656-.792 1.256-1.292 1.8-1.5.336-.176.552-.264.648-.264.096 0 .312.088.648.264.224.064.392.136.504.216.112.08.256.24.432.48.208.416.36.928.456 1.536.096.336.144.576.144.72a.46.46 0 0 1-.144.336 1.703 1.703 0 0 0-.084.096c-.04.048-.06.084-.06.108 0 .024.016.036.048.036a.54.54 0 0 1-.024.108 1.43 1.43 0 0 1-.096.228c-.192.608-.288 1.128-.288 1.56 0 .144.016.296.048.456.16.416.432.624.816.624.32 0 .624-.144.912-.432.256-.176.444-.3.564-.372.12-.072.18-.052.18.06.016.016.048.04.096.072a.258.258 0 0 0 .144.048c.112 0 .168.072.168.216 0 .144-.056.304-.168.48-.112.112-.2.208-.264.288-.064.08-.096.144-.096.192l-.36.336c-.304.176-.664.264-1.08.264-.432 0-.776-.088-1.032-.264a2.75 2.75 0 0 1-.648-.696c-.208-.304-.344-.576-.408-.816l-.12-.24-.696.456c-.16.16-.344.324-.552.492a6.286 6.286 0 0 0-.408.348c-.128.16-.24.24-.336.24h-.24c0 .112-.156.236-.468.372-.312.136-.588.204-.828.204zm-.24-1.296c.176 0 .624-.252 1.344-.756.72-.504 1.176-.876 1.368-1.116l.696-.72c.256-.288.46-.616.612-.984.152-.368.228-.704.228-1.008 0-.272-.04-.464-.12-.576-.064-.192-.16-.288-.288-.288-.064 0-.248.056-.552.168-.304.192-.732.632-1.284 1.32a18.394 18.394 0 0 0-1.476 2.124c-.432.728-.648 1.26-.648 1.596 0 .048.016.096.048.144.032.048.056.08.072.096zm14.64 3.24a.472.472 0 0 1-.252-.084.774.774 0 0 1-.228-.228c-.128-.096-.192-.24-.192-.432 0-.368.272-1.336.816-2.904.112-.448.232-.88.36-1.296.112-.288.168-.504.168-.648 0-.128.02-.276.06-.444.04-.168.06-.284.06-.348.192 0 .368-.328.528-.984.064-.24.12-.444.168-.612.048-.168.08-.3.096-.396.032-.048.068-.12.108-.216a20.1 20.1 0 0 0 .108-.264c.128-.384.28-.752.456-1.104.192-.72.42-1.476.684-2.268.264-.792.484-1.38.66-1.764l.288-.72c.016-.048.052-.14.108-.276a.906.906 0 0 0 .084-.3.162.162 0 0 0-.072-.144c-.08-.048-.12-.128-.12-.24 0-.208.192-.48.576-.816.192-.24.356-.396.492-.468.136-.072.324-.108.564-.108l.768.048c.192.016.704.024 1.536.024.176.08.384.16.624.24.48.16.72.272.72.336 0 .08.028.136.084.168.056.032.14.056.252.072.16 0 .412.18.756.54.344.36.604.732.78 1.116.112.256.196.468.252.636.056.168.084.364.084.588 0 .24-.016.432-.048.576-.032.256-.072.504-.12.744s-.104.392-.168.456c-.256.192-.384.36-.384.504 0 .128-.204.464-.612 1.008-.408.544-.796.992-1.164 1.344-.416.48-.912.904-1.488 1.272-1.888.848-3.208 1.256-3.96 1.224-.512.08-.824.148-.936.204-.112.056-.2.188-.264.396-.08.208-.156.424-.228.648-.072.224-.108.368-.108.432-.096.176-.308.768-.636 1.776s-.548 1.76-.66 2.256c-.064.208-.136.336-.216.384-.08.048-.208.072-.384.072zm2.976-7.44c.032.032.136.048.312.048.208 0 .484-.032.828-.096a5.27 5.27 0 0 0 .996-.288c.576-.192 1.216-.504 1.92-.936a7.62 7.62 0 0 0 .78-.648c.312-.288.612-.616.9-.984.096-.16.288-.536.576-1.128.128-.224.252-.512.372-.864s.18-.664.18-.936a1.28 1.28 0 0 0-.024-.288c-.08-.416-.292-.804-.636-1.164a2.621 2.621 0 0 0-1.188-.732 4.917 4.917 0 0 0-.912-.096c-.208 0-.448.024-.72.072-.256.08-.444.192-.564.336-.12.144-.276.448-.468.912a19.182 19.182 0 0 0-1.008 2.304c-.288 1.072-.576 1.96-.864 2.664-.288.704-.456 1.112-.504 1.224v.096c0 .096-.008.192-.024.288-.016.096 0 .168.048.216zm12.144 5.448c-.4.352-.88.528-1.44.528-.4 0-.78-.096-1.14-.288a2.592 2.592 0 0 1-.9-.792 2.492 2.492 0 0 1-.456-.864c-.096-.32-.144-.712-.144-1.176 0-.16.016-.48.048-.96.048-.592.244-1.208.588-1.848a7.13 7.13 0 0 1 1.284-1.716c.512-.504 1.016-.852 1.512-1.044.256-.16.488-.24.696-.24.112 0 .224.008.336.024.112.016.232.032.36.048.352.048.62.116.804.204.184.088.34.22.468.396.4.4.6.864.6 1.392-.064.384-.312.824-.744 1.32a5.024 5.024 0 0 1-1.56 1.2 3.106 3.106 0 0 1-.984.144c-.496 0-.896-.104-1.2-.312a1.151 1.151 0 0 0-.336-.072c-.144 0-.252.096-.324.288-.072.192-.14.544-.204 1.056a3.629 3.629 0 0 0-.024.48c0 .816.272 1.264.816 1.344.368.08.632.12.792.12.192 0 .408-.064.648-.192l.456-.264c.096-.048.184-.112.264-.192l.216-.216c.032-.032.08-.084.144-.156a.544.544 0 0 1 .18-.144.398.398 0 0 1 .156-.036c.064 0 .136.036.216.108.08.072.144.124.192.156.144 0 .176.1.096.3-.08.2-.252.432-.516.696-.264.264-.564.5-.9.708zm-.024-5.088c.272-.112.548-.312.828-.6.28-.288.42-.528.42-.72a.616.616 0 0 0-.216-.48c-.144-.128-.344-.192-.6-.192-.192 0-.336.016-.432.048-.224.064-.488.236-.792.516-.304.28-.568.564-.792.852-.224.288-.312.456-.264.504.08.144.392.216.936.216.368 0 .672-.048.912-.144zm5.496 5.76c-.256-.048-.516-.22-.78-.516-.264-.296-.436-.572-.516-.828 0-.032-.016-.068-.048-.108a1.132 1.132 0 0 0-.072-.084c-.064-.048-.096-.312-.096-.792 0-.384.02-.784.06-1.2.04-.416.092-.752.156-1.008l.432-1.272.336-.96.648-1.392-.96-.264a.407.407 0 0 1-.276-.168.454.454 0 0 1-.108-.264c0-.128.068-.284.204-.468.136-.184.244-.276.324-.276.048.016.176.024.384.024.48 0 .84-.024 1.08-.072.16-.064.272-.192.336-.384.064-.128.14-.288.228-.48a17.355 17.355 0 0 1 .48-.972c.104-.2.236-.428.396-.684.032-.048.104-.164.216-.348.112-.184.248-.34.408-.468a.555.555 0 0 1 .408-.168c.16 0 .368.104.624.312l.132.192a.39.39 0 0 1 .084.216c0 .064-.064.2-.192.408a9.642 9.642 0 0 1-.276.516l-.228.396c-.192.32-.328.56-.408.72-.16.208-.24.368-.24.48 0 .112.104.168.312.168.224 0 .6-.048 1.128-.144.224-.032.376-.048.456-.048.56 0 .864.232.912.696.016.096.024.208.024.336 0 .224-.076.36-.228.408-.152.048-.492.072-1.02.072-.512.08-1.04.12-1.584.12-.096 0-.204.004-.324.012-.12.008-.244.028-.372.06a.528.528 0 0 0-.276.144 1.285 1.285 0 0 0-.18.312c-.048.048-.16.232-.336.552-.224.464-.368.744-.432.84a23.547 23.547 0 0 0-.96 3.936 5.538 5.538 0 0 0-.048.48c0 .24.08.408.24.504.16.096.432.144.816.144.544 0 1.016-.056 1.416-.168a9.83 9.83 0 0 0 1.08-.528 13.782 13.782 0 0 0 .648-.384c.048-.096.104-.144.168-.144.128 0 .24.128.336.384 0 .256-.056.48-.168.672-.112.192-.392.416-.84.672-.928.592-1.856.888-2.784.888-.256 0-.496-.024-.72-.072zm6.72-.72c-.128-.16-.192-.32-.192-.48 0-.128-.04-.192-.12-.192-.096-.096.088-.644.552-1.644.464-1 .864-1.764 1.2-2.292a.43.43 0 0 0 .144-.204c.032-.088.032-.132 0-.132.032-.048.08-.128.144-.24.064-.112.128-.208.192-.288.272-.528.384-.952.336-1.272-.064-.064-.132-.088-.204-.072-.072.016-.116.032-.132.048a2.117 2.117 0 0 1-.252.084 1.27 1.27 0 0 0-.348.156c-.368.24-.6.36-.696.36-.096 0-.18-.048-.252-.144a1.927 1.927 0 0 1-.228-.48 1.142 1.142 0 0 1-.072-.312c0-.112.064-.224.192-.336.096-.096.212-.172.348-.228.136-.056.228-.1.276-.132.336-.192.576-.304.72-.336.288-.08.52-.12.696-.12.48 0 .816.224 1.008.672.224.272.336.584.336.936 0 .304-.112.696-.336 1.176L106 49a.58.58 0 0 0-.072.192c0 .032.008.048.024.048.064 0 .136-.056.216-.168.08-.08.184-.18.312-.3s.216-.18.264-.18c.016 0 .04-.012.072-.036.032-.024.048-.084.048-.18l.24-.216c.064 0 .256-.136.576-.408l.456-.36c.176-.128.336-.192.48-.192a.728.728 0 0 1 .216-.024c.304 0 .552.164.744.492.192.328.288.748.288 1.26l-.504 1.296.864-1.056c.144-.176.336-.368.576-.576.032-.096.076-.156.132-.18a.39.39 0 0 1 .108-.036.117.117 0 0 0 .06-.024.08.08 0 0 0 .036-.072c.064-.048.148-.108.252-.18a.807.807 0 0 0 .204-.18c.144-.064.304-.096.48-.096.336 0 .616.216.84.648.096.176.156.332.18.468.024.136.036.364.036.684-.064.352-.12.72-.168 1.104 0 .064-.016.224-.048.48-.08.176-.12.448-.12.816 0 .224.012.368.036.432.024.064.084.096.18.096.24-.048.556-.164.948-.348.392-.184.676-.364.852-.54.24-.24.456-.36.648-.36.176 0 .288.096.336.288.048.096-.076.352-.372.768-.296.416-.5.624-.612.624-.032 0-.092.048-.18.144-.088.096-.156.16-.204.192-.272.304-.496.456-.672.456a.746.746 0 0 0-.252.06.783.783 0 0 1-.276.06.702.702 0 0 1-.24.024c-.24 0-.472-.064-.696-.192a.882.882 0 0 1-.432-.576c-.128-.32-.192-.768-.192-1.344 0-.144.016-.376.048-.696l.12-.744c.032-.304.064-.488.096-.552V49.6c0-.272-.024-.408-.072-.408-.128 0-.552.412-1.272 1.236-.72.824-1.272 1.532-1.656 2.124a3.718 3.718 0 0 0-.372.636c-.136.28-.22.428-.252.444a.298.298 0 0 1-.216.096c-.096 0-.2-.048-.312-.144a1.298 1.298 0 0 1-.288-.36 1.09 1.09 0 0 1-.096-.36c0-.112.048-.332.144-.66.096-.328.232-.764.408-1.308.176-.528.324-.984.444-1.368.12-.384.196-.64.228-.768 0-.112-.4.176-1.2.864-.16.192-.344.392-.552.6-.368.384-.78.832-1.236 1.344-.456.512-.852 1-1.188 1.464-.352.48-.612.816-.78 1.008-.168.192-.308.288-.42.288-.08 0-.184-.072-.312-.216zm16.056.192c-.16.032-.304.048-.432.048-.208 0-.4-.02-.576-.06-.176-.04-.264-.092-.264-.156 0-.048-.008-.08-.024-.096s-.048-.024-.096-.024a2.567 2.567 0 0 0-.144-.12 1.24 1.24 0 0 0-.288-.168 1.308 1.308 0 0 1-.216-.72c0-.272.072-.696.216-1.272.048-.512.288-1.152.72-1.92s.94-1.496 1.524-2.184c.584-.688 1.108-1.168 1.572-1.44.24-.24.544-.36.912-.36.288 0 .56.072.816.216.224.128.46.344.708.648.248.304.444.616.588.936.064.24.096.472.096.696 0 .24-.032.616-.096 1.128-.08.288-.148.64-.204 1.056a8.252 8.252 0 0 0-.084 1.08c-.032.224-.016.404.048.54s.152.204.264.204c.08 0 .168-.024.264-.072.16-.08.336-.12.528-.12a.64.64 0 0 1 .432.144c.112.096.168.24.168.432 0 .288-.196.576-.588.864-.392.288-.764.432-1.116.432-.24 0-.46-.188-.66-.564-.2-.376-.396-.86-.588-1.452l-.144-.552-1.032.984-.552.552c-.256.256-.4.408-.432.456-.176.304-.616.592-1.32.864zm.072-1.416c.384-.224.856-.616 1.416-1.176.56-.56 1.024-1.096 1.392-1.608.496-.656.808-1.304.936-1.944a2.043 2.043 0 0 0-.312-.576c-.144-.192-.272-.296-.384-.312-.32 0-.656.184-1.008.552-.352.368-.768.88-1.248 1.536l-.792 1.176c-.096.128-.264.468-.504 1.02s-.36.884-.36.996c0 .352.104.528.312.528.16 0 .344-.064.552-.192zm8.664 1.056c-.048 0-.132-.04-.252-.12-.12-.08-.22-.16-.3-.24a.69.69 0 0 1-.204-.36c-.024-.128-.036-.424-.036-.888 0-.496.1-1.04.3-1.632.2-.592.556-1.448 1.068-2.568l.792-1.68c.048-.112.16-.272.336-.48h.24c.112 0 .236.072.372.216.136.144.236.312.3.504 0 .256-.036.496-.108.72-.072.224-.26.536-.564.936-.128.192-.28.496-.456.912a6.353 6.353 0 0 0-.36 1.056c-.048.08-.108.216-.18.408a8.857 8.857 0 0 1-.252.6l-.12.528 1.608-1.656c.704-.704 1.276-1.216 1.716-1.536.44-.32.804-.48 1.092-.48.336 0 .608.216.816.648.144.24.24.428.288.564.048.136.072.348.072.636 0 .096-.016.368-.048.816v1.488a3.23 3.23 0 0 0 .612-.192c.184-.08.324-.136.42-.168.368-.16.776-.256 1.224-.288-.032.272-.152.568-.36.888-.208.32-.464.588-.768.804-.304.216-.6.324-.888.324-.224 0-.46-.104-.708-.312a1.913 1.913 0 0 1-.54-.696 2.103 2.103 0 0 1-.108-.648 36.93 36.93 0 0 1-.012-1.08v-.888c0-.16-.048-.24-.144-.24-.064 0-.216.096-.456.288-.32.288-.84.808-1.56 1.56-.688.72-1.284 1.276-1.788 1.668-.504.392-.852.588-1.044.588z"/>
</svg>
