<?xml version="1.0" encoding="utf-8"?>
<!-- Generator: Adobe Illustrator 22.0.1, SVG Export Plug-In . SVG Version: 6.00 Build 0)  -->
<svg version="1.1" xmlns="http://www.w3.org/2000/svg" xmlns:xlink="http://www.w3.org/1999/xlink" x="0px" y="0px"
	 viewBox="0 0 95 95" style="enable-background:new 0 0 95 95;" xml:space="preserve">
<style type="text/css">
	.st0{fill:#CBD8F6;}
	.st1{fill:#645FC9;}
</style>
<g id="Слой_2">
</g>
<g id="Слой_1">
	<g>
		<path class="st0" d="M5270.6,2397.6v-2c0-2.8-5-4-9.7-4s-9.7,1.3-9.7,4v2c0,1.8,0.7,3.6,2,4.9l5,4.9c0.3,0.3,0.4,0.6,0.4,1v6.4
			c0,0.4,0.2,0.7,0.6,0.8l2.9,0.9c0.5,0.1,1-0.2,1-0.8v-7.2c0-0.4,0.2-0.7,0.4-1l5.1-5C5269.9,2401.2,5270.6,2399.4,5270.6,2397.6z
			 M5260.9,2397.5c-4.8,0-7.4-1.3-7.5-1.8l0,0c0.1-0.5,2.7-1.8,7.5-1.8s7.3,1.3,7.5,1.8C5268.2,2396.2,5265.7,2397.5,5260.9,2397.5z
			"/>
		<path class="st0" d="M5265.9,2407.8c-0.6,0-1,0.4-1,1s0.4,1,1,1h4.3c0.6,0,1-0.4,1-1s-0.4-1-1-1H5265.9z"/>
		<path class="st0" d="M5270.2,2411.2h-4.3c-0.6,0-1,0.4-1,1s0.4,1,1,1h4.3c0.6,0,1-0.4,1-1
			C5271.2,2411.6,5270.8,2411.2,5270.2,2411.2z"/>
		<path class="st0" d="M5270.2,2414.5h-4.3c-0.6,0-1,0.4-1,1s0.4,1,1,1h4.3c0.6,0,1-0.4,1-1
			C5271.2,2415,5270.8,2414.5,5270.2,2414.5z"/>
	</g>
	<g>
		<path class="st0" d="M95,47.5C95,21.3,73.7,0,47.5,0S0,21.3,0,47.5S21.3,95,47.5,95C73.7,95,95,73.7,95,47.5z M10,47.5
			C10,26.8,26.8,10,47.5,10C68.2,10,85,26.8,85,47.5S68.2,85,47.5,85S10,68.2,10,47.5z"/>
		<path class="st0" d="M85,47.5C85,26.8,68.2,10,47.5,10C26.8,10,10,26.8,10,47.5S26.8,85,47.5,85S85,68.2,85,47.5z M35,56.8
			c-2,2-5.1,2-7.1,0c-1-0.9-1.5-2.3-1.5-3.5s0.5-2.5,1.5-3.5l16-16c2-2,5.1-2,7.1,0l16,16c2,2,2,5.1,0,7.1c-1.9,2-5.1,2-7.1,0
			L47.5,44.5L35,56.8z"/>
	</g>
	<g>
		<path class="st1" d="M35,56.8c-2,2-5.1,2-7.1,0c-1-0.9-1.5-2.3-1.5-3.5s0.5-2.5,1.5-3.5l16-16c2-2,5.1-2,7.1,0l16,16
			c2,2,2,5.1,0,7.1c-1.9,2-5.1,2-7.1,0L47.5,44.5L35,56.8z"/>
	</g>
</g>
</svg>
