<?xml version="1.0" encoding="UTF-8"?>
<svg width="21px" height="18px" viewBox="0 0 21 18" version="1.1" xmlns="http://www.w3.org/2000/svg" xmlns:xlink="http://www.w3.org/1999/xlink">
    <!-- Generator: Sketch 53.2 (72643) - https://sketchapp.com -->
    <title>Group 22</title>
    <desc>Created with Sketch.</desc>
    <g id="🔵-Settings" stroke="none" stroke-width="1" fill="none" fill-rule="evenodd">
        <g id="01_Settings_Desktop_Popover" transform="translate(-1122.000000, -177.000000)">
            <g id="Popover" transform="translate(1105.000000, 94.341354)">
                <g id="Group-22" transform="translate(18.000000, 82.658646)">
                    <g id="message-circle" transform="translate(0.000000, 1.000000)" opacity="0.300000012" stroke="#0E0B4D" stroke-linecap="round" stroke-linejoin="round" stroke-width="1.5">
                        <path d="M16.0000027,7.55558235 C16.0030616,8.72879841 15.7289527,9.88614687 15.2000025,10.9333608 C13.9208549,13.4927638 11.3056975,15.1100322 8.44444586,15.1111394 C7.27122983,15.1141983 6.1138814,14.8400894 5.06666751,14.3111392 L-3.55271368e-14,16.0000284 L1.68888917,10.9333608 C1.15993899,9.88614687 0.885830146,8.72879841 0.888889038,7.55558235 C0.889996201,4.69433067 2.50726461,2.07917317 5.06666751,0.800025478 C6.1138814,0.271075278 7.27122983,-0.00303356868 8.44444586,2.53227624e-05 L8.88889038,2.53227624e-05 C12.7251661,0.211669534 15.7883585,3.27486203 16.0000027,7.11113782 L16.0000027,7.55558235 L16.0000027,7.55558235 Z" id="Path"></path>
                    </g>
                    <circle id="Oval" fill="#4DBEBB" cx="15" cy="5" r="5"></circle>
                </g>
            </g>
        </g>
    </g>
</svg>