<svg xmlns="http://www.w3.org/2000/svg" width="20" height="21" viewBox="0 0 20 21">
    <path fill="#645FC9" fill-rule="nonzero" d="M1.578 17.253c-.073-.039-.146-.077-.218-.118a2.458 2.458 0 0 1-.95-.96 3.19 3.19 0 0 1-.328-2.292c.068-.307.177-.598.32-.877a4.29 4.29 0 0 1 .617-.897 5.27 5.27 0 0 1 1.333-1.073 6.169 6.169 0 0 1 1.176-.519 7.55 7.55 0 0 0 1.11-.468c.452-.232.886-.499 1.318-.77.382-.239.761-.482 1.153-.703.294-.168.595-.321.908-.444.393-.153.794-.251 1.213-.244.315.006.616.07.905.192.327.138.631.316.91.538.427.34.736.774.938 1.292.137.356.223.728.288 1.105.07.4.117.805.173 1.208.062.454.134.905.241 1.35.107.443.25.872.43 1.287a6.71 6.71 0 0 1 .472 1.568c.077.468.101.938.053 1.413-.037.37-.117.73-.25 1.08-.203.53-.506.987-.936 1.352-.398.338-.851.55-1.35.656a2.908 2.908 0 0 1-1.101.033 2.528 2.528 0 0 1-.384-.095c-.017-.006-.035-.01-.052-.014-.02.002-.034-.013-.051-.018-.015-.004-.026-.017-.043-.014l-.307-.138c-.009-.015-.025-.015-.037-.022l-.035-.016c-.01-.004-.02-.01-.03-.013a4.214 4.214 0 0 1-.714-.475c-.383-.299-.744-.627-1.121-.933a8.416 8.416 0 0 0-.958-.683 5.231 5.231 0 0 0-.729-.357c-.2-.082-.41-.138-.62-.187-.415-.097-.837-.158-1.26-.22-.446-.064-.892-.13-1.329-.242a3.094 3.094 0 0 1-.52-.175c-.035-.016-.071-.026-.106-.042-.043-.023-.09-.034-.13-.065zM16.732 2.824c.57.338.902.833 1.052 1.445.103.42.1.836.03 1.252a3.851 3.851 0 0 1-.332 1.022A4.41 4.41 0 0 1 16.27 8.07c-.36.292-.76.521-1.207.673a3.02 3.02 0 0 1-1.243.161 2.294 2.294 0 0 1-.865-.245 2.152 2.152 0 0 1-1.01-1.085 2.747 2.747 0 0 1-.212-1.247c.015-.297.069-.586.155-.868.059-.193.13-.38.218-.561.205-.427.473-.812.802-1.154.35-.365.751-.665 1.216-.887.39-.186.804-.306 1.249-.332.326-.02.649.018.966.122.01 0 .02.006.03.01l.028.013c.015.004.027.017.043.013l.197.089c.009.015.026.015.039.023l.029.013c.009.004.02.007.027.016zM.616 3.296c.081-.163.18-.313.292-.456.215-.276.469-.502.776-.655a1.574 1.574 0 0 1 1.83.268c.257.235.447.524.586.851.216.507.293 1.045.263 1.609a3.904 3.904 0 0 1-.146.87c-.04.139-.09.274-.145.407a3.21 3.21 0 0 1-.402.705 2.29 2.29 0 0 1-.796.684c-.364.182-.74.229-1.12.131a1.666 1.666 0 0 1-.734-.417 2.515 2.515 0 0 1-.623-.976A3.498 3.498 0 0 1 .185 5.17c-.008-.39.037-.776.145-1.156.019-.067.04-.133.06-.2.006-.031.021-.06.027-.091.002-.013.01-.024.014-.037.005-.016.018-.03.016-.048l.102-.232c.023-.015.027-.041.038-.063.008-.017.012-.036.03-.047zm5.401-1.522c.198-.445.45-.813.796-1.121A2.56 2.56 0 0 1 7.73.118 2.279 2.279 0 0 1 8.944.053c.429.092.803.29 1.13.576.288.252.508.545.676.865.269.51.391 1.036.408 1.571a3.682 3.682 0 0 1-.277 1.527c-.09.217-.202.425-.338.62-.283.406-.644.74-1.123.964-.298.139-.62.219-.975.222a2.358 2.358 0 0 1-1.138-.285 2.677 2.677 0 0 1-.823-.684 3.282 3.282 0 0 1-.61-1.17A3.674 3.674 0 0 1 5.75 2.79a3.706 3.706 0 0 1 .266-1.016zm13.719 10.445l-.024.054c-.219.434-.54.79-.935 1.09-.311.234-.658.42-1.043.548a3.524 3.524 0 0 1-1.566.169c-.331-.04-.65-.13-.953-.284a2.216 2.216 0 0 1-.998-.974 2.037 2.037 0 0 1-.218-1.07 2.41 2.41 0 0 1 .242-.917c.305-.631.795-1.11 1.434-1.462.216-.12.446-.216.688-.29a3.508 3.508 0 0 1 1.566-.121c.312.048.61.14.893.291.431.23.754.551.962.965.187.373.241.753.206 1.138-.02.212-.067.417-.144.612l-.024.054c-.03.065-.06.13-.086.197z" opacity=".9"/>
</svg>
