<svg xmlns="http://www.w3.org/2000/svg" width="47" height="48" viewBox="0 0 47 48">
    <path fill="#CBD8F6" fill-rule="nonzero" d="M3.708 39.436c-.17-.089-.343-.176-.511-.27-.943-.526-1.698-1.25-2.233-2.193-.921-1.63-1.192-3.376-.77-5.242.159-.7.415-1.365.752-2.002a9.803 9.803 0 0 1 1.45-2.052c.908-.996 1.962-1.799 3.132-2.452a14.706 14.706 0 0 1 2.764-1.185c.897-.283 1.762-.651 2.606-1.071 1.064-.531 2.084-1.14 3.1-1.759.897-.547 1.788-1.103 2.707-1.609a16.73 16.73 0 0 1 2.136-1.013c.921-.35 1.865-.575 2.85-.557a5.784 5.784 0 0 1 2.126.438c.768.315 1.483.72 2.139 1.229 1.003.779 1.729 1.769 2.203 2.955.323.813.525 1.662.678 2.525.163.915.275 1.839.405 2.76.147 1.038.317 2.07.568 3.086.25 1.013.588 1.994 1.012 2.942.514 1.146.891 2.338 1.107 3.585.182 1.068.238 2.143.125 3.23a9.32 9.32 0 0 1-.589 2.465c-.475 1.212-1.188 2.257-2.198 3.092-.935.774-2 1.258-3.172 1.499-.862.177-1.725.22-2.588.077a6.08 6.08 0 0 1-.901-.217c-.041-.014-.082-.023-.123-.033-.046.005-.08-.029-.121-.04-.034-.01-.061-.04-.101-.033l-.722-.316c-.019-.034-.058-.033-.087-.05l-.082-.037-.07-.03c-.607-.29-1.145-.683-1.678-1.085-.9-.683-1.748-1.432-2.634-2.133a19.783 19.783 0 0 0-2.252-1.56 12.441 12.441 0 0 0-1.712-.816 9.875 9.875 0 0 0-1.457-.429c-.976-.221-1.968-.36-2.96-.5-1.05-.148-2.099-.297-3.125-.556-.416-.106-.83-.222-1.223-.398-.08-.037-.166-.06-.247-.098-.101-.051-.213-.077-.304-.147zM39.32 6.455c1.34.773 2.119 1.903 2.472 3.302.242.959.235 1.912.07 2.862a8.634 8.634 0 0 1-.78 2.337 10.13 10.13 0 0 1-2.849 3.49 9.202 9.202 0 0 1-2.837 1.537c-.936.307-1.906.456-2.92.37a5.508 5.508 0 0 1-2.034-.56 4.975 4.975 0 0 1-2.373-2.48c-.412-.923-.546-1.879-.497-2.851.034-.68.162-1.34.364-1.984.138-.442.307-.87.512-1.283a10.076 10.076 0 0 1 1.885-2.637 9.764 9.764 0 0 1 2.857-2.027c.918-.426 1.89-.7 2.935-.76a6.224 6.224 0 0 1 2.27.28c.026-.002.048.013.07.021l.068.03c.034.01.062.04.1.031l.463.203c.02.035.06.035.091.053l.068.03c.021.01.048.015.065.036zM1.448 7.533a6.12 6.12 0 0 1 .685-1.04c.507-.632 1.102-1.15 1.824-1.5.807-.39 1.638-.506 2.49-.327.69.146 1.29.475 1.813.942.601.536 1.05 1.197 1.375 1.944.507 1.158.69 2.39.62 3.677a8.7 8.7 0 0 1-.346 1.99c-.093.317-.21.626-.34.93a7.288 7.288 0 0 1-.945 1.611c-.515.66-1.124 1.2-1.87 1.563-.856.417-1.737.524-2.633.3-.658-.163-1.227-.496-1.725-.953-.669-.614-1.137-1.373-1.464-2.231a7.8 7.8 0 0 1-.496-2.622c-.02-.89.087-1.773.338-2.641.045-.154.094-.305.14-.457.016-.073.052-.137.066-.21.006-.03.021-.054.033-.083.01-.037.043-.067.038-.111l.24-.53c.053-.034.061-.094.088-.144.02-.038.03-.083.069-.108zM14.14 4.055c.466-1.017 1.058-1.86 1.871-2.563A6.058 6.058 0 0 1 18.165.271a5.5 5.5 0 0 1 2.853-.15 5.903 5.903 0 0 1 2.656 1.317 6.842 6.842 0 0 1 1.588 1.977 7.946 7.946 0 0 1 .96 3.59 8.194 8.194 0 0 1-.244 2.27c-.105.416-.24.823-.408 1.22a7.394 7.394 0 0 1-.793 1.417c-.666.929-1.514 1.694-2.64 2.205-.7.317-1.459.5-2.291.506a5.665 5.665 0 0 1-2.675-.651 6.254 6.254 0 0 1-1.934-1.562 7.433 7.433 0 0 1-1.435-2.676 8.177 8.177 0 0 1-.288-3.356 8.274 8.274 0 0 1 .407-1.765c.074-.214.15-.429.22-.558zM46.38 27.93l-.056.122c-.514.992-1.267 1.807-2.198 2.491a8.655 8.655 0 0 1-2.451 1.254 8.5 8.5 0 0 1-3.68.386 6.778 6.778 0 0 1-2.238-.65c-1.05-.521-1.838-1.261-2.346-2.226a4.548 4.548 0 0 1-.512-2.443c.044-.743.242-1.441.569-2.098.717-1.444 1.868-2.537 3.37-3.342a8.48 8.48 0 0 1 1.617-.662c1.172-.344 2.39-.47 3.679-.278.732.11 1.436.322 2.099.667 1.013.525 1.772 1.259 2.26 2.204.44.852.567 1.722.484 2.6a4.924 4.924 0 0 1-.338 1.402l-.056.123c-.073.147-.14.297-.203.45z" opacity=".9"/>
</svg>
