<?xml version="1.0" encoding="UTF-8"?>
<svg width="82px" height="82px" viewBox="0 0 82 82" version="1.1" xmlns="http://www.w3.org/2000/svg" xmlns:xlink="http://www.w3.org/1999/xlink">
    <!-- Generator: Sketch 53.2 (72643) - https://sketchapp.com -->
    <title>Group 19</title>
    <desc>Created with Sketch.</desc>
    <g id="Home" stroke="none" stroke-width="1" fill="none" fill-rule="evenodd">
        <g id="Landings_Breeders_test" transform="translate(-136.000000, -2755.000000)">
            <g id="Group-3" transform="translate(0.000000, 1962.000000)">
                <g id="Group-19" transform="translate(137.000000, 794.000000)">
                    <circle id="Oval" stroke="#645FC9" stroke-width="2" cx="40" cy="40" r="40"></circle>
                    <g id="animal-rights" transform="translate(15.000000, 17.000000)" fill="#645FC9" fill-rule="nonzero">
                        <path d="M11.4600728,27.4075404 C10.3088592,26.2572319 8.55910194,26.0618553 7.20351942,26.8199553 L7.20351942,14.9741426 C7.20351942,14.3724894 7.05279126,13.8055213 6.78774272,13.308166 C6.94720874,13.2607468 7.11419903,13.2358851 7.28446602,13.2358851 C8.24356796,13.2358851 9.02390777,14.0155723 9.02390777,14.9741426 L9.02390777,23.7192766 C9.02390777,24.2216043 9.43143204,24.6288511 9.93410194,24.6288511 C10.4367718,24.6288511 10.8442961,24.2216043 10.8442961,23.7192766 L10.8442961,14.9741426 C10.8442961,13.0126149 9.2473301,11.4167362 7.28446602,11.4167362 C6.63519417,11.4167362 6.0092233,11.5919809 5.46286408,11.9179723 C4.93009709,11.6001064 4.30800971,11.4167362 3.64368932,11.4167362 C1.68082524,11.4167362 0.0838592233,13.0124936 0.0838592233,14.9748702 L0.0986650485,31.667866 C0.0992718447,32.4296043 0.381553398,33.5049638 0.755097087,34.1691957 C0.761165049,34.1801106 0.767597087,34.190783 0.774150485,34.2014553 L11.2588592,51.1681723 C11.4765777,51.5648681 11.6728155,52.3195723 11.6728155,52.7644149 L11.6728155,60.5298456 C11.6728155,61.0321732 12.0803398,61.43942 12.5830097,61.43942 C13.0856796,61.43942 13.4932039,61.0321732 13.4932039,60.5298456 L13.4932039,52.7644149 C13.4932039,52.002434 13.2114078,50.9267106 12.8377427,50.2623574 C12.8315534,50.2514426 12.8252427,50.2407702 12.8186893,50.2300979 L2.3342233,33.2635021 C2.1163835,32.8665638 1.91966019,32.1114957 1.91929612,31.6664106 L1.90449029,14.9742638 C1.90449029,14.0158149 2.6848301,13.2360064 3.64393204,13.2360064 C4.60303398,13.2360064 5.38337379,14.0156936 5.38337379,14.9742638 L5.38337379,29.9230596 C5.38337379,29.9444043 5.38507282,29.9653851 5.38652913,29.986366 C5.40218447,30.8760511 5.74805825,31.7610064 6.42597087,32.4384574 L14.5785194,40.585334 C14.9339806,40.9405532 15.5103155,40.9405532 15.8656553,40.585334 C16.2211165,40.2301149 16.2211165,39.6542936 15.8656553,39.2990745 L7.7131068,31.1521979 C7.03495146,30.4745043 7.03495146,29.3717362 7.7131068,28.6940426 C8.39126214,28.0163489 9.49478155,28.0163489 10.1730583,28.6940426 L20.2041262,38.7182809 C21.3237864,39.8371787 22.2697816,42.1193617 22.2697816,43.7017787 L22.2697816,62.170069 C22.2697816,62.6723966 22.6773058,63.0796434 23.1799757,63.0796434 C23.6826456,63.0796434 24.0901699,62.6723966 24.0901699,62.170069 L24.0901699,43.7016574 C24.0901699,41.6421383 22.948665,38.8880681 21.4912621,37.4317787 L11.4600728,27.4075404 Z" id="Path"></path>
                        <path d="M46.3563107,11.4168574 C45.6919903,11.4168574 45.0699029,11.6001064 44.5371359,11.9180936 C43.9907767,11.5921021 43.3648058,11.4168574 42.715534,11.4168574 C40.7526699,11.4168574 39.1557039,13.0126149 39.1557039,14.9742638 L39.1557039,23.7193979 C39.1557039,24.2217255 39.5631068,24.6289723 40.0658981,24.6289723 C40.5686893,24.6289723 40.9760922,24.2217255 40.9760922,23.7193979 L40.9760922,14.9742638 C40.9760922,14.0158149 41.756432,13.2360064 42.715534,13.2360064 C42.885801,13.2360064 43.0527913,13.2608681 43.2122573,13.3082872 C42.9473301,13.8056426 42.7964806,14.3726106 42.7964806,14.9742638 L42.7964806,26.8186213 C42.2709951,26.5235553 41.676335,26.3657745 41.0571602,26.3657745 C40.1063107,26.3657745 39.2123786,26.7357894 38.5400485,27.4076617 L28.5091019,37.4319 C27.051699,38.8881894 25.9101942,41.6422596 25.9101942,43.7017787 L25.9101942,62.445405 C25.9101942,62.9477326 26.3175971,63.3549794 26.8203883,63.3549794 C27.3231796,63.3549794 27.7305825,62.9477326 27.7305825,62.445405 L27.7305825,43.7016574 C27.7305825,42.1192404 28.6765777,39.8370574 29.7962379,38.7181596 L39.8273058,28.6939213 C40.1557039,28.3656255 40.5925971,28.1848021 41.0571602,28.1848021 C41.5217233,28.1848021 41.9586165,28.3656255 42.2870146,28.6939213 C42.6156553,29.022217 42.7964806,29.4586915 42.7964806,29.9230596 C42.7964806,30.3874277 42.6156553,30.8237809 42.2870146,31.1521979 L34.1345874,39.2990745 C33.7791262,39.6542936 33.7791262,40.2302362 34.1345874,40.585334 C34.4900485,40.9404319 35.0662621,40.9406745 35.4218447,40.585334 L43.5741505,32.4384574 C44.2466019,31.7665851 44.6168689,30.8732617 44.6168689,29.9230596 L44.6168689,14.9741426 C44.6168689,14.0156936 45.3972087,13.2358851 46.3563107,13.2358851 C47.3152913,13.2358851 48.0956311,14.0155723 48.0956311,14.9732936 L48.0809466,31.6661681 C48.0804612,32.1114957 47.8837379,32.8665638 47.6658981,33.2632596 L37.1813107,50.2299766 C37.1746359,50.2405277 37.1684466,50.2513213 37.1622573,50.2622362 C36.7885922,50.9265894 36.5067961,52.0023128 36.5067961,52.7642936 L36.5067961,60.445405 C36.5067961,60.9477326 36.914199,61.3549794 37.4169903,61.3549794 C37.9197816,61.3549794 38.3271845,60.9477326 38.3271845,60.445405 L38.3271845,52.7644149 C38.3271845,52.3195723 38.5234223,51.5649894 38.7411408,51.1681723 L49.2257282,34.2014553 C49.2324029,34.1909043 49.2385922,34.1802319 49.2446602,34.169317 C49.6183252,33.5053277 49.9006068,32.4299681 49.901335,31.667866 L49.9160194,14.9741426 C49.9160194,13.0126149 48.3191748,11.4168574 46.3563107,11.4168574 Z" id="Path"></path>
                        <path d="M24.4894417,7.15568298 C23.9867718,7.15568298 23.5792476,7.56292979 23.5792476,8.06525745 L23.5792476,17.7483447 C23.5792476,19.2244021 22.3775485,20.425283 20.9004854,20.425283 C19.4234223,20.425283 18.2218447,19.2245234 18.2217233,17.748466 C18.2217233,17.7483447 18.2217233,17.7481021 18.2217233,17.7479809 L18.2217233,8.17683191 C18.2217233,4.61178511 20.9748786,1.81914894 24.4894417,1.81914894 C27.9455097,1.81914894 30.7572816,4.6719383 30.7572816,8.17840851 C30.7572816,8.68073617 31.1646845,9.08798298 31.6674757,9.08798298 L36.0575243,9.08798298 C36.0620146,9.7221383 36.0667476,10.6355936 36.0667476,11.6430383 C36.0667476,13.0538489 34.9206311,14.2014894 33.5116505,14.2014894 L31.7663835,14.2014894 C31.2635922,14.2014894 30.8561893,14.6087362 30.8561893,15.1110638 L30.8561893,30.343283 C30.8561893,30.8456106 31.2635922,31.2528574 31.7663835,31.2528574 C32.2691748,31.2528574 32.6765777,30.8456106 32.6765777,30.343283 L32.6765777,16.0207596 L33.5116505,16.0207596 C35.9242718,16.0207596 37.8871359,14.0569277 37.8871359,11.6431596 C37.8871359,9.74845532 37.8703883,8.18422979 37.870267,8.16858511 C37.8648058,7.6701383 37.4588592,7.26883404 36.9600728,7.26883404 L32.5290049,7.26883404 C32.3309466,5.4279766 31.5332524,3.7257383 30.2331311,2.40248936 C28.7110437,0.853180851 26.6712379,0 24.4894417,0 C22.3075243,0 20.2678398,0.852938298 18.7457524,2.40151915 C17.2338592,3.93991277 16.4012136,5.99094255 16.4012136,8.17671064 L16.4012136,17.371417 L12.9722087,20.7980872 C12.6167476,21.1533064 12.6167476,21.7291277 12.9722087,22.0843468 C13.1498786,22.262017 13.3828883,22.3507915 13.6157767,22.3507915 C13.848665,22.3507915 14.0816748,22.262017 14.2593447,22.0843468 L16.784466,19.5609447 C17.4834951,21.1394809 19.0648058,22.2441894 20.9003641,22.2441894 C23.3811893,22.2441894 25.3995146,20.2272383 25.3995146,17.7481021 L25.3995146,8.06525745 C25.3995146,7.56292979 24.9921117,7.15568298 24.4894417,7.15568298 Z" id="Path"></path>
                    </g>
                </g>
            </g>
        </g>
    </g>
</svg>