<?xml version="1.0" encoding="UTF-8"?>
<svg width="50px" height="50px" viewBox="0 0 50 50" version="1.1" xmlns="http://www.w3.org/2000/svg" xmlns:xlink="http://www.w3.org/1999/xlink">
    <!-- Generator: Sketch 53.2 (72643) - https://sketchapp.com -->
    <title>ava</title>
    <desc>Created with Sketch.</desc>
    <defs>
        <circle id="path-1" cx="25" cy="25" r="25"></circle>
    </defs>
    <g id="🔵-Home" stroke="none" stroke-width="1" fill="none" fill-rule="evenodd">
        <g id="Breeder's_Card_Desktop" transform="translate(-735.000000, -783.000000)">
            <g id="Card" transform="translate(335.000000, 162.000000)">
                <g id="Group-33" transform="translate(40.000000, 582.000000)">
                    <g id="ava" transform="translate(360.000000, 39.000000)">
                        <mask id="mask-2" fill="white">
                            <use xlink:href="#path-1"></use>
                        </mask>
                        <use id="bg" fill="#CBD8F6" xlink:href="#path-1"></use>
                        <g id="dog-face" mask="url(#mask-2)" fill="#FFFFFF" fill-rule="nonzero">
                            <g transform="translate(8.000000, 11.000000)">
                                <path d="M4.55465936,21.886988 C4.7147908,21.886988 4.96057393,21.7566484 5.37021249,21.5033801 C6.31610515,20.9261621 7.06462651,19.7605542 7.60088061,18.2262716 C8.341954,16.1035991 8.67338883,13.2733691 8.56539321,10.2904556 C8.45739759,7.36712596 9.64907338,4.53689595 11.2541117,2.13492442 C11.7717087,1.36033516 12.87777,0.436749179 11.8015378,0.436749179 C9.23943483,0.436749179 -3.36998467,6.91648631 0.860464403,13.236092 C4.90475137,19.2801972 3.84341512,21.886988 4.55465936,21.886988 Z" id="Path"></path>
                                <path d="M22.7128565,2.13868565 C24.3141709,4.54065717 25.5058467,7.37464841 25.4015378,10.2942169 C25.2935794,13.2734064 25.624977,16.1073976 26.3660504,18.2300701 C26.9023045,19.7643527 27.6508258,20.9299606 28.5967185,21.5071785 C29.0100811,21.7604096 29.2558269,21.8907492 29.4122344,21.8907492 C30.1197919,21.8907492 29.0622169,19.2802344 33.1064294,13.2399277 C37.3368784,6.92032202 24.7274589,0.440584885 22.165356,0.440584885 C21.0854743,0.440547645 22.1952223,1.36409639 22.7128565,2.13868565 Z" id="Path"></path>
                                <path d="M8.32705805,19.883483 C8.52815334,20.3005696 8.74042059,20.7176561 8.96013582,21.1310186 C11.466379,25.8270033 11.1535641,26.4563198 11.1535641,27.6442716 C11.1535641,28.7316758 13.6411873,29.5025411 16.2330821,27.4394524 L16.2330821,25.3167798 C15.2648456,24.9034173 14.0955137,23.8383571 14.0955137,22.8850164 C14.0955137,21.6709595 15.3765652,21.4885214 16.9592596,21.4885214 C16.9666703,21.4885214 16.9741183,21.4885214 16.9816035,21.4885214 C16.9816035,21.4885214 16.9964995,21.4885214 17.0039474,21.4885214 C18.5866418,21.4885214 19.8677306,21.6709595 19.8677306,22.8850164 C19.8677306,23.8383571 18.6983987,24.9034173 17.7301621,25.3167798 L17.7301621,27.4394524 C20.3369529,29.5025411 22.8096802,28.7316758 22.8096802,27.6442716 C22.8096802,26.4525958 22.4968653,25.826966 25.0031084,21.1310186 C25.2227864,20.7176561 25.4350909,20.3005696 25.6361862,19.883483 C25.3196473,19.2280613 25.047759,18.4795772 24.8243198,17.6528521 C24.2508631,15.5376276 23.997632,12.9754874 24.0981424,10.249529 C24.1353823,9.21802191 23.9938708,8.14175246 23.6736451,7.04690033 C23.412966,6.15314348 23.0368061,5.2519759 22.5526878,4.36190581 C21.7408587,2.86486309 20.7763834,1.76256298 20.7763834,1.76256298 C20.4710164,1.31192333 20.3965367,0.909769989 20.4151566,0.585745893 C18.5233713,-0.0510558598 16.9816035,0.0234238773 16.9816035,0.0234238773 C16.9741555,0.0234238773 15.4398729,-0.0510558598 13.5480876,0.585745893 C13.5704688,0.909732749 13.4922278,1.31192333 13.1868609,1.76256298 C13.1868609,1.76256298 12.2223855,2.86486309 11.4105564,4.36190581 C10.9264381,5.25193866 10.5502782,6.15686747 10.2895991,7.04690033 C9.96933625,8.13806572 9.82786199,9.21802191 9.86510186,10.249529 C9.96561227,12.9792486 9.71238116,15.5376276 9.13892442,17.6528521 C8.91544797,18.47954 8.64359693,19.2243373 8.32705805,19.883483 Z M21.0743023,9.91809419 C22.0425389,9.91809419 22.8283001,10.7038554 22.8283001,11.672092 C22.8283001,12.6403286 22.0425389,13.4261271 21.0743023,13.4261271 C20.1060657,13.4261271 19.3202673,12.6403286 19.3202673,11.672092 C19.3202673,10.7038554 20.1060657,9.91809419 21.0743023,9.91809419 Z M12.8889419,9.91809419 C13.8571785,9.91809419 14.642977,10.7038554 14.642977,11.672092 C14.642977,12.6403286 13.8571785,13.4261271 12.8889419,13.4261271 C11.9207054,13.4261271 11.1349441,12.6403286 11.1349441,11.672092 C11.1349441,10.7038554 11.9207054,9.91809419 12.8889419,9.91809419 Z" id="Shape"></path>
                            </g>
                        </g>
                    </g>
                </g>
            </g>
        </g>
    </g>
</svg>