<?xml version="1.0" encoding="UTF-8"?>
<svg width="82px" height="82px" viewBox="0 0 82 82" version="1.1" xmlns="http://www.w3.org/2000/svg" xmlns:xlink="http://www.w3.org/1999/xlink">
    <!-- Generator: Sketch 53.2 (72643) - https://sketchapp.com -->
    <title>Group 20</title>
    <desc>Created with Sketch.</desc>
    <g id="Home" stroke="none" stroke-width="1" fill="none" fill-rule="evenodd">
        <g id="Landings_Breeders_test" transform="translate(-934.000000, -2755.000000)">
            <g id="Group-3" transform="translate(0.000000, 1962.000000)">
                <g id="Group-20" transform="translate(935.000000, 794.000000)">
                    <circle id="Oval" stroke="#645FC9" stroke-width="2" cx="40" cy="40" r="40"></circle>
                    <g id="pay" transform="translate(2.000000, 12.000000)" fill="#645FC9" fill-rule="nonzero">
                        <path d="M59.5119175,39.575052 L55.9331959,35.9027027 C55.5674062,35.5266861 54.9840165,35.4769231 54.5608247,35.7856133 L38.9685773,47.3668191 L33.4474227,44.7482744 L38.2929485,44.2054054 C38.8260619,44.140474 39.2257649,43.6823617 39.2219381,43.1409563 L39.2219381,38.5425364 C39.2219381,37.9546944 38.7492619,37.4780873 38.166268,37.4780873 L32.8879175,37.4780873 L23.9991753,36.5626611 C23.8189196,36.5449647 23.6370804,36.574237 23.4713402,36.647817 L17.4117938,39.2663617 L3.55271368e-15,39.2663617 L3.55271368e-15,41.3952599 L17.6334845,41.3952599 C17.7785072,41.3964574 17.9223423,41.3674511 18.0557526,41.310104 L24.0625155,38.6596258 L32.729567,39.553763 L37.1528247,39.553763 L37.1528247,42.1935967 L33.2468454,42.6832432 L27.5778969,42.0765073 C27.0672165,42.0268773 26.595068,42.3547277 26.4588866,42.8535551 C26.3213856,43.3505198 26.5571959,43.8754262 27.0183918,44.0989605 L38.7257732,49.5276507 C39.0711093,49.6859875 39.4741113,49.6454054 39.7814433,49.4212058 L55.1308866,38.0528898 L57.2422268,40.2669439 L39.6019794,55.8079002 L34.8197938,55.8079002 L17.9818557,49.4957173 C17.8641485,49.4487484 17.7389196,49.4234678 17.6123711,49.4212058 L5,49.4212058 L5,51.550104 L17.4329072,51.550104 L34.2602887,57.8729314 C34.3786557,57.9163077 34.5037526,57.9378628 34.6297732,57.9367983 L39.9925773,57.9367983 C40.2492371,57.9363992 40.4969237,57.8417963 40.6893196,57.6706861 L59.459134,41.1291476 C59.4769485,41.113447 59.4942351,41.0972141 59.5108619,41.0804491 C59.9234969,40.6650478 59.9238928,39.9909854 59.5119175,39.575052 Z" id="Path"></path>
                        <path d="M56.7460619,20.8372557 C56.5685773,20.6475177 56.3281485,20.5300291 56.070433,20.5072765 L44.6691959,19.4428274 L40.3198351,19.4428274 L40.5309691,16.2494802 L44.6586392,15.4085655 L50.4225979,16.7071933 C50.5413608,16.727817 50.6627629,16.727817 50.7815258,16.7071933 L56.387134,16.0365904 L56.1337732,13.9076923 L50.7076289,14.4931393 L44.9014433,13.1945114 C44.7594557,13.1575218 44.6106062,13.1575218 44.4686186,13.1945114 L39.3275052,14.2589605 C38.8541691,14.3503701 38.502367,14.753264 38.4724124,15.2382536 L38.1345979,20.4221206 C38.1332784,20.4440748 38.1326186,20.465896 38.1327505,20.4878503 C38.1338062,21.0756923 38.6072742,21.551501 39.190268,21.5504366 L44.5741856,21.5504366 L55.4898144,22.5510187 L61.1059794,28.48 C61.3043134,28.6896965 61.5787876,28.8089148 61.8660619,28.8099792 L78,28.8099792 L78,26.6810811 L62.32,26.6810811 L56.7460619,20.8372557 Z" id="Path"></path>
                        <path d="M60.483134,4.51925156 C60.3664825,4.42398337 60.2289814,4.35825364 60.0819794,4.32765073 L42.1355876,0.0698544706 C41.8315546,0.00558835829 41.5149856,0.0795675683 41.2699381,0.272099793 L29.657567,8.78769231 L30.9032577,10.5120998 L42.1250309,2.28390852 L59.3746804,6.37139293 L69.9841649,13.9076923 L75,13.9076923 L74,12 L69.9841649,11.970395 L60.483134,4.51925156 Z" id="Path"></path>
                        <path d="M43.3390515,6.57363825 C43.0637856,6.4488316 42.748668,6.4488316 42.4734021,6.57363825 L36.1393814,9.76698545 L37.0894845,11.6617048 L43.0012371,8.69189189 L47.8362062,10.6824116 L48.6174021,8.70253638 L43.3390515,6.57363825 Z" id="Path"></path>
                        <path d="M32.4234227,18.3677339 L30.5654433,18.0909771 C29.7209072,17.9632432 29.2247423,17.633264 29.2247423,17.1010395 C29.2247423,16.568815 29.9637113,16.0365904 30.9560412,16.0898129 L31.7161237,16.0898129 C32.7084536,16.0898129 33.4474227,16.6220374 33.4474227,17.1010395 L33.4474227,17.3884407 L35.5587629,17.3884407 L35.5587629,17.1010395 C35.5587629,15.2914761 33.8696907,13.9076923 31.7161237,13.9076923 L30.9560412,13.9076923 C28.8024742,13.9076923 27.1134021,15.2914761 27.1134021,17.1010395 C27.2866639,18.7611809 28.6274969,20.0502287 30.2804124,20.1453638 L32.1067216,20.4221206 C32.9512577,20.5498545 33.4474227,20.9330561 33.4474227,21.4120582 C33.4474227,21.8910603 32.7084536,22.4232848 31.7161237,22.4232848 L30.9560412,22.4232848 C29.9637113,22.4232848 29.2247423,21.8910603 29.2247423,21.4120582 L29.2247423,21.124657 L27.1134021,21.124657 L27.1134021,21.4120582 C27.1134021,23.1683992 28.844701,24.552183 30.9560412,24.552183 L31.7161237,24.552183 C33.8696907,24.552183 35.5587629,23.1683992 35.590433,21.4652807 C35.4415835,19.7842495 34.0944165,18.4665946 32.4234227,18.3677339 Z" id="Path"></path>
                        <path d="M39.7075464,20.3476091 C39.3236784,23.2429106 37.4948619,25.7377131 34.8625485,26.9571726 C30.6242969,28.9206819 25.6098639,27.0479168 23.6625485,22.77442 C21.715233,18.5009231 23.5725526,13.44479 27.8108041,11.4812807 C32.0490557,9.51777131 37.0634887,11.3905364 39.0108041,15.6640333 L40.921567,14.769896 C39.1962062,10.9998836 35.4542515,8.58544699 31.3363464,8.58544699 C25.5060124,8.58531393 20.7795134,13.3509854 20.7795134,19.2298046 C20.7793814,25.1086237 25.5057485,29.8742952 31.3360825,29.8744283 C36.6347546,29.8837422 41.1195052,25.9310437 41.8188866,20.6350104 L39.7075464,20.3476091 Z" id="Path"></path>
                        <rect id="Rectangle" x="30.2804124" y="6.84390852" width="2.11134021" height="2.12889813"></rect>
                    </g>
                </g>
            </g>
        </g>
    </g>
</svg>