<?xml version="1.0" encoding="UTF-8"?>
<svg width="82px" height="82px" viewBox="0 0 82 82" version="1.1" xmlns="http://www.w3.org/2000/svg" xmlns:xlink="http://www.w3.org/1999/xlink">
    <!-- Generator: Sketch 53.2 (72643) - https://sketchapp.com -->
    <title>Oval 2</title>
    <desc>Created with Sketch.</desc>
    <g id="Home" stroke="none" stroke-width="1" fill="none" fill-rule="evenodd">
        <g id="Landings_Breeders_test" transform="translate(-534.000000, -2755.000000)">
            <g id="Group-3" transform="translate(0.000000, 1962.000000)">
                <g id="Oval-2" transform="translate(535.000000, 794.000000)">
                    <circle id="Oval" stroke="#645FC9" stroke-width="2" cx="40" cy="40" r="40"></circle>
                    <g id="settings-(1)" transform="translate(12.000000, 13.000000)" fill="#645FC9" fill-rule="nonzero">
                        <path d="M28.5303462,54.6372181 L31.3246436,53.4967078 C32.8187373,52.88693 33.5258656,51.1818107 32.9099796,49.7138272 L32.191446,47.9974156 C33.5942974,46.9698272 34.814664,45.7502716 35.8639511,44.3613333 L37.597556,45.0727407 C38.3160896,45.3663374 39.1144603,45.3663374 39.8329939,45.0727407 C40.5515275,44.779144 41.1217923,44.214535 41.4183299,43.5031276 L42.5816701,40.7365432 C43.197556,39.2572675 42.4904277,37.5634403 40.996334,36.9536626 L38.4301426,35.9034897 C37.8484725,35.6663539 37.1983707,35.9373663 36.9588595,36.5132675 C36.7193483,37.0891687 36.9930754,37.732823 37.5747454,37.9699588 L40.1409369,39.0201317 C40.4830957,39.1556379 40.6427699,39.5508642 40.5059063,39.8896296 L39.3425662,42.656214 C39.2741344,42.8143045 39.1486762,42.9498107 38.9775967,43.0175638 C38.8179226,43.0853169 38.6354379,43.0853169 38.4643585,43.0175638 L35.898167,41.9673909 C35.396334,41.7641317 34.8260692,41.9335144 34.5295316,42.3739095 C33.3775967,44.090321 31.9177189,45.5357202 30.1841141,46.6762305 C29.7393075,46.9698272 29.5568228,47.5457284 29.7621181,48.0312922 L30.8228106,50.5720329 C30.9596741,50.9107984 30.8,51.2947325 30.4578411,51.4415309 L27.6635438,52.5820412 C27.5038697,52.6497942 27.3213849,52.6497942 27.1503055,52.5820412 C26.9906314,52.5142881 26.8537678,52.3900741 26.785336,52.2206914 L25.7246436,49.6799506 C25.5193483,49.1830947 24.9947047,48.9007901 24.4586558,49.0137119 C22.4285132,49.4202305 20.3527495,49.4089383 18.3226069,49.0137119 C17.7979633,48.9120823 17.2619145,49.1943868 17.0566191,49.6799506 L15.9959267,52.2206914 C15.8590631,52.5594568 15.4598778,52.7175473 15.1177189,52.5820412 L12.3234216,51.4302387 C12.1637475,51.3624856 12.0268839,51.2382716 11.9584521,51.0688889 C11.8900204,50.9107984 11.8900204,50.7301235 11.9584521,50.5607407 L13.0191446,48.02 C13.2244399,47.523144 13.0533605,46.958535 12.608554,46.6649383 C10.8749491,45.524428 9.41507128,44.0790288 8.26313646,42.3626173 C7.96659878,41.9222222 7.38492872,41.7415473 6.89450102,41.9448066 L4.32830957,42.9949794 C4.15723014,43.0627325 3.98615071,43.0627325 3.81507128,42.9949794 C3.65539715,42.9272263 3.5185336,42.8030123 3.45010183,42.6336296 L2.29816701,39.8670453 C2.22973523,39.7089547 2.22973523,39.5282798 2.29816701,39.3588971 C2.36659878,39.2008066 2.49205703,39.0653004 2.66313646,38.9975473 L5.2293279,37.9473745 C5.7311609,37.7441152 6.00488798,37.2246749 5.90224033,36.6939424 C5.49164969,34.6839342 5.50305499,32.6287572 5.90224033,30.618749 C6.00488798,30.0993086 5.7197556,29.5685761 5.2293279,29.3653169 L2.66313646,28.315144 C2.3209776,28.1796379 2.16130346,27.7844115 2.29816701,27.4456461 L3.46150713,24.6790617 C3.59837067,24.3402963 3.99755601,24.1822058 4.33971487,24.3177119 L6.90590631,25.3678848 C7.40773931,25.571144 7.97800407,25.4017613 8.27454175,24.9613663 C9.42647658,23.2449547 10.8863544,21.7995556 12.6199593,20.6590453 C13.0647658,20.3654486 13.2472505,19.7895473 13.0419552,19.3039835 L11.9812627,16.7632428 C11.912831,16.6051523 11.912831,16.4244774 11.9812627,16.2550947 C12.0496945,16.0970041 12.1751527,15.9614979 12.3462322,15.8937449 L15.1405295,14.7532346 C15.3002037,14.6854815 15.4826884,14.6854815 15.6537678,14.7532346 C15.813442,14.8209877 15.9503055,14.9452016 16.0187373,15.1145844 L17.0794297,17.6553251 C17.3189409,18.2312263 17.9804481,18.5022387 18.5507128,18.2651029 C19.1323829,18.0279671 19.40611,17.3730206 19.1665988,16.8084115 L18.1059063,14.2676708 C17.8093686,13.5562634 17.2391039,12.9916543 16.5205703,12.6980576 C16.1556008,12.5512593 15.7792261,12.472214 15.4028513,12.472214 C15.0264766,12.472214 14.6386965,12.5512593 14.2851324,12.6980576 L11.490835,13.8385679 C10.7723014,14.1321646 10.2020367,14.6967737 9.90549898,15.4081811 C9.6089613,16.1195885 9.6089613,16.9100412 9.90549898,17.6214486 L10.6240326,19.3378601 C9.22118126,20.3654486 8.00081466,21.5850041 6.95152749,22.9739424 L5.21792261,22.262535 C3.72382892,21.6527572 2.01303462,22.3528724 1.39714868,23.8321481 L0.222403259,26.5987325 C-0.393482688,28.0780082 0.313645621,29.7718354 1.80773931,30.3816132 L3.5413442,31.0930206 C3.2904277,32.7981399 3.2904277,34.5258436 3.5413442,36.230963 L1.80773931,36.9423704 C1.0892057,37.2359671 0.518940937,37.8005761 0.222403259,38.5119835 C-0.0741344196,39.2233909 -0.0741344196,40.0138436 0.222403259,40.725251 L1.37433809,43.4918354 C1.67087576,44.2032428 2.24114053,44.7678519 2.95967413,45.0614486 C3.67820774,45.3550453 4.47657841,45.3550453 5.19511202,45.0614486 L6.9287169,44.3500412 C7.96659878,45.7389794 9.19837067,46.9472428 10.601222,47.9861235 L9.88268839,49.702535 C9.58615071,50.4139424 9.58615071,51.2043951 9.88268839,51.9158025 C10.1792261,52.6272099 10.7494908,53.1918189 11.4680244,53.4854156 L14.2623218,54.6372181 C15.7564155,55.2469959 17.4672098,54.5468807 18.0830957,53.0676049 L18.8016293,51.3511934 C20.5238289,51.5996214 22.2688391,51.5996214 23.9910387,51.3511934 L24.7095723,53.0676049 C25.00611,53.7790123 25.5763747,54.3436214 26.2949084,54.6372181 C27.013442,54.9308148 27.8118126,54.9308148 28.5303462,54.6372181 Z" id="Path"></path>
                        <path d="M12.2207739,33.7353909 C12.2549898,38.726535 16.3723014,42.7578436 21.4020367,42.7578436 C21.4248473,42.7578436 21.4476578,42.7578436 21.4704684,42.7578436 C23.9226069,42.7352593 26.2264766,41.7754239 27.9486762,40.0477202 C29.6708758,38.3200165 30.60611,36.0277037 30.5947047,33.5998848 C30.5947047,32.990107 30.0814664,32.493251 29.4655804,32.493251 L29.4541752,32.493251 C28.8268839,32.493251 28.3250509,33.0013992 28.3364562,33.6224691 C28.3478615,35.4518025 27.6407332,37.1795062 26.3405295,38.4893992 C25.0403259,39.7992922 23.306721,40.5219918 21.4590631,40.533284 C21.4476578,40.533284 21.4248473,40.533284 21.413442,40.533284 C17.6154786,40.533284 14.5132383,37.4843951 14.4904277,33.7240988 C14.4676171,29.9412181 17.5470468,26.8471605 21.3678208,26.813284 C21.995112,26.813284 22.496945,26.3051358 22.4855397,25.6840658 C22.4855397,25.0742881 21.9723014,24.5774321 21.3564155,24.5774321 C21.3564155,24.5774321 21.3564155,24.5774321 21.3450102,24.5774321 C16.2696538,24.6113086 12.186558,28.7216626 12.2207739,33.7353909 Z" id="Path"></path>
                        <path d="M40.4602851,0.0282304527 L38.2590631,0.0282304527 C36.9132383,0.0282304527 35.8183299,1.11227984 35.8183299,2.4447572 L35.8183299,3.56268313 C34.7234216,3.85627984 33.6741344,4.28538272 32.693279,4.84999177 L31.8949084,4.05953909 C31.4386965,3.60785185 30.8228106,3.34813169 30.1727088,3.34813169 C29.5226069,3.34813169 28.906721,3.59655967 28.4505092,4.05953909 L26.899389,5.59527572 C26.4431772,6.04696296 26.1808554,6.65674074 26.1808554,7.30039506 C26.1808554,7.94404938 26.4317719,8.55382716 26.899389,9.0055144 L27.6977597,9.79596708 C27.1274949,10.7670947 26.6940937,11.8059753 26.397556,12.8900247 L25.2684318,12.8900247 C23.9226069,12.8900247 22.8276986,13.9740741 22.8276986,15.3065514 L22.8276986,17.4859424 C22.8276986,18.8184198 23.9226069,19.9024691 25.2684318,19.9024691 L26.397556,19.9024691 C26.6940937,20.9865185 27.1274949,22.0253992 27.6977597,22.9965267 L26.899389,23.7869794 C26.4431772,24.2386667 26.1808554,24.8484444 26.1808554,25.4920988 C26.1808554,26.1357531 26.4317719,26.7455309 26.899389,27.1972181 L28.4505092,28.7329547 C28.906721,29.184642 29.5226069,29.4443621 30.1727088,29.4443621 C30.8228106,29.4443621 31.4386965,29.1959342 31.8949084,28.7329547 L32.693279,27.9425021 C33.6741344,28.5071111 34.7234216,28.936214 35.8183299,29.2298107 L35.8183299,30.3477366 C35.8183299,31.680214 36.9132383,32.7642634 38.2590631,32.7642634 L40.4602851,32.7642634 C41.80611,32.7642634 42.9010183,31.680214 42.9010183,30.3477366 L42.9010183,29.2298107 C43.9959267,28.936214 45.0452138,28.5071111 46.0260692,27.9425021 L46.8244399,28.7329547 C47.2806517,29.184642 47.8965377,29.4443621 48.5466395,29.4443621 C49.1967413,29.4443621 49.8126273,29.1959342 50.2688391,28.7329547 L51.8199593,27.1972181 C52.7665988,26.2599671 52.7665988,24.7242305 51.8199593,23.7869794 L51.0215886,22.9965267 C51.5918534,22.0253992 52.0252546,20.9865185 52.3217923,19.9024691 L53.4509165,19.9024691 C54.7967413,19.9024691 55.8916497,18.8184198 55.8916497,17.4859424 L55.8916497,15.3065514 C55.8916497,13.9740741 54.7967413,12.8900247 53.4509165,12.8900247 L52.3217923,12.8900247 C52.0252546,11.8059753 51.5918534,10.7670947 51.0215886,9.79596708 L51.8199593,9.0055144 C52.7665988,8.06826337 52.7665988,6.53252675 51.8199593,5.59527572 L50.2688391,4.05953909 C49.8126273,3.60785185 49.1967413,3.34813169 48.5466395,3.34813169 C47.8965377,3.34813169 47.2806517,3.59655967 46.8244399,4.05953909 L46.0260692,4.84999177 C45.0452138,4.28538272 43.9959267,3.85627984 42.9010183,3.56268313 L42.9010183,2.4447572 C42.889613,1.11227984 41.7947047,0.0282304527 40.4602851,0.0282304527 Z M45.5584521,7.18747325 C45.7523422,7.31168724 45.9690428,7.37944033 46.1857434,7.37944033 C46.4822811,7.37944033 46.7674134,7.26651852 46.9841141,7.05196708 L48.409776,5.64044444 C48.4553971,5.59527572 48.5010183,5.58398354 48.5352342,5.58398354 C48.5694501,5.58398354 48.6150713,5.59527572 48.6606925,5.64044444 L50.2118126,7.17618107 C50.2802444,7.24393416 50.2802444,7.35685597 50.2118126,7.42460905 L48.7861507,8.83613169 C48.409776,9.20877366 48.3413442,9.80725926 48.6492872,10.2476543 C49.4704684,11.4559177 50.0293279,12.7996872 50.3144603,14.2225021 C50.4171079,14.7419424 50.8847251,15.1258765 51.4207739,15.1258765 L53.4395112,15.1258765 C53.5421589,15.1258765 53.6219959,15.2049218 53.6219959,15.3065514 L53.6219959,17.4859424 C53.6219959,17.587572 53.5421589,17.6666173 53.4395112,17.6666173 L51.4207739,17.6666173 C50.8847251,17.6666173 50.4171079,18.0392593 50.3144603,18.5699918 C50.0293279,19.9928066 49.4704684,21.3365761 48.6492872,22.5448395 C48.3527495,22.9852346 48.409776,23.5837202 48.7861507,23.9563621 L50.2118126,25.3678848 C50.2802444,25.4356379 50.2802444,25.5485597 50.2118126,25.6163128 L48.6606925,27.1520494 C48.6150713,27.1972181 48.5694501,27.2085103 48.5352342,27.2085103 C48.5010183,27.2085103 48.4553971,27.1972181 48.409776,27.1520494 L46.9841141,25.7179424 C46.6077393,25.3453004 46.0032587,25.2775473 45.5584521,25.5824362 C44.3380855,26.3954733 42.9808554,26.9487901 41.5437882,27.2310947 C41.0191446,27.3327243 40.6313646,27.7957037 40.6313646,28.3264362 L40.6313646,30.3251523 C40.6313646,30.4267819 40.5515275,30.5058272 40.4488798,30.5058272 L38.2476578,30.5058272 C38.1450102,30.5058272 38.0651731,30.4267819 38.0651731,30.3251523 L38.0651731,28.3264362 C38.0651731,27.7957037 37.6887984,27.3327243 37.1527495,27.2310947 C35.7156823,26.9487901 34.3584521,26.3954733 33.1380855,25.5824362 C32.693279,25.2888395 32.0887984,25.3453004 31.7124236,25.7179424 L30.2867617,27.129465 C30.2411405,27.1746337 30.1955193,27.1859259 30.1613035,27.1859259 C30.1270876,27.1859259 30.0814664,27.1746337 30.0358452,27.129465 L28.4847251,25.5937284 C28.4391039,25.5485597 28.4276986,25.5033909 28.4276986,25.4695144 C28.4276986,25.4356379 28.4391039,25.3904691 28.4847251,25.3453004 L29.910387,23.9337778 C30.2867617,23.5611358 30.3551935,22.9626502 30.0472505,22.5222551 C29.2260692,21.3139918 28.6672098,19.9702222 28.3820774,18.5474074 C28.2794297,18.0279671 27.8118126,17.6440329 27.2757637,17.6440329 L25.2570265,17.6440329 C25.1543788,17.6440329 25.0745418,17.5649877 25.0745418,17.463358 L25.0745418,15.2839671 C25.0745418,15.1823374 25.1543788,15.1032922 25.2570265,15.1032922 L27.2757637,15.1032922 C27.8118126,15.1032922 28.2794297,14.7306502 28.3820774,14.1999177 C28.6672098,12.7771029 29.2260692,11.4333333 30.0472505,10.22507 C30.3437882,9.7846749 30.2867617,9.1861893 29.910387,8.81354733 L28.4847251,7.40202469 C28.4391039,7.35685597 28.4276986,7.31168724 28.4276986,7.2778107 C28.4276986,7.24393416 28.4391039,7.19876543 28.4847251,7.15359671 L30.0358452,5.61786008 C30.0814664,5.57269136 30.1270876,5.56139918 30.1613035,5.56139918 C30.1955193,5.56139918 30.2411405,5.57269136 30.2867617,5.61786008 L31.7124236,7.02938272 C32.0887984,7.40202469 32.693279,7.46977778 33.1380855,7.16488889 C34.3584521,6.35185185 35.7156823,5.79853498 37.1527495,5.51623045 C37.6773931,5.41460082 38.0651731,4.9516214 38.0651731,4.42088889 L38.0651731,2.4447572 C38.0651731,2.34312757 38.1450102,2.2640823 38.2476578,2.2640823 L40.4488798,2.2640823 C40.5515275,2.2640823 40.6313646,2.34312757 40.6313646,2.4447572 L40.6313646,4.44347325 C40.6313646,4.97420576 41.0077393,5.43718519 41.5437882,5.53881481 C42.9808554,5.82111934 44.3380855,6.37443621 45.5584521,7.18747325 Z" id="Shape"></path>
                        <path d="M32.6590631,16.3793086 C32.6590631,20.0379753 35.6700611,23.0191111 39.3653768,23.0191111 C43.0606925,23.0191111 46.0716904,20.0379753 46.0716904,16.3793086 C46.0716904,12.720642 43.0606925,9.73950617 39.3653768,9.73950617 C35.6700611,9.73950617 32.6590631,12.720642 32.6590631,16.3793086 Z M43.8020367,16.3793086 C43.8020367,18.8071276 41.80611,20.7832593 39.3539715,20.7832593 C36.901833,20.7832593 34.9059063,18.8071276 34.9059063,16.3793086 C34.9059063,13.9514897 36.901833,11.975358 39.3539715,11.975358 C41.80611,11.975358 43.8020367,13.9627819 43.8020367,16.3793086 Z" id="Shape"></path>
                    </g>
                </g>
            </g>
        </g>
    </g>
</svg>