<svg width="20" height="20" viewBox="0 0 20 20" fill="none" xmlns="http://www.w3.org/2000/svg">
<g clip-path="url(#clip0)">
<path d="M3.46155 16.3847C3.46155 15.0001 5.53847 13.7693 7.84616 13.3078C7.84616 13.3078 8.53847 12.9232 8.38462 12.2308C7.69232 11.3847 7.53847 10.4616 7.53847 10.4616C7.38462 10.3847 7.23078 10.3078 7.15386 10.1539C6.92309 9.84623 6.69232 9.077 6.69232 8.53854C6.76924 8.00007 6.92309 8.15392 6.92309 8.077C6.38462 7.00007 6.61539 5.53854 7.15386 4.53854C8.3077 2.46161 10.8462 3.077 11.2308 3.84623C13.6154 3.38469 13.5385 7.15392 13.2308 8.15392C13.2308 8.15392 13.4615 8.23084 13.3846 9.077C13.3077 10.0001 12.5385 10.6155 12.5385 10.6155C12.5385 10.8462 12.2308 11.6155 11.6923 12.3078C11.3077 13.1539 12.1539 13.3847 12.1539 13.3847C14.3846 13.8462 16.4615 15.077 16.4615 16.4616C16.4615 16.5385 14.3846 19.3078 9.92309 19.3078C5.46155 19.3078 3.46155 16.5385 3.46155 16.3847Z" fill="#645FC9"/>
<path d="M10 19.2308C15.098 19.2308 19.2308 15.0981 19.2308 10.0001C19.2308 4.90204 15.098 0.769287 10 0.769287C4.90198 0.769287 0.769226 4.90204 0.769226 10.0001C0.769226 15.0981 4.90198 19.2308 10 19.2308Z" stroke="#645FC9" stroke-width="2" stroke-miterlimit="10"/>
</g>
<defs>
<clipPath id="clip0">
<path d="M0 0H20V20H0V0Z" fill="white"/>
</clipPath>
</defs>
</svg>
