<svg xmlns="http://www.w3.org/2000/svg" width="52" height="43" viewBox="0 0 52 43">
    <g fill="none" fill-rule="nonzero" transform="translate(1 1)">
        <path stroke="#645FC9" stroke-width="2" d="M0 12.552v22.272c0 3.4 2.735 6.16 6.102 6.16h37.796c3.367 0 6.102-2.76 6.102-6.16V12.552c0-3.234-2.602-5.861-5.806-5.861H36.07l-.193-.855c-.786-3.43-3.776-5.82-7.266-5.82h-7.234c-3.48 0-6.47 2.39-7.266 5.82l-.194.855H5.806C2.602 6.69 0 9.328 0 12.552z"/>
        <ellipse cx="8.459" cy="14.602" fill="#645FC9" rx="1.673" ry="1.689"/>
        <path stroke="#645FC9" stroke-width="2" d="M25 34.505c5.786 0 10.5-4.76 10.5-10.6 0-5.841-4.714-10.6-10.5-10.6s-10.5 4.748-10.5 10.6c0 5.85 4.714 10.6 10.5 10.6z"/>
    </g>
</svg>
