<?xml version="1.0" encoding="UTF-8" standalone="no"?>
<svg
   xmlns:dc="http://purl.org/dc/elements/1.1/"
   xmlns:cc="http://creativecommons.org/ns#"
   xmlns:rdf="http://www.w3.org/1999/02/22-rdf-syntax-ns#"
   xmlns:svg="http://www.w3.org/2000/svg"
   xmlns="http://www.w3.org/2000/svg"
   xmlns:sodipodi="http://sodipodi.sourceforge.net/DTD/sodipodi-0.dtd"
   xmlns:inkscape="http://www.inkscape.org/namespaces/inkscape"
   version="1.1"
   x="0px"
   y="0px"
   viewBox="0 0 100 100"
   enable-background="new 0 0 100 100"
   xml:space="preserve"
   id="svg5021"
   inkscape:version="0.91 r13725"
   sodipodi:docname="zoom-out.svg"
   width="100"
   height="100"><metadata
     id="metadata5035"><rdf:RDF><cc:Work
         rdf:about=""><dc:format>image/svg+xml</dc:format><dc:type
           rdf:resource="http://purl.org/dc/dcmitype/StillImage" /><dc:title></dc:title></cc:Work></rdf:RDF></metadata><defs
     id="defs5033" /><sodipodi:namedview
     pagecolor="#ffffff"
     bordercolor="#666666"
     borderopacity="1"
     objecttolerance="10"
     gridtolerance="10"
     guidetolerance="10"
     inkscape:pageopacity="0"
     inkscape:pageshadow="2"
     inkscape:window-width="1920"
     inkscape:window-height="1056"
     id="namedview5031"
     showgrid="false"
     inkscape:zoom="4.8968028"
     inkscape:cx="53.962995"
     inkscape:cy="52.406636"
     inkscape:window-x="0"
     inkscape:window-y="24"
     inkscape:window-maximized="1"
     inkscape:current-layer="svg5021" /><path
     d="m 66.539035,54.748382 c 3.395431,-5.476502 5.366971,-11.829243 5.366971,-18.729635 0,-19.605875 -15.991384,-35.59725913 -35.597259,-35.59725913 -19.605875,0 -35.59725945,15.99138413 -35.59725945,35.59725913 0,19.605875 15.99138445,35.597259 35.59725945,35.597259 6.790862,0 13.143603,-1.971541 18.620105,-5.257441 l 30.339817,30.230287 c 1.642951,1.642951 3.724021,2.409661 5.805092,2.409661 2.08107,0 4.162141,-0.76671 5.805091,-2.409661 1.533421,-1.53342 2.409661,-3.614491 2.409661,-5.805091 0,-2.190601 -0.87624,-4.271671 -2.409661,-5.805092 L 66.539035,54.748382 Z M 36.308747,66.139505 c -16.648564,0 -30.1207581,-13.472194 -30.1207581,-30.120758 0,-16.648564 13.4721941,-30.1207577 30.1207581,-30.1207577 16.648564,0 30.120758,13.4721937 30.120758,30.1207577 0,16.648564 -13.472194,30.120758 -30.120758,30.120758 z m 56.736554,26.615796 c -1.0953,1.095301 -2.84778,1.095301 -3.833551,0 L 59.419583,63.072664 c 1.42389,-1.20483 2.738251,-2.519191 3.833551,-3.833551 L 93.045301,88.81222 c 0.54765,0.54765 0.766711,1.204831 0.766711,1.971541 0,0.76671 -0.328591,1.42389 -0.766711,1.97154 z"
     id="path5023"
     inkscape:connector-curvature="0"
     style="fill:#8d5fd3" /><path
     d="m 55.476502,28.351645 -38.33551,0 c -1.20483,0 -2.1906,0.98577 -2.1906,2.190601 l 0,10.953002 c 0,1.204831 0.98577,2.190601 2.1906,2.190601 l 38.33551,0 c 1.20483,0 2.1906,-0.98577 2.1906,-2.190601 l 0,-10.953002 c 0,-1.204831 -0.98577,-2.190601 -2.1906,-2.190601 z m -2.190601,10.953003 -33.954308,0 0,-6.571802 33.954308,0 0,6.571802 z"
     id="path5025"
     inkscape:connector-curvature="0"
     style="fill:#8d5fd3" /></svg>