<?xml version="1.0" encoding="utf-8"?>
<!-- Generator: Adobe Illustrator 22.0.1, SVG Export Plug-In . SVG Version: 6.00 Build 0)  -->
<svg version="1.1"
	 id="Слой_1" xmlns:cc="http://creativecommons.org/ns#" xmlns:dc="http://purl.org/dc/elements/1.1/" xmlns:inkscape="http://www.inkscape.org/namespaces/inkscape" xmlns:rdf="http://www.w3.org/1999/02/22-rdf-syntax-ns#" xmlns:sodipodi="http://sodipodi.sourceforge.net/DTD/sodipodi-0.dtd" xmlns:svg="http://www.w3.org/2000/svg"
	 xmlns="http://www.w3.org/2000/svg" xmlns:xlink="http://www.w3.org/1999/xlink" x="0px" y="0px" viewBox="0 0 100 99"
	 style="enable-background:new 0 0 100 99;" xml:space="preserve">
<style type="text/css">
	.st0{fill:#645FC9;}
</style>
<g transform="translate(0,-952.36218)">
	<path class="st0" d="M39,953.4c-20.6,0-37.3,16.7-37.3,37.3c0,20.6,16.7,37.3,37.3,37.3c9.5,0,18.2-3.6,24.8-9.4l30.7,30.7
		c0.8,0.9,2.2,0.9,3.1,0c0.9-0.8,0.9-2.2,0-3.1c0,0,0,0-0.1-0.1l-30.7-30.7c5.9-6.6,9.4-15.3,9.4-24.8
		C76.3,970.1,59.6,953.4,39,953.4z M39,957.8c18.2,0,32.9,14.7,32.9,32.9c0,18.2-14.7,32.9-32.9,32.9s-32.9-14.7-32.9-32.9
		C6.1,972.5,20.8,957.8,39,957.8z M38.8,974.2c-1.1,0.1-2,1.1-2,2.2v12.1H24.7c-0.1,0-0.1,0-0.2,0c-1.2,0.1-2.2,1.1-2.1,2.3
		c0.1,1.2,1.1,2.2,2.3,2.1h12.1v12.1c0,1.2,1,2.2,2.2,2.2s2.2-1,2.2-2.2c0,0,0,0,0-0.1v-12.1h12.1c1.2,0,2.2-1,2.2-2.2
		c0-1.2-1-2.2-2.2-2.2c0,0,0,0-0.1,0H41.2v-12.1c0-1.2-0.9-2.2-2.1-2.2C39,974.2,38.9,974.2,38.8,974.2z"/>
</g>
</svg>
