<?xml version="1.0" encoding="utf-8"?>
<!-- Generator: Adobe Illustrator 22.0.1, SVG Export Plug-In . SVG Version: 6.00 Build 0)  -->
<svg version="1.1"
	 id="Слой_1" xmlns:cc="http://creativecommons.org/ns#" xmlns:dc="http://purl.org/dc/elements/1.1/" xmlns:inkscape="http://www.inkscape.org/namespaces/inkscape" xmlns:rdf="http://www.w3.org/1999/02/22-rdf-syntax-ns#" xmlns:sodipodi="http://sodipodi.sourceforge.net/DTD/sodipodi-0.dtd" xmlns:svg="http://www.w3.org/2000/svg"
	 xmlns="http://www.w3.org/2000/svg" xmlns:xlink="http://www.w3.org/1999/xlink" x="0px" y="0px" viewBox="0 0 100 99.2"
	 style="enable-background:new 0 0 100 99.2;" xml:space="preserve">
<style type="text/css">
	.st0{fill:#645FC9;}
</style>
<g transform="translate(0,-952.36218)">
	<path class="st0" d="M39.5,953.4C18.8,953.4,2,970.2,2,990.8c0,20.7,16.8,37.5,37.5,37.5c9.6,0,18.3-3.6,24.9-9.5l30.9,30.9
		c0.8,0.9,2.2,0.9,3.1,0c0.9-0.8,0.9-2.2,0-3.1c0,0,0,0-0.1-0.1l-30.9-30.9c5.9-6.6,9.5-15.3,9.5-24.9
		C76.9,970.2,60.1,953.4,39.5,953.4z M39.5,957.8c18.3,0,33.1,14.8,33.1,33.1s-14.8,33.1-33.1,33.1s-33.1-14.8-33.1-33.1
		S21.2,957.8,39.5,957.8z M24.9,988.6c-1.2,0.1-2.2,1.1-2.1,2.3c0.1,1.2,1.1,2.2,2.3,2.1h28.6c1.2,0,2.2-1,2.2-2.2
		c0-1.2-1-2.2-2.2-2.2c0,0,0,0-0.1,0H25.1C25.1,988.6,25,988.6,24.9,988.6z"/>
</g>
</svg>
