<?xml version="1.0" encoding="utf-8"?>
<!-- Generator: Adobe Illustrator 22.0.1, SVG Export Plug-In . SVG Version: 6.00 Build 0)  -->
<svg version="1.1" id="Слой_1" xmlns="http://www.w3.org/2000/svg" xmlns:xlink="http://www.w3.org/1999/xlink" x="0px" y="0px"
	 viewBox="0 0 108 108" style="enable-background:new 0 0 108 108;" xml:space="preserve">
<style type="text/css">
	.st0{filter:url(#filter-1);}
	.st1{fill:#395A9A;}
	.st2{fill:#FFFFFF;}
</style>
<filter  filterUnits="objectBoundingBox" height="124.0%" id="filter-1" width="124.0%" x="-12.0%" y="-12.0%">
	<feOffset  dx="0" dy="2" in="SourceAlpha" result="shadowOffsetOuter1"></feOffset>
	<feGaussianBlur  in="shadowOffsetOuter1" result="shadowBlurOuter1" stdDeviation="2"></feGaussianBlur>
	
		<feColorMatrix  in="shadowBlurOuter1" result="shadowMatrixOuter1" type="matrix" values="0 0 0 0 0   0 0 0 0 0   0 0 0 0 0  0 0 0 0.5 0">
		</feColorMatrix>
	<feMerge>
		<feMergeNode  in="shadowMatrixOuter1"></feMergeNode>
		<feMergeNode  in="SourceGraphic"></feMergeNode>
	</feMerge>
</filter>
<title>Group 3</title>
<desc>Created with Sketch.</desc>
<g id="Page-1">
	<g id="Onboarding" transform="translate(-694.000000, -1136.000000)">
		<g id="Group-3" transform="translate(698.000000, 1138.000000)" class="st0">
			<path id="Rectangle_1_" class="st1" d="M0.3-2h99.4c2.4,0,4.3,1.9,4.3,4.3v99.4c0,2.4-1.9,4.3-4.3,4.3H0.3
				c-2.4,0-4.3-1.9-4.3-4.3V2.3C-4-0.1-2.1-2,0.3-2z"/>
			<g id="facebook-logo-_x28_1_x29__1_" transform="translate(33.000000, 18.000000)">
				<path id="Path_1_" class="st2" d="M35-0.5l-9.1,0c-10.2,0-16.8,7-16.8,17.8v8.2H0.1c-0.8,0-1.4,0.7-1.4,1.5v11.9
					c0,0.8,0.6,1.5,1.4,1.5h9.1v30c0,0.8,0.6,1.5,1.4,1.5h11.9c0.8,0,1.4-0.7,1.4-1.5v-30h10.7c0.8,0,1.4-0.7,1.4-1.5l0-11.9
					c0-0.4-0.2-0.8-0.4-1c-0.3-0.3-0.6-0.4-1-0.4H23.9v-7c0-3.3,0.8-5,5-5l6.1,0c0.8,0,1.4-0.7,1.4-1.5v-11
					C36.4,0.1,35.8-0.5,35-0.5z"/>
			</g>
		</g>
	</g>
</g>
</svg>
