<?xml version="1.0" encoding="UTF-8"?>
<svg width="100px" height="100px" viewBox="0 0 100 100" version="1.1" xmlns="http://www.w3.org/2000/svg" xmlns:xlink="http://www.w3.org/1999/xlink">
    <!-- Generator: Sketch 53.2 (72643) - https://sketchapp.com -->
    <title>Group 6</title>
    <desc>Created with Sketch.</desc>
    <g id="Page-1" stroke="none" stroke-width="1" fill="none" fill-rule="evenodd">
        <g id="Onboarding" transform="translate(-1092.000000, -1138.000000)">
            <g id="Group-6" transform="translate(1092.000000, 1138.000000)">
                <rect id="Rectangle" fill="#F99400" x="0" y="0" width="100" height="100" rx="4"></rect>
                <g id="odnoklassniki-(1)" transform="translate(30.000000, 18.000000)" fill="#FFFFFF" fill-rule="nonzero">
                    <path d="M20.6911125,35.4705882 C30.4859947,35.4705882 38.4264706,27.5302402 38.4264706,17.7352302 C38.4264706,7.94022009 30.4861226,0 20.6911125,0 C10.8961024,0 2.95588235,7.94034799 2.95588235,17.7353581 C2.96790485,27.5252522 10.9012184,35.4585657 20.6911125,35.4705882 Z M20.6911125,8.1855302 C25.9652798,8.1855302 30.2409404,12.4610628 30.2409404,17.7353581 C30.2409404,23.0096533 25.9654077,27.2851859 20.6911125,27.2851859 C15.4168173,27.2851859 11.1412847,23.0096533 11.1412847,17.7353581 C11.1412847,12.4610628 15.4169452,8.1855302 20.6911125,8.1855302 Z" id="Shape"></path>
                    <path d="M38.2561351,44.6367662 C40.2049435,43.3266888 41.3791426,41.105523 41.3818583,38.7238641 C41.4090148,36.7472655 40.3161562,34.9322157 38.5761949,34.0638902 C36.7885156,33.1525378 34.6485766,33.3577735 33.0586231,34.5932797 C25.689748,40.0763085 15.6952189,40.0763085 8.32634385,34.5932797 C6.73393334,33.3642408 4.59774452,33.159269 2.80877205,34.0638902 C1.06958666,34.9320837 -0.0237892426,36.7451537 0.000393051104,38.7209605 C0.00453119762,41.1022234 1.17834232,43.3227293 3.12611616,44.6338625 C5.62503939,46.3299943 8.346388,47.6570977 11.2093388,48.5758412 C11.6949244,48.7297351 12.1960281,48.8724102 12.7129085,49.0038667 L4.37596573,57.3241646 C2.18895529,59.489897 2.13606461,63.0549281 4.25802855,65.2871806 C6.3799925,67.5193012 9.87297611,67.5732828 12.0601159,65.4075504 C12.1056355,65.3624118 12.1503792,65.3166132 12.194347,65.2698907 L20.6913843,56.2934982 L29.2049742,65.2867847 C31.3251277,67.520621 34.8182406,67.5773743 37.0069322,65.4134897 C39.1956237,63.2496052 39.2512301,59.684442 37.1310766,57.4506057 C37.0867208,57.4038832 37.0415891,57.3579526 36.9956816,57.3128139 L28.6724464,49.000963 C29.1891975,48.865811 29.6922409,48.722212 30.1814474,48.5701659 C33.0412946,47.6549859 35.7600569,46.3306542 38.2561351,44.6367662 Z" id="Path"></path>
                </g>
            </g>
        </g>
    </g>
</svg>