<?xml version="1.0" encoding="UTF-8"?>
<svg width="100px" height="100px" viewBox="0 0 100 100" version="1.1" xmlns="http://www.w3.org/2000/svg" xmlns:xlink="http://www.w3.org/1999/xlink">
    <!-- Generator: Sketch 53.2 (72643) - https://sketchapp.com -->
    <title>Group 7</title>
    <desc>Created with Sketch.</desc>
    <g id="Page-1" stroke="none" stroke-width="1" fill="none" fill-rule="evenodd">
        <g id="Onboarding" transform="translate(-1221.000000, -1138.000000)">
            <g id="Group-7" transform="translate(1221.000000, 1138.000000)">
                <rect id="Rectangle" fill="#009FDA" x="0" y="0" width="100" height="100" rx="4"></rect>
                <g id="telegram" transform="translate(20.000000, 26.000000)" fill="#FFFFFF" fill-rule="nonzero">
                    <path d="M1.04211538,24.9338111 L14.6369132,30.0701046 L19.8989334,47.2004399 C20.2356272,48.297576 21.5609656,48.7031043 22.4406567,47.9750646 L30.0186267,41.7215277 C30.8129644,41.0663516 31.9443892,41.0337023 32.7745203,41.643687 L46.4424782,51.6887243 C47.3835294,52.3811285 48.7167345,51.8591377 48.9527348,50.7080505 L58.9652446,1.95486999 C59.2228782,0.697473485 58.0023633,-0.351485065 56.8196084,0.111577677 L1.02618536,21.8992172 C-0.350679779,22.4367363 -0.338683097,24.4100286 1.04211538,24.9338111 Z M19.2469921,27.4160958 L45.3019054,11.0740419 C45.7701679,10.781206 46.2519305,11.425995 45.8498188,11.8058372 L24.3469649,32.1609812 C23.5911491,32.8774572 23.1036006,33.8362937 22.9655133,34.8770299 L22.2330335,40.4049717 C22.1360252,41.1430519 21.1179207,41.21631 20.9179255,40.5019945 L18.1008289,30.4216416 C17.7781752,29.271902 18.2483663,28.0437979 19.2469921,27.4160958 Z" id="XMLID_497_"></path>
                </g>
            </g>
        </g>
    </g>
</svg>