<?xml version="1.0" encoding="UTF-8"?>
<svg width="100px" height="100px" viewBox="0 0 100 100" version="1.1" xmlns="http://www.w3.org/2000/svg" xmlns:xlink="http://www.w3.org/1999/xlink">
    <!-- Generator: Sketch 53.2 (72643) - https://sketchapp.com -->
    <title>Group 4</title>
    <desc>Created with Sketch.</desc>
    <g id="Page-1" stroke="none" stroke-width="1" fill="none" fill-rule="evenodd">
        <g id="Onboarding" transform="translate(-827.000000, -1138.000000)">
            <g id="Group-4" transform="translate(827.000000, 1138.000000)">
                <rect id="Rectangle" fill="#40AEEF" x="0" y="0" width="100" height="100" rx="4"></rect>
                <g id="twitter" transform="translate(19.000000, 26.000000)" fill="#FFFFFF" fill-rule="nonzero">
                    <path d="M62,5.91923077 C59.694375,6.92307692 57.237625,7.58846154 54.67625,7.91153846 C57.31125,6.35 59.322375,3.89615385 60.267875,0.938461538 C57.811125,2.39230769 55.098625,3.41923077 52.207875,3.99230769 C49.875125,1.52692308 46.550375,0 42.923375,0 C35.886375,0 30.221125,5.66923077 30.221125,12.6192308 C30.221125,13.6192308 30.306375,14.5807692 30.515625,15.4961538 C19.9485,14.9846154 10.598125,9.95769231 4.31675,2.3 C3.220125,4.18846154 2.576875,6.35 2.576875,8.67692308 C2.576875,13.0461538 4.84375,16.9192308 8.22275,19.1615385 C6.180625,19.1230769 4.17725,18.5346154 2.48,17.6076923 C2.48,17.6461538 2.48,17.6961538 2.48,17.7461538 C2.48,23.8769231 6.885875,28.9692308 12.6635,30.1423077 C11.628875,30.4230769 10.50125,30.5576923 9.331,30.5576923 C8.51725,30.5576923 7.69575,30.5115385 6.924625,30.3423077 C8.5715,35.3384615 13.24475,39.0115385 18.8015,39.1307692 C14.477,42.4884615 8.986125,44.5115385 3.041875,44.5115385 C1.9995,44.5115385 0.99975,44.4653846 0,44.3384615 C5.630375,47.9423077 12.303125,50 19.499,50 C42.8885,50 55.676,30.7692308 55.676,14.1 C55.676,13.5423077 55.656625,13.0038462 55.6295,12.4692308 C58.152125,10.6923077 60.27175,8.47307692 62,5.91923077 Z" id="Path"></path>
                </g>
            </g>
        </g>
    </g>
</svg>