<?xml version="1.0" encoding="UTF-8"?>
<svg width="100px" height="100px" viewBox="0 0 100 100" version="1.1" xmlns="http://www.w3.org/2000/svg" xmlns:xlink="http://www.w3.org/1999/xlink">
    <!-- Generator: Sketch 53.2 (72643) - https://sketchapp.com -->
    <title>Group 5</title>
    <desc>Created with Sketch.</desc>
    <g id="Page-1" stroke="none" stroke-width="1" fill="none" fill-rule="evenodd">
        <g id="Onboarding" transform="translate(-957.000000, -1138.000000)">
            <g id="Group-5" transform="translate(957.000000, 1138.000000)">
                <rect id="Rectangle" fill="#4A7399" x="0" y="0" width="100" height="100" rx="4"></rect>
                <g id="vk-(1)" transform="translate(16.000000, 32.000000)" fill="#FFFFFF" fill-rule="nonzero">
                    <path d="M55.5979661,22.3637143 C54.5147619,20.9987143 54.8246476,20.3914286 55.5979661,19.1712857 C55.6119249,19.1573571 64.5539427,6.82778571 65.4752246,2.64642857 L65.4808082,2.64364286 C65.9386573,1.11985714 65.4808082,2.47421131e-15 63.2669399,2.47421131e-15 L55.941353,2.47421131e-15 C54.0764551,2.47421131e-15 53.216592,0.961071429 52.755951,2.03635714 C52.755951,2.03635714 49.0261553,10.9450714 43.7497226,16.7198571 C42.046747,18.3885 41.2594698,18.9233571 40.3298126,18.9233571 C39.8719634,18.9233571 39.1600638,18.3885 39.1600638,16.8647143 L39.1600638,2.64364286 C39.1600638,0.816214286 38.638004,0 37.0941589,0 L25.5753436,0 C24.4055948,0 23.7104457,0.852428571 23.7104457,1.64635714 C23.7104457,3.37907143 26.348662,3.77742857 26.6222548,8.65242857 L26.6222548,19.2297857 C26.6222548,21.5475 26.2006986,21.9737143 25.2654578,21.9737143 C22.775205,21.9737143 16.7310374,13.0287857 13.1492051,2.79128571 C12.4261384,0.805071429 11.7198223,0.00278571429 9.84096563,0.00278571429 L2.51258697,0.00278571429 C0.421556258,0.00278571429 0,0.963857143 0,2.03914286 C0,3.939 2.49025286,13.3853571 11.5802342,25.8653571 C17.6383605,34.3840714 26.1699892,39 33.9310911,39 C38.5961276,39 39.1656473,37.9748571 39.1656473,36.2115 C39.1656473,28.0716429 38.744091,27.3027857 41.0807969,27.3027857 C42.1640011,27.3027857 44.028899,27.8376429 48.3840497,31.9465714 C53.3617637,36.8187857 54.1797503,39 56.9659301,39 L64.291517,39 C66.3797559,39 67.4378342,37.9748571 66.8292298,35.9524286 C65.4361399,31.6986429 56.0223141,22.9487143 55.5979661,22.3637143 L55.5979661,22.3637143 Z" id="Path"></path>
                </g>
            </g>
        </g>
    </g>
</svg>