<?xml version="1.0" encoding="UTF-8"?>
<svg width="100px" height="100px" viewBox="0 0 100 100" version="1.1" xmlns="http://www.w3.org/2000/svg" xmlns:xlink="http://www.w3.org/1999/xlink">
    <!-- Generator: Sketch 53.2 (72643) - https://sketchapp.com -->
    <title>Group 8</title>
    <desc>Created with Sketch.</desc>
    <g id="Page-1" stroke="none" stroke-width="1" fill="none" fill-rule="evenodd">
        <g id="Onboarding" transform="translate(-1347.000000, -1138.000000)">
            <g id="Group-8" transform="translate(1347.000000, 1138.000000)">
                <rect id="Rectangle" fill="#00BD00" x="0" y="0" width="100" height="100" rx="4"></rect>
                <g id="whatsapp" transform="translate(21.000000, 20.000000)" fill="#FFFFFF" fill-rule="nonzero">
                    <path d="M28.0577377,0.034698669 C12.3489351,0.789191622 -0.0475176573,13.9857871 0.000136933775,29.8496543 C0.0146466899,34.6813939 1.17101735,39.2419293 3.21091836,43.2715358 L0.0789448248,58.6072006 C-0.0904779156,59.436741 0.651226676,60.1631091 1.46818285,59.9679569 L16.3652925,56.4077202 C20.1925963,58.3308306 24.4914672,59.4416198 29.0411293,59.511645 C45.0970279,59.7590292 58.4848385,46.8989278 58.9852828,30.7088981 C59.521717,13.3542687 45.3223559,-0.794698301 28.0577377,0.034698669 Z M45.8331847,46.2334013 C41.4704424,50.6342276 35.6698118,53.0578461 29.5000359,53.0578461 C25.8873911,53.0578461 22.4286636,52.2402156 19.2195892,50.6277703 L17.1449785,49.5852844 L8.01151384,51.7681194 L9.93405652,42.3538898 L8.91197223,40.3349252 C7.24605308,37.0438838 6.40135767,33.485082 6.40135767,29.757531 C6.40135767,23.5337533 8.80400258,17.6826304 13.1667448,13.2816606 C17.4905099,8.92015181 23.3857384,6.4570724 29.5004626,6.4570724 C35.6702385,6.4572159 41.4705847,8.88083438 45.8333269,13.2815171 C50.1960692,17.6823434 52.5987141,23.5334663 52.5988563,29.7571005 C52.5987141,35.9253459 50.1569497,41.872036 45.8331847,46.2334013 Z" id="Shape"></path>
                    <path d="M44.4437109,35.9238901 L38.6780248,34.2587436 C37.9200127,34.0398809 37.1037251,34.256145 36.5513997,34.822214 L35.1414483,36.2670541 C34.5469234,36.8762893 33.6448015,37.072053 32.8579387,36.7518436 C30.130473,35.6416497 24.3930635,30.5107924 22.9278509,27.9443532 C22.5051382,27.2040315 22.5750401,26.2784849 23.0940652,25.6029846 L24.3250275,24.0012158 C24.8073075,23.3736459 24.9090744,22.5308224 24.590138,21.8053706 L22.1643844,16.2871726 C21.5833519,14.9654788 19.9041275,14.5807367 18.8070841,15.5139348 C17.1979052,16.8828372 15.2885931,18.9630432 15.0564959,21.2675979 C14.6472755,25.3307055 16.3797516,30.4526119 22.9311522,36.6027109 C30.4997904,43.7078077 36.5607295,44.6464918 40.5069569,43.6849975 C42.7452528,43.1397176 44.5339949,40.9536894 45.6629033,39.1638085 C46.4325418,37.9434614 45.8248116,36.3227804 44.4437109,35.9238901 Z" id="Path"></path>
                </g>
            </g>
        </g>
    </g>
</svg>