<?xml version="1.0" encoding="UTF-8"?>
<svg width="42px" height="42px" viewBox="0 0 42 42" version="1.1" xmlns="http://www.w3.org/2000/svg" xmlns:xlink="http://www.w3.org/1999/xlink">
    <!-- Generator: Sketch 53.2 (72643) - https://sketchapp.com -->
    <title>Group 12</title>
    <desc>Created with Sketch.</desc>
    <g id="🔵-Home" stroke="none" stroke-width="1" fill="none" fill-rule="evenodd">
        <g id="Search_Articles_Detail" transform="translate(-1162.000000, -229.000000)">
            <g id="Group-12" transform="translate(1162.000000, 229.000000)">
                <path d="M13.0676195,26.5419438 C14.5885964,27.4655202 16.392807,28 18.3268498,28 C23.7602928,28 28.1648073,23.7824976 28.1648073,18.5808264 C28.1648073,18.4509515 28.1619489,18.3220368 28.1567336,18.1935063 C28.353262,18.0454344 29.5687397,17.1126875 29.8666667,16.5130542 C29.8666667,16.5130542 28.8796113,16.9057999 27.9135678,16.9983208 C27.9116622,16.9983208 27.9093053,16.9987529 27.9073997,16.9987529 C27.9073997,16.9987529 27.9093053,16.9978406 27.912615,16.995584 C28.001627,16.9386407 29.24609,16.1275586 29.414586,15.1611546 C29.414586,15.1611546 28.716431,15.5179386 27.7389037,15.8300705 C27.5770774,15.8815404 27.4076788,15.932146 27.2330146,15.9790546 C26.60291,15.3352014 25.7072737,14.9333333 24.7130974,14.9333333 C22.8061343,14.9333333 21.260886,16.4123712 21.260886,18.2367659 C21.260886,18.4942111 21.291827,18.7447905 21.3503493,18.9853833 C21.0838649,18.9749164 17.0257701,18.7570818 14.265044,15.5561569 C14.265044,15.5561569 12.6150875,17.7127529 15.2482882,19.9303734 C15.2482882,19.9303734 14.4478321,19.8998372 13.7572494,19.504787 C13.7572494,19.504787 13.5036028,22.1174577 16.4856302,22.7854614 C16.4856302,22.7854614 15.8988531,22.9982546 14.9627477,22.8465338 C14.9627477,22.8465338 15.4862386,24.9575656 18.1356369,25.1548507 C18.1356369,25.1548507 16.0406204,26.9668581 13.0666667,26.5417037 L13.0676195,26.5419438 Z" id="Shape" fill="#645FC9" fill-rule="nonzero"></path>
                <rect id="Rectangle-21-Copy-2" stroke-opacity="0.1" stroke="#0E0B4D" x="0.5" y="0.5" width="41" height="41" rx="20.5"></rect>
            </g>
        </g>
    </g>
</svg>