<?xml version="1.0" encoding="UTF-8"?>
<svg width="42px" height="42px" viewBox="0 0 42 42" version="1.1" xmlns="http://www.w3.org/2000/svg" xmlns:xlink="http://www.w3.org/1999/xlink">
    <!-- Generator: Sketch 53.2 (72643) - https://sketchapp.com -->
    <title>Group 11</title>
    <desc>Created with Sketch.</desc>
    <g id="🔵-Home" stroke="none" stroke-width="1" fill="none" fill-rule="evenodd">
        <g id="Search_Articles_Detail" transform="translate(-1062.000000, -229.000000)">
            <g id="Group-11" transform="translate(1062.000000, 229.000000)">
                <path d="M20.3331136,27.0199365 L21.4491091,27.0199365 C21.4491091,27.0199365 21.7858401,26.980957 21.9575317,26.7857264 C22.1159188,26.6061542 22.1111672,26.2703309 22.1111672,26.2703309 C22.1111672,26.2703309 22.088993,24.6954928 22.7843123,24.463948 C23.4698117,24.2347352 24.3482265,25.9851476 25.2814433,26.6581268 C25.9865826,27.1681918 26.5225645,27.0562507 26.5225645,27.0562507 L29.0146271,27.0199365 C29.0146271,27.0199365 30.3187864,26.9353143 29.7001264,25.8565486 C29.6494426,25.7679285 29.3399542,25.0586351 27.8463639,23.6010686 C26.2837168,22.0758711 26.4927878,22.3217417 28.3760103,19.6824637 C29.5230497,18.0753093 29.9811051,17.0941588 29.8385568,16.6737134 C29.7013935,16.2729243 28.8587742,16.3795348 28.8587742,16.3795348 L26.0508878,16.3978585 C26.0508878,16.3978585 25.8430839,16.3678743 25.6884981,16.464157 C25.5373968,16.559107 25.4410974,16.7816566 25.4410974,16.7816566 C25.4410974,16.7816566 24.9966633,18.0260019 24.4039787,19.082446 C23.1543046,21.3159376 22.6544349,21.4328761 22.4501155,21.2949486 C21.9749543,20.9707859 22.0937446,19.9962986 22.0937446,19.3039962 C22.0937446,17.140801 22.4057672,16.2389421 21.4861717,16.0060647 C21.1817517,15.9281057 20.9565252,15.8771325 20.1769439,15.8694699 C19.1746704,15.8578093 18.3272994,15.8721351 17.8470698,16.1193384 C17.5277614,16.2832522 17.2816278,16.6503923 17.4311453,16.6710481 C17.6167749,16.6970344 18.0377678,16.790985 18.2604601,17.1098173 C18.5474575,17.5209343 18.5376375,18.4447816 18.5376375,18.4447816 C18.5376375,18.4447816 18.7033104,20.9917748 18.1514898,21.3079418 C17.7729446,21.525494 17.2543853,21.0813943 16.1393401,19.0564597 C15.5691466,18.0193387 15.1383337,16.8729419 15.1383337,16.8729419 C15.1383337,16.8729419 15.0553388,16.6593876 14.9070885,16.5447812 C14.7262105,16.4055212 14.4750085,16.3615443 14.4750085,16.3615443 L11.8084034,16.3795348 C11.8084034,16.3795348 11.407684,16.3911954 11.260384,16.5747654 C11.1305066,16.7373466 11.250564,17.0745025 11.250564,17.0745025 C11.250564,17.0745025 13.338106,22.2124659 15.7025085,24.8011039 C17.8705111,27.1758544 20.3331136,27.0199365 20.3331136,27.0199365 Z" id="Fill-2-Copy-2" fill="#645FC9"></path>
                <rect id="Rectangle-21" stroke-opacity="0.1" stroke="#0E0B4D" x="0.5" y="0.5" width="41" height="41" rx="20.5"></rect>
            </g>
        </g>
    </g>
</svg>