<svg xmlns="http://www.w3.org/2000/svg" width="82" height="82" viewBox="0 0 82 82">
    <g fill="none" fill-rule="evenodd" transform="translate(1 1)">
        <circle cx="40" cy="40" r="40" stroke="#645FC9" stroke-width="2"/>
        <g fill="#645FC9" fill-rule="nonzero">
            <path d="M52.22 25.138H33.534a.883.883 0 0 0-.877.888c0 .49.393.887.877.887H52.22a.883.883 0 0 0 .878-.887.882.882 0 0 0-.878-.888zM29.45 25.138h-2.96a.883.883 0 0 0-.878.888c0 .49.393.887.878.887h2.96a.883.883 0 0 0 .878-.887.883.883 0 0 0-.878-.888zM35.671 52.336h-9.18a.883.883 0 0 0-.879.887c0 .49.393.887.878.887h9.181a.883.883 0 0 0 .878-.887.882.882 0 0 0-.878-.887zM39.355 43.27H26.49a.883.883 0 0 0-.878.887c0 .49.393.888.878.888h12.865a.883.883 0 0 0 .878-.888.882.882 0 0 0-.878-.887zM45.618 34.204H26.49a.883.883 0 0 0-.878.887c0 .49.393.888.878.888h19.128a.882.882 0 0 0 .877-.888.882.882 0 0 0-.877-.887z"/>
            <path d="M62.23 16.06H25.953c-3.214 0-5.828 2.643-5.828 5.891v34.913h-9.13a.873.873 0 0 0-.624.263.892.892 0 0 0-.254.633c.035 3.523 2.54 6.18 5.826 6.18H52.33c3.214 0 5.828-2.643 5.828-5.891V47.297a.883.883 0 0 0-.878-.887.883.883 0 0 0-.877.887V58.05c0 2.27-1.827 4.116-4.072 4.116h-.11c-2.297 0-4.046-1.901-4.071-4.423a.883.883 0 0 0-.878-.878h-25.39V21.95c0-2.27 1.826-4.116 4.07-4.116h32.113c-.026.026-.05.054-.075.082-.031.033-.062.065-.092.099-.032.035-.062.072-.093.108-.03.035-.06.07-.088.105l-.088.113c-.028.036-.056.072-.083.11-.028.037-.055.076-.082.115l-.079.114-.075.12-.074.118c-.025.04-.047.082-.07.123l-.069.123-.064.126c-.021.042-.043.084-.063.127-.02.042-.039.086-.058.13-.02.042-.04.085-.057.129-.019.044-.035.089-.053.133l-.05.133c-.017.045-.031.092-.047.138l-.044.133-.04.143c-.013.045-.026.09-.037.135-.013.05-.023.1-.035.15l-.03.132-.028.158c-.007.043-.016.086-.022.13-.009.056-.015.113-.022.17l-.015.122c-.006.063-.01.128-.014.192l-.008.105c-.005.1-.008.2-.008.3v7.875c0 .49.393.888.878.888a.883.883 0 0 0 .878-.888v-6.69h9.03a.873.873 0 0 0 .623-.263.892.892 0 0 0 .254-.633c-.034-3.523-2.54-6.18-5.835-6.18zM46.455 58.64c.012.091.026.182.042.273l.017.09c.011.06.022.12.035.178l.024.105c.012.053.024.106.038.159l.03.11a6.808 6.808 0 0 0 .214.65l.042.106.06.14.044.1c.022.048.045.096.069.143l.043.089.088.166.033.06c.042.074.085.147.13.219l.031.05c.035.054.07.109.107.163l.051.073.095.133.06.077c.031.041.063.082.095.121l.064.078a5.705 5.705 0 0 0 .167.19c.016.017.031.036.048.053h-32.14c-2.014 0-3.608-1.464-3.985-3.526h34.498zM58.201 21.36l.002-.018.013-.08.02-.114.019-.085a4.427 4.427 0 0 1 .102-.381 3.837 3.837 0 0 1 .136-.364c.011-.027.024-.054.036-.08.014-.032.028-.064.044-.095.01-.023.023-.046.034-.069l.053-.101.022-.039c.081-.145.17-.285.267-.418l.003-.004a4.38 4.38 0 0 1 .097-.126l.015-.02c.032-.04.066-.08.1-.119l.018-.021c.034-.04.069-.078.105-.115l.017-.019.113-.114.013-.012c.04-.039.082-.077.124-.114l.004-.004a4.053 4.053 0 0 1 1.93-.944 3.949 3.949 0 0 1 .367-.052l.027-.002a4.05 4.05 0 0 1 .162-.011c.031-.002.063-.002.094-.003l.102-.002c2.015 0 3.609 1.464 3.986 3.526h-8.025z"/>
            <path d="M70 32.414l-.002-.031a.89.89 0 0 0-.043-.24l-.003-.012c0-.003-.003-.006-.004-.009a.902.902 0 0 0-.048-.113l-.007-.013a.894.894 0 0 0-.058-.092l-.013-.019a.883.883 0 0 0-.075-.087l-.018-.017a.877.877 0 0 0-.08-.07l-.011-.008a.896.896 0 0 0-.1-.063l-.02-.01a.862.862 0 0 0-.373-.096c-7.345-.192-16.922 1.595-21.764 7.182-2.12 2.445-3.097 5.548-4.043 8.548l-.232.736a.876.876 0 0 0-.01.031l-1.483 5.326a.889.889 0 0 0 .845 1.128.88.88 0 0 0 .845-.647l1.376-4.94c1.682-.797 3.036-1.17 4.865-1.672.95-.261 2.025-.557 3.327-.962 2.814-.874 8.212-4.535 10.697-7.252 2.172-2.377 4-4.144 6.113-5.907l.007-.007a.883.883 0 0 0 .087-.084l.005-.006a.884.884 0 0 0 .19-.358.895.895 0 0 0 .023-.118v-.005a.89.89 0 0 0 .007-.083v-.03zM48.7 39.885c2.044-2.357 5.175-4.135 9.308-5.282a34.106 34.106 0 0 1 3.495-.766c-3.074 1.507-6.013 3.394-7.656 4.503-2.65 1.79-5.512 3.961-7.625 5.892.626-1.6 1.381-3.08 2.478-4.347zm13.577-2.078c-2.418 2.645-7.64 6.051-9.923 6.761a97.244 97.244 0 0 1-3.271.945c-.847.233-1.618.445-2.38.69.341-.33.74-.7 1.212-1.116 1.895-1.671 4.348-3.543 6.907-5.271 4.431-2.992 8.44-5.092 11.382-6.003a68.58 68.58 0 0 0-3.927 3.994z"/>
        </g>
    </g>
</svg>
