<svg xmlns="http://www.w3.org/2000/svg" width="80" height="80" viewBox="0 0 80 80">
    <g fill="none" fill-rule="nonzero" stroke="#645FC9" stroke-width="2">
        <path d="M47.813 55.063H45.25V33.75a.562.562 0 0 0-.563-.563h-12.5a.562.562 0 0 0-.562.563V40c0 .31.252.563.563.563h2.562v14.5h-2.563a.562.562 0 0 0-.562.562v6.25c0 .31.252.563.563.563h15.624c.311 0 .563-.252.563-.563v-6.25a.562.562 0 0 0-.563-.563zm-7.813-27a5.257 5.257 0 0 0 5.25-5.25 5.257 5.257 0 0 0-5.25-5.25 5.257 5.257 0 0 0-5.25 5.25 5.257 5.257 0 0 0 5.25 5.25z"/>
        <path d="M40 1C18.981 1 1 18.97 1 40c0 7.186 2.06 14.854 5.535 20.639l.237.394-.146.437L1.03 78.26a.563.563 0 0 0 .712.71l17.226-5.742.395.237C25.145 76.94 32.813 79 40 79c21.021 0 39-17.97 39-39C79 18.978 61.03 1 40 1z"/>
        <path stroke-linecap="round" d="M74 40c0-9.18-3.925-17.694-10.15-23.906m-2.085-1.922a35.322 35.322 0 0 0-3.833-2.837"/>
    </g>
</svg>
