<svg xmlns="http://www.w3.org/2000/svg" width="82" height="82" viewBox="0 0 82 82">
    <g fill="none" fill-rule="evenodd" stroke="#645FC9" transform="translate(1 1)">
        <circle cx="40" cy="40" r="40" stroke-width="2"/>
        <path stroke-width="2.5" d="M26.083 53.274l-.028-.016-.021-.011c-.13-.073-.203-.113-.291-.165a5.629 5.629 0 0 1-2.128-2.225c-.83-1.558-1.066-3.243-.693-4.997.138-.646.36-1.271.662-1.879a9.026 9.026 0 0 1 1.251-1.884c.749-.872 1.63-1.6 2.644-2.202.724-.43 1.49-.778 2.298-1.049.565-.189 1.14-.443 1.753-.767.64-.34 1.24-.706 2.214-1.337l.304-.197.087-.057c.784-.51 1.188-.765 1.672-1.048a13.245 13.245 0 0 1 1.755-.884c.897-.362 1.747-.548 2.614-.531a5.335 5.335 0 0 1 2.06.45c.686.3 1.317.684 1.889 1.155.91.752 1.582 1.714 2.015 2.866.251.671.425 1.38.567 2.23.079.468.13.84.235 1.664l.015.111.058.451c.127.95.246 1.656.402 2.326.17.732.4 1.441.688 2.126a13.7 13.7 0 0 1 .906 3.126c.157.98.195 1.934.103 2.876a9.005 9.005 0 0 1-.51 2.264c-.434 1.176-1.09 2.167-1.983 2.952a6.44 6.44 0 0 1-2.922 1.47c-.824.18-1.625.21-2.408.071a5.583 5.583 0 0 1-.76-.186 1.022 1.022 0 0 1-.048-.008l-.064.012-.37-.172-.268-.125-.27-.125-.38-.177-.016-.03c-.403-.222-.76-.482-1.287-.904a31.89 31.89 0 0 1-1.18-1.01l-.002-.002c-.4-.353-.579-.508-.799-.693a13.445 13.445 0 0 0-1.535-1.132 7.758 7.758 0 0 0-1.1-.555 5.725 5.725 0 0 0-.89-.275c-.547-.132-1.004-.211-2.054-.37l-.019-.002-.024-.004c-1.198-.179-1.766-.28-2.47-.47-.466-.126-.783-.231-1.121-.393.018.008.027.012.004.003l-.01-.004a2.187 2.187 0 0 1-.234-.104l.024.012-.008-.003a1.707 1.707 0 0 1-.327-.172zm26.092-26.305zm1.873-1.853c1.193.77 1.954 1.901 2.29 3.32.212.891.226 1.803.069 2.76a8.383 8.383 0 0 1-.68 2.173 9.19 9.19 0 0 1-2.452 3.192A7.982 7.982 0 0 1 50.771 38c-.896.312-1.791.439-2.7.356a5.156 5.156 0 0 1-1.99-.586c-1.071-.573-1.854-1.45-2.33-2.581-.368-.876-.513-1.806-.467-2.8.03-.627.139-1.247.321-1.864.122-.415.27-.812.447-1.19a9.235 9.235 0 0 1 1.621-2.412 8.536 8.536 0 0 1 2.491-1.875 6.916 6.916 0 0 1 2.662-.728 5.636 5.636 0 0 1 2.01.234l.069-.016.393.184.344.16.374.174.032.059zm-28.145 3.046a.492.492 0 0 0 .004-.017l-.004.017zm0 .001a.96.96 0 0 1-.001.004v.002a.532.532 0 0 0 .001-.006zm-.015.036v-.002zm-1.846-1.956a6.26 6.26 0 0 1 .549-.856c.503-.668 1.091-1.188 1.784-1.545.861-.443 1.778-.574 2.7-.368.727.164 1.374.526 1.936 1.058.568.539 1.005 1.202 1.32 1.97.44 1.068.617 2.22.553 3.452a8.532 8.532 0 0 1-.3 1.845c-.08.287-.18.574-.3.872a7.104 7.104 0 0 1-.854 1.546c-.512.696-1.112 1.238-1.826 1.607-.913.473-1.887.593-2.855.336-.691-.182-1.303-.547-1.839-1.069-.622-.608-1.077-1.358-1.392-2.238a7.763 7.763 0 0 1-.443-2.471 8.562 8.562 0 0 1 .368-2.7l.02-.068.007-.024a1.66 1.66 0 0 1 .043-.146l-.006-.056.125-.295.179-.419.142-.334.046-.032c.013-.022.028-.044.043-.065zm-.44.945v-.003a.265.265 0 0 0 0 .003zm9.792-3.5c.423-.973.965-1.767 1.683-2.426a5.688 5.688 0 0 1 2.048-1.231 5.11 5.11 0 0 1 2.798-.155 5.547 5.547 0 0 1 2.546 1.336 6.612 6.612 0 0 1 1.457 1.924 7.845 7.845 0 0 1 .85 3.373 8.13 8.13 0 0 1-.575 3.266 7.205 7.205 0 0 1-.714 1.355c-.644.955-1.452 1.686-2.46 2.173a5.21 5.21 0 0 1-2.238.524 5.266 5.266 0 0 1-2.603-.67 5.964 5.964 0 0 1-1.82-1.557 7.254 7.254 0 0 1-1.29-2.554 8.111 8.111 0 0 1-.254-3.135 8.133 8.133 0 0 1 .355-1.642c.086-.265.143-.426.217-.58zm26.308 19.876l-.014.037-.069.155c-.456.936-1.125 1.733-1.992 2.41-.66.514-1.389.912-2.183 1.187a7.217 7.217 0 0 1-3.305.365 6.07 6.07 0 0 1-2.096-.649c-1.016-.536-1.79-1.315-2.284-2.314a5.034 5.034 0 0 1-.509-2.558 5.724 5.724 0 0 1 .54-2.12c.634-1.357 1.657-2.424 3.02-3.202.456-.26.94-.47 1.454-.632a7.188 7.188 0 0 1 3.309-.26 5.993 5.993 0 0 1 1.97.667c.98.541 1.727 1.313 2.203 2.293.415.855.566 1.763.481 2.716a5.402 5.402 0 0 1-.346 1.488l-.021.049-.039.088c-.04.087-.08.18-.119.28z"/>
    </g>
</svg>
