<svg xmlns="http://www.w3.org/2000/svg" width="17" height="18" viewBox="0 0 17 18">
    <path fill="#FFF" fill-rule="nonzero" d="M1.341 14.789c-.062-.034-.124-.067-.185-.102a2.098 2.098 0 0 1-.807-.822 2.755 2.755 0 0 1-.279-1.966 3.12 3.12 0 0 1 .272-.75c.142-.281.319-.536.524-.77.33-.374.71-.675 1.134-.92a5.221 5.221 0 0 1 1-.444c.324-.106.636-.244.942-.402.385-.199.754-.427 1.12-.66.326-.204.648-.413.98-.603.25-.143.506-.274.773-.38a2.669 2.669 0 0 1 1.03-.208c.268.004.524.059.77.164.277.118.536.27.773.46.363.293.626.664.797 1.109.117.305.19.623.245.947.06.343.1.69.147 1.035.053.389.114.776.205 1.157.09.38.213.748.367 1.103.185.43.322.877.4 1.344.066.401.086.804.045 1.212-.032.317-.1.625-.213.924a2.8 2.8 0 0 1-.795 1.16c-.338.29-.723.471-1.147.562a2.451 2.451 0 0 1-.936.029 2.134 2.134 0 0 1-.326-.082l-.045-.012c-.017.002-.029-.01-.044-.015-.012-.004-.022-.015-.036-.012l-.261-.119c-.007-.013-.021-.012-.032-.019a847.295 847.295 0 0 0-.055-.025 3.58 3.58 0 0 1-.607-.407c-.325-.256-.632-.537-.952-.8a7.155 7.155 0 0 0-.815-.585 4.431 4.431 0 0 0-.62-.306 3.476 3.476 0 0 0-.526-.16c-.353-.083-.712-.135-1.07-.188a10.32 10.32 0 0 1-1.131-.208c-.15-.04-.3-.083-.442-.15-.03-.013-.06-.022-.09-.036-.037-.02-.077-.03-.11-.055zM14.222 2.42c.485.29.767.713.895 1.238.087.36.085.717.025 1.073a3.32 3.32 0 0 1-.282.877 3.774 3.774 0 0 1-1.03 1.308c-.307.25-.646.447-1.027.577-.339.115-.69.17-1.056.138a1.938 1.938 0 0 1-.736-.21 1.838 1.838 0 0 1-.858-.93 2.372 2.372 0 0 1-.18-1.069 3.373 3.373 0 0 1 .317-1.225 3.78 3.78 0 0 1 .682-.989c.298-.312.639-.57 1.033-.76.332-.16.684-.262 1.062-.285.277-.016.551.016.82.105.01 0 .018.005.026.008l.025.011c.012.004.022.015.036.012l.167.076c.008.013.022.013.033.02l.025.01c.008.005.017.007.023.015zM.524 2.825c.069-.14.153-.269.248-.39.183-.237.398-.431.66-.562.291-.147.592-.19.9-.123a1.4 1.4 0 0 1 .656.353c.217.201.38.449.497.729.184.434.25.896.224 1.379a3.372 3.372 0 0 1-.248 1.095c-.09.216-.202.419-.342.604a1.95 1.95 0 0 1-.676.586c-.31.156-.628.196-.953.113a1.413 1.413 0 0 1-.623-.358 2.158 2.158 0 0 1-.53-.836 3.02 3.02 0 0 1-.18-.984 3.381 3.381 0 0 1 .123-.99l.05-.171c.006-.028.02-.052.025-.079.001-.011.007-.02.011-.031.004-.014.016-.026.014-.042l.087-.198c.019-.013.022-.036.032-.055.007-.014.01-.03.025-.04zm4.59-1.304c.17-.382.383-.698.677-.961.223-.2.478-.359.78-.458A1.922 1.922 0 0 1 7.601.046c.365.078.683.248.96.493.246.217.432.467.575.742.23.438.333.888.347 1.346a3.181 3.181 0 0 1-.235 1.309 2.803 2.803 0 0 1-.287.531c-.24.348-.548.635-.955.827a1.965 1.965 0 0 1-1.796-.055 2.28 2.28 0 0 1-.7-.585 2.822 2.822 0 0 1-.519-1.004 3.174 3.174 0 0 1-.104-1.258 3.2 3.2 0 0 1 .227-.871zm11.661 8.953l-.02.046a2.687 2.687 0 0 1-.795.934c-.264.2-.56.36-.886.47-.42.142-.862.202-1.331.145a2.386 2.386 0 0 1-.81-.244 1.89 1.89 0 0 1-.848-.835 1.758 1.758 0 0 1-.186-.916c.016-.279.088-.54.206-.787.26-.541.676-.951 1.219-1.253.183-.102.379-.185.585-.248a2.958 2.958 0 0 1 1.33-.104c.265.04.52.12.76.25.366.197.64.472.817.826.16.32.205.646.175.975a1.903 1.903 0 0 1-.142.572c-.027.055-.05.112-.074.169z"/>
</svg>
