<?xml version="1.0" encoding="UTF-8"?>
<svg width="42px" height="42px" viewBox="0 0 42 42" version="1.1" xmlns="http://www.w3.org/2000/svg" xmlns:xlink="http://www.w3.org/1999/xlink">
    <!-- Generator: Sketch 55.2 (78181) - https://sketchapp.com -->
    <title>joint@1,5x</title>
    <desc>Created with Sketch.</desc>
    <g id="Home" stroke="none" stroke-width="1" fill="none" fill-rule="evenodd">
        <g id="Artboard" transform="translate(-124.000000, -200.000000)" fill="#0E0B4D" fill-rule="nonzero">
            <g id="Group-14" transform="translate(40.000000, 180.000000)">
                <g id="joint" transform="translate(84.000000, 20.000000)">
                    <path d="M42,21 C42,10.8584 34.7739,2.3737 25.2,0.4228 L25.2,0.4186 L24.6197,0.3171 C24.6092,0.315 24.5994,0.315 24.5889,0.3129 C24.0177,0.2142 23.4395,0.1379 22.8536,0.0861 C22.8116,0.0826 22.7696,0.0798 22.7276,0.0763 C22.1578,0.0301 21.5824,0 21,0 C20.4176,0 19.8422,0.0301 19.2717,0.077 C19.2297,0.0805 19.1877,0.0826 19.1457,0.0868 C18.5598,0.1386 17.9816,0.2149 17.4104,0.3136 C17.3999,0.3157 17.3901,0.3157 17.3796,0.3178 L16.8,0.4186 L16.8,0.4228 C7.2261,2.3737 0,10.8584 0,21 C0,31.1535 7.2443,39.6459 16.835,41.5835 L16.835,41.5891 L17.416,41.6892 C17.4244,41.6906 17.4328,41.6913 17.4419,41.6927 C18.0061,41.7893 18.5766,41.8642 19.1548,41.9146 C19.2073,41.9195 19.2591,41.9223 19.3116,41.9265 C19.8695,41.9706 20.4309,42 21,42 C21.3206,42 21.6433,41.9909 21.9667,41.9755 C22.1536,41.9671 22.3384,41.9517 22.5239,41.9384 C22.6457,41.9293 22.7668,41.9216 22.8886,41.9104 C23.128,41.8887 23.366,41.8621 23.6033,41.8327 C23.6656,41.825 23.7272,41.8173 23.7895,41.8089 C24.0492,41.7746 24.3075,41.7354 24.5644,41.6913 C24.5826,41.6878 24.6015,41.6864 24.6197,41.6829 L25.2,41.5814 L25.2,41.5772 C34.7739,39.6263 42,31.1416 42,21 Z M22.5148,1.4644 C22.9418,1.498 23.3695,1.5421 23.8,1.6044 L23.8,3.5 C23.8,6.0984 24.9046,8.7136 26.7554,10.4958 C27.6115,11.3211 28.0623,12.4887 27.9937,13.6997 C27.8824,15.6366 26.3935,17.2592 24.5301,17.4741 C23.7972,17.5588 23.0566,17.4314 22.3993,17.1059 C21.9611,16.8889 21.4809,16.7804 21.0007,16.7804 C20.5205,16.7804 20.0403,16.8889 19.6021,17.1066 C18.9448,17.4321 18.2084,17.5588 17.4706,17.4741 C15.6079,17.2592 14.119,15.6366 14.0077,13.6997 C13.9384,12.4887 14.3899,11.3211 15.2453,10.4958 C17.1507,8.6604 18.2,6.244 18.2,3.6911 L18.2,1.6044 C18.6305,1.5421 19.0582,1.498 19.4852,1.4644 C19.5573,1.4588 19.6294,1.4525 19.7015,1.4476 C20.5688,1.3888 21.4319,1.3888 22.2985,1.4476 C22.3706,1.4525 22.4427,1.4588 22.5148,1.4644 Z M19.4992,40.537 C19.0792,40.5041 18.6578,40.4614 18.235,40.4012 L18.235,37.6089 C18.235,35.0784 17.1724,32.662 15.2453,30.8042 C14.3892,29.9789 13.9384,28.8106 14.007,27.5996 C14.1183,25.6627 15.6072,24.0408 17.4706,23.8259 C18.2042,23.7412 18.9434,23.8679 19.6014,24.1941 C20.4778,24.6274 21.5222,24.6281 22.3986,24.1934 C23.0552,23.8672 23.793,23.7412 24.5301,23.8259 C26.3928,24.0408 27.8817,25.6627 27.993,27.5996 C28.0623,28.8106 27.6108,29.9789 26.7554,30.8042 C24.8493,32.6396 23.8,35.056 23.8,37.6089 L23.8,40.3956 C23.3737,40.4572 22.9502,40.5013 22.5274,40.5349 C22.4511,40.5405 22.3748,40.5475 22.2985,40.5524 C21.8757,40.5811 21.4536,40.5986 21.0315,40.5993 C21.0245,40.5993 21.0182,40.6 21.0112,40.6 C20.5828,40.6 20.1544,40.5832 19.7253,40.5545 C19.6497,40.5489 19.5741,40.5426 19.4992,40.537 Z M25.2,40.1422 L25.2,37.6089 C25.2,35.4403 26.0974,33.3823 27.727,31.8122 C28.8771,30.7041 29.4833,29.1396 29.3902,27.5191 C29.2404,24.9123 27.2195,22.7269 24.6904,22.4357 C23.6838,22.3209 22.6772,22.4931 21.7763,22.9397 C21.2912,23.1819 20.7102,23.1812 20.223,22.9404 C19.3228,22.4938 18.3148,22.3167 17.3096,22.4357 C14.7798,22.7269 12.7589,24.9123 12.6091,27.5191 C12.516,29.1389 13.1222,30.7041 14.273,31.8122 C15.9243,33.4033 16.8343,35.4627 16.8343,37.6089 L16.8343,40.1506 C8.022,38.2347 1.4,30.3786 1.4,21 C1.4,11.634 8.0045,3.7863 16.8,1.8578 L16.8,3.6911 C16.8,5.8597 15.9026,7.9177 14.273,9.4878 C13.1229,10.5959 12.5167,12.1604 12.6098,13.7802 C12.7596,16.387 14.7805,18.5731 17.3096,18.8643 C18.3148,18.9798 19.3228,18.8069 20.2237,18.3603 C20.7088,18.1181 21.2898,18.1188 21.777,18.3596 C22.4959,18.7166 23.2827,18.9 24.0828,18.9 C24.2844,18.9 24.4874,18.8881 24.6897,18.8643 C27.2195,18.5731 29.2404,16.387 29.3902,13.7802 C29.4833,12.1611 28.8771,10.5959 27.7263,9.4878 C26.145,7.9639 25.2,5.7253 25.2,3.5 L25.2,1.8578 C33.9955,3.7863 40.6,11.634 40.6,21 C40.6,30.366 33.9955,38.2137 25.2,40.1422 Z" id="Shape"></path>
                </g>
            </g>
        </g>
    </g>
</svg>