<?xml version="1.0" encoding="UTF-8"?>
<svg width="34px" height="42px" viewBox="0 0 34 42" version="1.1" xmlns="http://www.w3.org/2000/svg" xmlns:xlink="http://www.w3.org/1999/xlink">
    <!-- Generator: Sketch 55.2 (78181) - https://sketchapp.com -->
    <title>flea@1,5x</title>
    <desc>Created with Sketch.</desc>
    <g id="Home" stroke="none" stroke-width="1" fill="none" fill-rule="evenodd">
        <g id="Breeder's_Card_Desktop" transform="translate(-900.000000, -933.000000)" fill-rule="nonzero">
            <g id="Group-14" transform="translate(815.000000, 909.000000)">
                <g id="flea" transform="translate(85.000000, 24.000000)">
                    <path d="M11.1044327,37.915149 C11.2673221,37.915149 11.4235096,37.8504183 11.5388317,37.7353413 L12.8491394,36.4250337 C13.0890192,36.1850721 13.0890192,35.7962788 12.8491394,35.556399 C12.6090144,35.316601 12.2202212,35.316601 11.9802596,35.556399 L10.8499231,36.6868173 L10.3722067,36.6868173 C10.3054327,36.1119231 10.1466298,35.5648173 9.90928365,35.0710817 L11.2985433,34.6079952 C11.4530962,34.5565048 11.5807596,34.4456779 11.6536635,34.3000337 L12.3088173,32.989726 C12.4605913,32.6863413 12.3375865,32.3174087 12.0341202,32.1656346 C11.7305721,32.0137788 11.3617212,32.1367837 11.2100288,32.4403317 L10.6686442,33.523101 L9.20468269,34.0111154 C8.95344231,33.7306971 8.66836538,33.4877115 8.35427404,33.2918029 C8.41156731,33.1097067 8.442625,32.9159231 8.442625,32.7151106 C8.442625,31.6539183 7.57930288,30.7905962 6.51811058,30.7905962 C5.45691827,30.7905962 4.59359615,31.6539183 4.59359615,32.7151106 C4.59359615,32.9158413 4.62465385,33.1095433 4.68186538,33.2915577 C4.36801923,33.4875481 4.08326923,33.7308606 3.83202885,34.0113606 L2.36757692,33.5231827 L1.82619231,32.4404135 C1.6745,32.1371106 1.30573077,32.0142692 1.00210096,32.1657163 C0.698798077,32.3174904 0.575793269,32.6863413 0.727403846,32.9898077 L1.38255769,34.3001154 C1.45546154,34.4457596 1.583125,34.5565865 1.73767788,34.6080769 L3.12759135,35.0713269 C2.89,35.565226 2.73087019,36.1123317 2.66409615,36.6868173 L2.18629808,36.6868173 L1.05628846,35.5564808 C0.816326923,35.3166827 0.427533654,35.3166827 0.187653846,35.5564808 C-0.0522259615,35.7964423 -0.0522259615,36.1852356 0.187653846,36.4251154 L1.49796154,37.7354231 C1.61320192,37.8505817 1.76938942,37.9152308 1.93236058,37.9152308 L2.66499519,37.9152308 C2.72228846,38.4086394 2.84717308,38.8771202 3.0291875,39.3074327 L2.58743269,39.3074327 C2.42454327,39.3074327 2.26835577,39.3721635 2.15303365,39.4872404 L0.842725962,40.7975481 C0.619192308,41.0211635 0.604235577,41.3905048 0.810115385,41.6309567 C1.03977885,41.8992788 1.46159135,41.9158702 1.71144231,41.6662644 L2.84177885,40.5358462 L3.78912019,40.5358462 C4.49184135,41.3453894 5.45577404,41.8461538 6.51827404,41.8461538 C7.58077404,41.8461538 8.54470673,41.3453894 9.24742788,40.5358462 L10.1947692,40.5358462 L11.3251058,41.6662644 C11.5749567,41.9159519 11.9966875,41.8993606 12.2264327,41.6309567 C12.4322308,41.3905048 12.4174375,41.0211635 12.1938221,40.7975481 L10.8835144,39.4872404 C10.768274,39.3720817 10.6120865,39.3074327 10.4491154,39.3074327 L10.0074423,39.3074327 C10.189375,38.8772019 10.3142596,38.4086394 10.3716346,37.9152308 L11.1044327,37.9152308 L11.1044327,37.915149 Z M6.51827404,32.0189279 C6.90208173,32.0189279 7.214375,32.3312212 7.214375,32.7150288 C7.214375,33.0988365 6.90208173,33.4111298 6.51827404,33.4111298 C6.13446635,33.4111298 5.82217308,33.0988365 5.82217308,32.7150288 C5.82217308,32.3311394 6.13438462,32.0189279 6.51827404,32.0189279 Z M6.51827404,40.6176587 C5.05063462,40.6176587 3.85671154,39.1298317 3.85671154,37.3009423 C3.85671154,35.9981538 4.46421635,34.8311202 5.41188462,34.2881827 C5.72515865,34.509101 6.10667788,34.6394615 6.51827404,34.6394615 C6.92987019,34.6394615 7.31138942,34.5091827 7.62458173,34.2881827 C8.57274038,34.830875 9.17983654,35.9963558 9.17983654,37.3009423 C9.17975481,39.1298317 7.98583173,40.6176587 6.51827404,40.6176587 Z" id="Shape" fill="#645FC9"></path>
                    <path d="M30.4294279,7.21086058 L33.2378606,4.40234615 C34.243476,3.39664904 34.243476,1.75999038 33.2377788,0.754129808 C32.2320817,-0.251403846 30.5955048,-0.251403846 29.5895625,0.754129808 L26.7812115,3.56264423 L23.9726971,0.754129808 C23.7327356,0.514331731 23.3439423,0.514331731 23.1040625,0.754129808 L20.7878125,3.07037981 C20.5479327,3.31034135 20.5479327,3.69913462 20.7878125,3.93901442 L23.1330769,6.28427885 L20.0500288,9.36732692 C19.8134183,9.60401923 19.8133365,9.99935096 20.0500288,10.2359615 C20.2866394,10.4725721 20.6820529,10.4724904 20.9186635,10.2359615 L24.0017115,7.15283173 L26.8391587,9.99027885 L19.1829471,17.6464904 L13.5080529,17.6464904 L18.6631394,12.4914856 C18.89975,12.2547933 18.8998317,11.8594615 18.6631394,11.622851 C18.4265288,11.3862404 18.0311154,11.3863221 17.7945048,11.622851 L8.74306731,20.6742885 C8.69648077,20.7209567 8.65757692,20.774899 8.62807212,20.8339087 L6.81961538,24.4509038 L5.50031731,25.7701202 C4.75852885,26.5119087 4.75852885,27.7500481 5.50031731,28.4917548 C6.24210577,29.2335433 7.48024519,29.2335433 8.22195192,28.4917548 L9.54116827,27.1724567 L13.1581635,25.364 C13.2171731,25.3344952 13.2711154,25.2955913 13.3177837,25.2490048 L27.7077115,10.8590769 L30.052976,13.2043413 C30.2896683,13.4409519 30.6849183,13.4409519 30.9216106,13.2043413 L33.2378606,10.8880913 C33.4777404,10.6481298 33.4777404,10.2593365 33.2378606,10.0194567 L30.4294279,7.21086058 Z M12.519601,24.3098365 L8.90260577,26.1182933 C8.84359615,26.1477981 8.78965385,26.1867019 8.74298558,26.2332885 L7.35315385,27.6231202 C7.08532212,27.8911154 6.63670192,27.8910337 6.36878846,27.6231202 C6.10095673,27.355125 6.10079327,26.90675 6.36878846,26.6387548 L7.75862019,25.2489231 C7.80520673,25.2022548 7.84411058,25.1483125 7.87361538,25.0893029 L9.68207212,21.4723077 L12.279476,18.8749038 L17.9544519,18.8749038 L12.519601,24.3098365 Z M30.4582788,1.62284615 C30.9853606,1.09609135 31.8425529,1.09600962 32.369226,1.62276442 C32.8960625,2.14968269 32.8960625,3.00695673 32.369226,3.53371154 L29.5607933,6.34222596 L27.6498462,4.43127885 L30.4582788,1.62284615 Z M30.4872933,11.9013894 L22.0906827,3.50469712 L23.5383798,2.057 L31.9349904,10.4536106 L30.4872933,11.9013894 Z" id="Shape" fill="#0E0B4D"></path>
                </g>
            </g>
        </g>
    </g>
</svg>