<?xml version="1.0" encoding="UTF-8"?>
<svg width="40px" height="40px" viewBox="0 0 40 40" version="1.1" xmlns="http://www.w3.org/2000/svg" xmlns:xlink="http://www.w3.org/1999/xlink">
    <!-- Generator: Sketch 55.2 (78181) - https://sketchapp.com -->
    <title>blood-donation@1,5x</title>
    <desc>Created with Sketch.</desc>
    <g id="Home" stroke="none" stroke-width="1" fill="none" fill-rule="evenodd">
        <g id="Artboard" transform="translate(-125.000000, -63.000000)" fill-rule="nonzero">
            <g id="Group-14" transform="translate(40.000000, 40.000000)">
                <g id="blood-donation" transform="translate(85.000000, 23.000000)">
                    <path d="M13.7371696,4.16 C13.6027223,4.04537993 13.4283256,3.98899022 13.2523703,4.00324419 C13.0764149,4.01749815 12.9133249,4.10122731 12.7990019,4.236 C10.4209799,7.03666667 2.66146849,16.692 2.66146849,23.3333333 C2.66146849,23.7015231 2.95936349,24 3.32683561,24 C3.69430772,24 3.99220273,23.7015231 3.99220273,23.3333333 C3.99220273,17.1466667 11.5108512,7.81333333 13.8130214,5.1 C13.9274181,4.96529011 13.9836979,4.79055279 13.9694717,4.61425379 C13.9552455,4.43795478 13.8716795,4.27454623 13.7371696,4.16 L13.7371696,4.16 Z" id="Shape" fill="#0E0B4D"></path>
                    <path d="M4.32821313,25.822 C4.23009807,25.467065 3.86338932,25.2590267 3.5091462,25.3573333 C3.15490309,25.45564 2.94727027,25.823065 3.04538532,26.178 C3.17988993,26.6636913 3.34888043,27.1391257 3.55106433,27.6006667 C3.64126948,27.8263011 3.84688688,27.9848643 4.08766962,28.0144732 C4.32845236,28.0440821 4.56623592,27.9400437 4.70821982,27.7429613 C4.85020371,27.5458789 4.87388323,27.2869906 4.77001689,27.0673333 C4.59339805,26.6632699 4.44575584,26.2471037 4.32821313,25.822 L4.32821313,25.822 Z" id="Shape" fill="#0E0B4D"></path>
                    <path d="M6.37089019,29.5553333 C6.12578628,29.2806637 5.70486065,29.2570841 5.43072647,29.5026667 C5.15659228,29.7482493 5.13305856,30.1699971 5.37816244,30.4446667 C5.59507212,30.6866667 5.82994672,30.9266667 6.07679792,31.1553333 C6.24950987,31.3261896 6.50137149,31.3892647 6.73400372,31.3199209 C6.96663596,31.2505771 7.14312831,31.059817 7.19454143,30.8221528 C7.24595455,30.5844885 7.16413109,30.3376293 6.98103184,30.178 C6.76877973,29.98 6.56384665,29.7726667 6.37089019,29.5553333 L6.37089019,29.5553333 Z" id="Shape" fill="#0E0B4D"></path>
                    <path d="M16.634178,18.6666667 L13.9727096,18.6666667 L13.9727096,16 C13.9727096,15.6318102 13.6748145,15.3333333 13.3073424,15.3333333 C12.9398703,15.3333333 12.6419753,15.6318102 12.6419753,16 L12.6419753,18.6666667 L9.98050682,18.6666667 C9.61303474,18.6666667 9.3151397,18.9651435 9.3151397,19.3333333 C9.3151397,19.7015231 9.61303474,20 9.98050682,20 L12.6419753,20 L12.6419753,22.6666667 C12.6419753,23.0348565 12.9398703,23.3333333 13.3073424,23.3333333 C13.6748145,23.3333333 13.9727096,23.0348565 13.9727096,22.6666667 L13.9727096,20 L16.634178,20 C17.0016501,20 17.2995452,19.7015231 17.2995452,19.3333333 C17.2995452,18.9651435 17.0016501,18.6666667 16.634178,18.6666667 Z" id="Shape" fill="#645FC9"></path>
                    <path d="M16.634178,25.3333333 L9.98050682,25.3333333 C9.61303474,25.3333333 9.3151397,25.6318102 9.3151397,26 C9.3151397,26.3681898 9.61303474,26.6666667 9.98050682,26.6666667 L16.634178,26.6666667 C17.0016501,26.6666667 17.2995452,26.3681898 17.2995452,26 C17.2995452,25.6318102 17.0016501,25.3333333 16.634178,25.3333333 Z" id="Shape" fill="#645FC9"></path>
                    <path d="M26.315935,20.6933333 C24.6338869,12.6 16.0612969,2.46066667 14.3053931,0.448 C14.0452431,0.173791127 13.6839308,0.01893816 13.3063399,0.019817173 C12.9287489,0.0207036933 12.5681618,0.17724438 12.3092917,0.452666667 C10.2519766,2.80666667 0,14.9746667 0,23.3393333 C0,34.1653333 12.2174711,40.374 20.9237999,34.2566667 C23.2332716,39.1712423 29.0378865,41.337379 33.9933007,39.1338767 C38.9487149,36.9303743 41.2398933,31.1643165 39.1520509,26.1511899 C37.0642085,21.1380634 31.3620658,18.7140415 26.3132736,20.6933333 L26.315935,20.6933333 Z M1.33073424,23.3393333 C1.33073424,15.4513333 11.3112411,3.622 13.3073424,1.33333333 C15.0452814,3.32133333 23.6411592,13.4826667 25.0710331,21.28 C20.953445,23.5859267 19.0104543,28.4662402 20.4134633,32.9786667 C12.616026,38.778 1.33073424,33.224 1.33073424,23.3393333 Z M29.9415205,38.6666667 C25.164383,38.6666667 21.2917479,34.7864678 21.2917479,30 C21.2917479,25.2135322 25.164383,21.3333333 29.9415205,21.3333333 C34.7186579,21.3333333 38.591293,25.2135322 38.591293,30 C38.5857931,34.7841834 34.716378,38.661156 29.9415205,38.6666667 Z" id="Shape" fill="#0E0B4D"></path>
                    <path d="M33.4014295,25.6 L27.8735595,32.9853333 L26.4197323,31.5286667 C26.1586563,31.2760185 25.7436629,31.2796317 25.4870083,31.5367876 C25.2303537,31.7939435 25.2267475,32.2097474 25.4789032,32.4713333 L27.4750045,34.4713333 C27.6113829,34.6079721 27.8002241,34.6785972 27.9926037,34.6649112 C28.1849834,34.6512252 28.3619709,34.5545748 28.4777128,34.4 L34.4660169,26.4 C34.6086446,26.2094583 34.6389834,25.957151 34.545605,25.7381198 C34.4522266,25.5190885 34.2493173,25.3666093 34.0133113,25.3381197 C33.7773052,25.3096301 33.5440571,25.4094583 33.4014295,25.6 L33.4014295,25.6 Z" id="Shape" fill="#645FC9"></path>
                </g>
            </g>
        </g>
    </g>
</svg>