<svg xmlns="http://www.w3.org/2000/svg" width="26" height="24" viewBox="0 0 26 24">
    <path fill="#645FC9" fill-rule="nonzero" d="M25.763 20.246c-1.731-3.51-4.633-8.49-7.193-12.882-1.34-2.299-2.604-4.47-3.52-6.12C14.62.466 13.853 0 13 0c-.853 0-1.62.465-2.052 1.245-.915 1.65-2.181 3.824-3.522 6.124C4.868 11.76 1.967 16.737.237 20.246.08 20.566 0 20.904 0 21.25a2.32 2.32 0 0 0 2.322 2.313L13 23.56l10.678.002A2.32 2.32 0 0 0 26 21.25c0-.346-.08-.685-.237-1.004zM13 21.42c-.597 0-1.083-.48-1.083-1.071 0-.59.486-1.071 1.083-1.071s1.083.48 1.083 1.07c0 .591-.486 1.072-1.083 1.072zm1.083-3.749a.538.538 0 0 1-.541.536h-1.084c-.3 0-.541-.24-.541-.536V5.892c0-.297.242-.536.541-.536h1.084c.299 0 .541.24.541.535v11.781z"/>
</svg>
