<?xml version="1.0" encoding="UTF-8"?>
<svg width="44px" height="44px" viewBox="0 0 44 44" version="1.1" xmlns="http://www.w3.org/2000/svg" xmlns:xlink="http://www.w3.org/1999/xlink">
    <!-- Generator: Sketch 53.2 (72643) - https://sketchapp.com -->
    <title>chip</title>
    <desc>Created with Sketch.</desc>
    <g id="🔵-Home" stroke="none" stroke-width="1" fill="none" fill-rule="evenodd">
        <g id="Artboard" transform="translate(-353.000000, -204.000000)" fill-rule="nonzero">
            <g id="Group-14" transform="translate(270.000000, 180.000000)">
                <g id="chip" transform="translate(83.000000, 24.000000)">
                    <path d="M41.6912463,24.1814389 C42.916819,24.1814389 43.91423,23.1830227 43.91423,21.9561099 C43.91423,20.7302022 42.916819,19.7327912 41.6912463,19.7327912 L39.7342836,19.7327912 L39.7342836,16.9667093 L41.6912463,16.9667093 C42.916819,16.9667093 43.91423,15.9692982 43.91423,14.7437257 C43.91423,13.517818 42.916819,12.5204069 41.6912463,12.5204069 L39.7342836,12.5204069 L39.7342836,7.49951267 C39.7342836,5.66919467 38.2450354,4.17994639 36.4147173,4.17994639 L31.3938231,4.17994639 L31.3938231,2.22331871 C31.3938231,0.997411041 30.396412,5.68434189e-14 29.1708394,5.68434189e-14 C27.9435916,5.68434189e-14 26.9451754,0.997411041 26.9451754,2.22331871 L26.9451754,4.18028141 L24.1814389,4.18028141 L24.1814389,2.22331871 C24.1814389,0.997411041 23.1830227,5.68434189e-14 21.9557749,5.68434189e-14 C20.7302022,5.68434189e-14 19.7327912,0.997411041 19.7327912,2.22331871 L19.7327912,4.18028141 L16.9663743,4.18028141 L16.9663743,2.22331871 C16.9663743,0.997411041 15.9692982,5.68434189e-14 14.7433906,5.68434189e-14 C13.517818,5.68434189e-14 12.5204069,0.997411041 12.5204069,2.22331871 L12.5204069,4.18028141 L7.49917765,4.18028141 C5.66919467,4.18028141 4.17994639,5.66919467 4.17994639,7.49951267 L4.17994639,12.520742 L2.2229837,12.520742 C0.997411041,12.5204069 0,13.517818 0,14.7437257 C0,15.9696333 0.997411041,16.9667093 2.2229837,16.9667093 L4.17994639,16.9667093 L4.17994639,19.7331262 L2.2229837,19.7331262 C0.997411041,19.7331262 0,20.7302022 0,21.9561099 C0,23.1830227 0.997411041,24.1814389 2.2229837,24.1814389 L4.17994639,24.1814389 L4.17994639,26.9455105 L2.2229837,26.9455105 C0.997411041,26.9455105 0,27.9435916 0,29.1708394 C0,30.3967471 0.997411041,31.3938231 2.2229837,31.3938231 L4.17994639,31.3938231 L4.17994639,36.4150524 C4.17994639,38.2453704 5.66919467,39.7342836 7.49951267,39.7342836 L12.5204069,39.7342836 L12.5204069,41.6912463 C12.5204069,42.917154 13.517818,43.914565 14.7437257,43.914565 C15.9692982,43.914565 16.9667093,42.917154 16.9667093,41.6912463 L16.9667093,39.7342836 L19.7327912,39.7342836 L19.7327912,41.6912463 C19.7327912,42.917154 20.7302022,43.914565 21.9561099,43.914565 C23.1833577,43.914565 24.1814389,42.917154 24.1814389,41.6912463 L24.1814389,39.7342836 L26.9455105,39.7342836 L26.9455105,41.6912463 C26.9455105,42.917154 27.9439266,43.914565 29.1708394,43.914565 C30.3967471,43.914565 31.3938231,42.917154 31.3938231,41.6912463 L31.3938231,39.7342836 L36.4150524,39.7342836 C38.2453704,39.7342836 39.7346186,38.2453704 39.7346186,36.4150524 L39.7346186,31.3938231 L41.6915814,31.3938231 C42.917154,31.3938231 43.914565,30.3967471 43.914565,29.1708394 C43.914565,27.9435916 42.917154,26.9455105 41.6915814,26.9455105 L39.7346186,26.9455105 L39.7346186,24.1814389 L41.6912463,24.1814389 Z M41.6912463,21.0243665 C42.2048611,21.0243665 42.6226547,21.4424951 42.6226547,21.9561099 C42.6226547,22.4710649 42.2048611,22.8898635 41.6912463,22.8898635 L39.7342836,22.8898635 L39.7342836,21.0243665 L41.6912463,21.0243665 Z M41.6912463,13.8123172 C42.2048611,13.8123172 42.6226547,14.2301108 42.6226547,14.7437257 C42.6226547,15.2573404 42.2048611,15.675134 41.6912463,15.675134 L39.7342836,15.675134 L39.7342836,13.8123172 L41.6912463,13.8123172 Z M28.2367508,2.22331871 C28.2367508,1.70936895 28.6558845,1.29157531 29.1708394,1.29157531 C29.6844542,1.29157531 30.1022478,1.70936895 30.1022478,2.22331871 L30.1022478,4.18028141 L28.2367508,4.18028141 L28.2367508,2.22331871 Z M21.0243665,2.22331871 C21.0243665,1.70936895 21.4421601,1.29157531 21.9557749,1.29157531 C22.4707298,1.29157531 22.8898635,1.70936895 22.8898635,2.22331871 L22.8898635,4.18028141 L21.0243665,4.18028141 L21.0243665,2.22331871 Z M13.8119822,2.22331871 C13.8119822,1.70936895 14.2297758,1.29157531 14.7433906,1.29157531 C15.2573404,1.29157531 15.675134,1.70936895 15.675134,2.22331871 L15.675134,4.18028141 L13.8119822,4.18028141 L13.8119822,2.22331871 Z M2.2229837,15.675134 C1.70936895,15.675134 1.29157531,15.2573404 1.29157531,14.7437257 C1.29157531,14.2301108 1.70936895,13.8123172 2.2229837,13.8123172 L4.17994639,13.8123172 L4.17994639,15.675134 L2.2229837,15.675134 Z M2.2229837,22.8898635 C1.70936895,22.8898635 1.29157531,22.4710649 1.29157531,21.9561099 C1.29157531,21.4424951 1.70936895,21.0247015 2.2229837,21.0247015 L4.17994639,21.0247015 L4.17994639,22.8898635 L2.2229837,22.8898635 Z M2.2229837,30.1022478 C1.70936895,30.1022478 1.29157531,29.6844542 1.29157531,29.1708394 C1.29157531,28.6558845 1.70936895,28.2370858 2.2229837,28.2370858 L4.17994639,28.2370858 L4.17994639,30.1022478 L2.2229837,30.1022478 Z M15.675134,41.6912463 C15.675134,42.2048611 15.2570053,42.6226547 14.7433906,42.6226547 C14.2297758,42.6226547 13.8119822,42.2048611 13.8119822,41.6912463 L13.8119822,39.7342836 L15.675134,39.7342836 L15.675134,41.6912463 Z M22.8898635,41.6912463 C22.8898635,42.2048611 22.4707298,42.6226547 21.9557749,42.6226547 C21.4421601,42.6226547 21.0243665,42.2048611 21.0243665,41.6912463 L21.0243665,39.7342836 L22.8898635,39.7342836 L22.8898635,41.6912463 Z M30.1022478,41.6912463 C30.1022478,42.2048611 29.6844542,42.6226547 29.1708394,42.6226547 C28.6558845,42.6226547 28.2367508,42.2048611 28.2367508,41.6912463 L28.2367508,39.7342836 L30.1022478,39.7342836 L30.1022478,41.6912463 Z M38.4427083,36.4150524 C38.4427083,37.5330774 37.5330774,38.4427083 36.4150524,38.4427083 L7.49917765,38.4427083 C6.38115258,38.4427083 5.47152171,37.5330774 5.47152171,36.4150524 L5.47152171,7.49951267 C5.47152171,6.38148759 6.38115258,5.47152171 7.49917765,5.47152171 L36.4147173,5.47152171 C37.5330774,5.47152171 38.4427083,6.38148759 38.4427083,7.49951267 L38.4427083,36.4150524 Z M41.6912463,28.2370858 C42.2048611,28.2370858 42.6226547,28.6558845 42.6226547,29.1708394 C42.6226547,29.6844542 42.2048611,30.1022478 41.6912463,30.1022478 L39.7342836,30.1022478 L39.7342836,28.2370858 L41.6912463,28.2370858 Z" id="Shape" fill="#0E0B4D"></path>
                    <path d="M27.5616472,14.669347 L22.8811526,14.669347 C22.524336,14.669347 22.2355324,14.9584856 22.2355324,15.3149671 C22.2355324,15.6714486 22.5246711,15.9605873 22.8811526,15.9605873 L27.5616472,15.9605873 C27.7727218,15.9605873 27.9512975,16.1401682 27.9512975,16.3525828 L27.9512975,27.5619822 C27.9512975,27.7730568 27.7727218,27.9512975 27.5616472,27.9512975 L16.3525828,27.9512975 C16.1401682,27.9512975 15.9605873,27.7727218 15.9605873,27.5619822 L15.9605873,16.3525828 C15.9605873,16.1364827 16.1364827,15.9605873 16.3525828,15.9605873 L20.3201145,15.9605873 C20.676596,15.9605873 20.9657346,15.6714486 20.9657346,15.3149671 C20.9657346,14.9584856 20.676596,14.669347 20.3201145,14.669347 L16.3525828,14.669347 C15.4241898,14.669347 14.669012,15.4245249 14.669012,16.3525828 L14.669012,27.5619822 C14.669012,28.4890351 15.4241898,29.2428728 16.3525828,29.2428728 L27.5616472,29.2428728 C28.4887001,29.2428728 29.2428728,28.4890351 29.2428728,27.5619822 L29.2428728,16.3525828 C29.2428728,15.4241898 28.4887001,14.669347 27.5616472,14.669347 Z" id="Path" fill="#0E0B4D"></path>
                    <path d="M35.6310611,14.8767361 C35.9878777,14.8767361 36.2770163,14.5875975 36.2770163,14.230781 C36.2770163,13.8742995 35.9878777,13.5851608 35.6310611,13.5851608 L33.5715765,13.5851608 L33.5715765,12.6999878 C33.5715765,11.4003716 32.5131884,10.3426536 31.211897,10.3426536 L30.3267239,10.3426536 L30.3267239,8.28316888 C30.3267239,7.9263523 30.0375853,7.63754873 29.6811038,7.63754873 C29.3242873,7.63754873 29.0351487,7.9266874 29.0351487,8.28316888 L29.0351487,10.3426536 L26.5474841,10.3426536 L26.5474841,8.28316888 C26.5474841,7.9263523 26.2583456,7.63754873 25.901529,7.63754873 C25.5450475,7.63754873 25.2559089,7.9266874 25.2559089,8.28316888 L25.2559089,10.3426536 L22.60173,10.3426536 L22.60173,8.28316888 C22.60173,7.9263523 22.3125914,7.63754873 21.9561099,7.63754873 C21.5992934,7.63754873 21.3101547,7.9266874 21.3101547,8.28316888 L21.3101547,10.3426536 L18.6563109,10.3426536 L18.6563109,8.28316888 C18.6563109,7.9263523 18.3671722,7.63754873 18.0103558,7.63754873 C17.6538743,7.63754873 17.3647356,7.9266874 17.3647356,8.28316888 L17.3647356,10.3426536 L14.8767361,10.3426536 L14.8767361,8.28316888 C14.8767361,7.9263523 14.5875975,7.63754873 14.231116,7.63754873 C13.8742995,7.63754873 13.5851608,7.9266874 13.5851608,8.28316888 L13.5851608,10.3426536 L12.7003229,10.3426536 C11.4003716,10.3426536 10.3429886,11.4003716 10.3429886,12.6999878 L10.3429886,13.5851608 L8.28316888,13.5851608 C7.9263523,13.5851608 7.63721372,13.8742995 7.63721372,14.230781 C7.63721372,14.5875975 7.9263523,14.8767361 8.28316888,14.8767361 L10.3426536,14.8767361 L10.3426536,17.3647356 L8.28316888,17.3647356 C7.9263523,17.3647356 7.63721372,17.6538743 7.63721372,18.0103558 C7.63721372,18.3671722 7.9263523,18.6559759 8.28316888,18.6559759 L10.3426536,18.6559759 L10.3426536,21.3101547 L8.28316888,21.3101547 C7.9263523,21.3101547 7.63721372,21.5992934 7.63721372,21.9557749 C7.63721372,22.3125914 7.9263523,22.60173 8.28316888,22.60173 L10.3426536,22.60173 L10.3426536,25.2555738 L8.28316888,25.2555738 C7.9263523,25.2555738 7.63721372,25.5447125 7.63721372,25.901529 C7.63721372,26.2580105 7.9263523,26.5471491 8.28316888,26.5471491 L10.3426536,26.5471491 L10.3426536,29.0351487 L8.28316888,29.0351487 C7.9263523,29.0351487 7.63721372,29.3242873 7.63721372,29.6807687 C7.63721372,30.0375853 7.9263523,30.3267239 8.28316888,30.3267239 L10.3426536,30.3267239 L10.3426536,31.211897 C10.3426536,32.5128533 11.4000365,33.5715765 12.6999878,33.5715765 L13.5851608,33.5715765 L13.5851608,35.6310611 C13.5851608,35.9878777 13.8742995,36.2766813 14.230781,36.2766813 C14.5872624,36.2766813 14.876401,35.9875426 14.876401,35.6310611 L14.876401,33.5715765 L17.3644006,33.5715765 L17.3644006,35.6310611 C17.3644006,35.9878777 17.6535393,36.2766813 18.0103558,36.2766813 C18.3668372,36.2766813 18.6559759,35.9875426 18.6559759,35.6310611 L18.6559759,33.5715765 L21.3098197,33.5715765 L21.3098197,35.6310611 C21.3098197,35.9878777 21.5989584,36.2766813 21.9557749,36.2766813 C22.3122563,36.2766813 22.601395,35.9875426 22.601395,35.6310611 L22.601395,33.5715765 L25.2555738,33.5715765 L25.2555738,35.6310611 C25.2555738,35.9878777 25.5447125,36.2766813 25.901194,36.2766813 C26.2580105,36.2766813 26.5471491,35.9875426 26.5471491,35.6310611 L26.5471491,33.5715765 L29.0351487,33.5715765 L29.0351487,35.6310611 C29.0351487,35.9878777 29.3242873,36.2766813 29.6807687,36.2766813 C30.0375853,36.2766813 30.3263889,35.9875426 30.3263889,35.6310611 L30.3263889,33.5715765 L31.2115619,33.5715765 C32.5128533,33.5715765 33.5712415,32.5128533 33.5712415,31.211897 L33.5712415,30.3267239 L35.6310611,30.3267239 C35.9875426,30.3267239 36.2766813,30.0375853 36.2766813,29.6807687 C36.2766813,29.3242873 35.9875426,29.0351487 35.6310611,29.0351487 L33.5712415,29.0351487 L33.5712415,26.5471491 L35.6310611,26.5471491 C35.9875426,26.5471491 36.2766813,26.2580105 36.2766813,25.901529 C36.2766813,25.5447125 35.9875426,25.2555738 35.6310611,25.2555738 L33.5712415,25.2555738 L33.5712415,22.60173 L35.6310611,22.60173 C35.9875426,22.60173 36.2766813,22.3125914 36.2766813,21.9557749 C36.2766813,21.5992934 35.9875426,21.3101547 35.6310611,21.3101547 L33.5712415,21.3101547 L33.5712415,18.6559759 L35.6310611,18.6559759 C35.9875426,18.6559759 36.2766813,18.3668372 36.2766813,18.0103558 C36.2766813,17.6535393 35.9875426,17.3647356 35.6310611,17.3647356 L33.5712415,17.3647356 L33.5712415,14.8767361 L35.6310611,14.8767361 Z M31.211897,32.2803363 L29.7290144,32.2803363 C29.7132676,32.2789961 29.6971857,32.277991 29.6811038,32.277991 C29.6646869,32.277991 29.6489401,32.2789961 29.6328582,32.2803363 L25.9494396,32.2803363 C25.9333577,32.2789961 25.9176108,32.277991 25.901194,32.277991 C25.8851121,32.277991 25.8690302,32.2789961 25.8532834,32.2803363 L22.0036855,32.2803363 C21.9879386,32.2789961 21.9718567,32.277991 21.9557749,32.277991 C21.939358,32.277991 21.9236111,32.2789961 21.9075292,32.2803363 L18.0582663,32.2803363 C18.0421845,32.2789961 18.0264376,32.277991 18.0100207,32.277991 C17.9939389,32.277991 17.977857,32.2789961 17.9621101,32.2803363 L14.2786915,32.2803363 C14.2626096,32.2789961 14.2468628,32.277991 14.2304459,32.277991 C14.214364,32.277991 14.1982821,32.2789961 14.1822002,32.2803363 L12.6996528,32.2803363 C12.1119944,32.2803363 11.6338938,31.8012305 11.6338938,31.211897 L11.6338938,12.6999878 C11.6338938,12.1123294 12.1119944,11.6342288 12.6996528,11.6342288 L31.2115619,11.6342288 C31.8005604,11.6342288 32.2796661,12.1123294 32.2796661,12.6999878 L32.2796661,14.1828704 C32.2786611,14.1986172 32.2773209,14.2146991 32.2773209,14.230781 C32.2773209,14.2471979 32.2786611,14.2629447 32.2796661,14.2790266 L32.2796661,17.9624452 C32.2786611,17.978527 32.2773209,17.9942739 32.2773209,18.0106908 C32.2773209,18.0267726 32.2786611,18.0428545 32.2796661,18.0586014 L32.2796661,21.9078643 C32.2786611,21.9239461 32.2773209,21.939693 32.2773209,21.9561099 C32.2773209,21.9725268 32.2786611,21.9882736 32.2796661,22.0043555 L32.2796661,25.8536185 C32.2786611,25.8697003 32.2773209,25.8854471 32.2773209,25.9018641 C32.2773209,25.9179459 32.2786611,25.9340278 32.2796661,25.9497746 L32.2796661,29.6331932 C32.2786611,29.6492751 32.2773209,29.665022 32.2773209,29.6814389 C32.2773209,29.6978558 32.2786611,29.7136026 32.2796661,29.7296845 L32.2796661,31.212232 C32.2800012,31.8012305 31.8008954,32.2803363 31.211897,32.2803363 L31.211897,32.2803363 Z" id="Shape" fill="#645FC9"></path>
                </g>
            </g>
        </g>
    </g>
</svg>