<svg xmlns="http://www.w3.org/2000/svg" width="40" height="35" viewBox="0 0 40 35">
    <g fill="#0E0B4D" fill-rule="nonzero" opacity=".5">
        <path d="M25.573 27.156l-2.442-3.85a.586.586 0 0 0-.495-.271h-5.272c-.2 0-.387.102-.495.271l-2.443 3.85a.586.586 0 0 0 0 .628l2.443 3.85c.108.169.295.271.495.271h5.272c.2 0 .387-.102.495-.271l2.442-3.85a.586.586 0 0 0 0-.628zm-3.26 3.578h-4.627l-2.07-3.264 2.07-3.264h4.628l2.07 3.264-2.07 3.264z"/>
        <path d="M39.23 9.567l-.002-.002c-1.177-2.716-3.715-5.153-7.144-6.863C28.588.96 24.409.038 20 .038c-4.54 0-8.982 1.024-12.509 2.883a.586.586 0 0 0 .547 1.037C11.399 2.186 15.648 1.21 20 1.21c8.31 0 15.678 3.52 18.049 8.59l-.005.011c-.442.943-1.048 1.803-1.748 2.571-1.27-1.174-2.816-2.197-4.602-3.043a.586.586 0 1 0-.502 1.059c1.664.788 3.1 1.734 4.277 2.816-1.332 1.222-3.019 2.289-4.99 3.136-3.106 1.335-6.73 2.04-10.479 2.04-6.277 0-12.015-2.008-15.469-5.175C8.067 9.963 13.793 8.035 20 8.035c3.113 0 6.2.5 8.93 1.443a.586.586 0 0 0 .383-1.107c-2.85-.986-6.071-1.508-9.313-1.508-6.513 0-12.548 2.054-16.297 5.52-.7-.77-1.309-1.636-1.75-2.58L1.95 9.8C2.75 8.1 4.16 6.504 6.044 5.174a.586.586 0 0 0-.676-.958C3.222 5.73 1.633 7.58.772 9.565l-.001.002A9.125 9.125 0 0 0 0 13.213c0 5.475 5.1 10.346 12.779 12.293l-.304.48a2.781 2.781 0 0 0 0 2.968l2.5 3.94a2.757 2.757 0 0 0 2.34 1.287h5.37c.954 0 1.829-.481 2.34-1.286l2.5-3.94a2.781 2.781 0 0 0 0-2.97l-.304-.479c1.68-.426 3.261-1 4.713-1.71 2.43-1.187 4.447-2.748 5.834-4.512C39.228 17.426 40 15.327 40 13.213c0-1.239-.26-2.466-.77-3.646zm-12.694 18.76l-2.5 3.94a1.59 1.59 0 0 1-1.35.742h-5.372a1.59 1.59 0 0 1-1.35-.742l-2.5-3.94a1.605 1.605 0 0 1 0-1.713l.745-1.173 1.756-2.768a1.594 1.594 0 0 1 1.35-.742h5.37a1.6 1.6 0 0 1 1.35.742l1.65 2.601.85 1.34c.33.52.33 1.192 0 1.713zm5.353-6.987a3.981 3.981 0 0 1-.647 1.49 23.545 23.545 0 0 1-4.683 1.633l-1.534-2.418a2.76 2.76 0 0 0-2.34-1.286h-5.37a2.756 2.756 0 0 0-2.34 1.286l-1.534 2.418c-7.356-1.75-12.27-6.237-12.27-11.25 0-.65.083-1.295.246-1.932a12.47 12.47 0 0 0 1.854 2.345c1.342 1.345 2.95 2.426 4.645 3.272 3.496 1.743 7.675 2.664 12.084 2.664 3.777 0 7.44-.69 10.617-1.999l.016.014a3.997 3.997 0 0 1 1.256 3.763zm4.958-2.78c-.977 1.242-2.303 2.38-3.888 3.343l.008-.03a5.16 5.16 0 0 0 .115-2.113 5.162 5.162 0 0 0-1.311-2.71c2.668-1.277 5.186-3.133 6.76-5.683l.052-.085c.163.636.245 1.282.245 1.93 0 1.876-.667 3.675-1.981 5.347z"/>
    </g>
</svg>
