<svg xmlns="http://www.w3.org/2000/svg" width="16" height="16" viewBox="0 0 16 16">
    <path fill="#0E0B4D" fill-rule="nonzero" d="M1.262 13.145c-.058-.03-.116-.058-.174-.09a1.921 1.921 0 0 1-.76-.73 2.33 2.33 0 0 1-.262-1.748c.054-.233.141-.455.256-.667.134-.25.3-.476.494-.684.309-.332.668-.6 1.066-.818.3-.164.614-.294.94-.395.306-.094.6-.217.888-.357.362-.177.71-.38 1.055-.586.306-.182.609-.368.922-.536a5.75 5.75 0 0 1 .727-.338 2.64 2.64 0 0 1 .97-.186c.252.005.493.053.724.146.261.105.505.24.728.41.341.26.589.59.75.985.11.271.179.554.23.842.056.305.095.613.139.92.05.346.108.69.193 1.028.085.338.2.665.345.98.175.383.303.78.376 1.196.062.356.081.714.043 1.076-.03.282-.094.557-.2.822a2.49 2.49 0 0 1-.749 1.031c-.318.258-.68.42-1.08.5a2.44 2.44 0 0 1-.88.025 2.106 2.106 0 0 1-.307-.072c-.014-.005-.028-.008-.042-.011-.016.002-.027-.01-.041-.014-.012-.003-.021-.013-.035-.01l-.246-.106c-.006-.011-.02-.01-.03-.017l-.027-.012-.024-.01a3.389 3.389 0 0 1-.571-.361c-.307-.228-.595-.478-.897-.711a6.74 6.74 0 0 0-.767-.52 4.276 4.276 0 0 0-.582-.272 3.416 3.416 0 0 0-.496-.143c-.333-.074-.67-.12-1.008-.167-.357-.05-.714-.099-1.064-.185a2.562 2.562 0 0 1-.416-.133c-.027-.012-.057-.02-.084-.033-.035-.017-.073-.025-.104-.049zM13.386 2.152a1.7 1.7 0 0 1 .841 1.1c.083.32.08.638.024.954-.05.273-.14.532-.265.78-.23.455-.554.842-.97 1.163a3.154 3.154 0 0 1-.966.512 2.528 2.528 0 0 1-.994.123 1.906 1.906 0 0 1-.692-.187 1.674 1.674 0 0 1-.808-.826 2.004 2.004 0 0 1-.17-.95c.012-.227.056-.447.125-.662.047-.147.104-.29.174-.427.164-.326.378-.619.642-.88.28-.277.6-.506.972-.675a2.77 2.77 0 0 1 1-.253c.26-.015.518.014.772.093.009 0 .016.004.024.007l.023.01c.012.003.021.013.034.01l.158.068c.006.012.02.012.03.018l.024.01c.007.003.016.005.022.012zM.493 2.51c.065-.124.144-.239.233-.347a1.8 1.8 0 0 1 .621-.5 1.316 1.316 0 0 1 1.465.205c.205.18.357.4.468.648a2.6 2.6 0 0 1 .21 1.226 2.846 2.846 0 0 1-.232.973c-.085.193-.19.372-.322.537-.176.22-.383.4-.637.521a1.31 1.31 0 0 1-1.483-.217 1.908 1.908 0 0 1-.499-.744 2.552 2.552 0 0 1-.169-.874c-.007-.297.03-.591.116-.88l.047-.153c.005-.024.018-.045.023-.07.002-.01.007-.018.01-.027.004-.013.015-.023.014-.037l.081-.177c.018-.011.021-.031.03-.048.007-.013.01-.028.024-.036zm4.32-1.16c.16-.338.36-.62.638-.854C5.66.32 5.9.18 6.184.09a1.91 1.91 0 0 1 .971-.05c.343.07.642.221.904.44.23.192.406.414.54.658.216.39.314.79.327 1.197a2.677 2.677 0 0 1-.491 1.636 2.21 2.21 0 0 1-.899.735 1.962 1.962 0 0 1-1.69-.048 2.121 2.121 0 0 1-.659-.521 2.462 2.462 0 0 1-.488-.892 2.71 2.71 0 0 1 .115-1.893zM15.79 9.31l-.02.04a2.43 2.43 0 0 1-.748.831 2.97 2.97 0 0 1-.834.418c-.396.127-.811.18-1.253.129a2.345 2.345 0 0 1-.762-.217 1.735 1.735 0 0 1-.798-.742 1.49 1.49 0 0 1-.175-.814c.015-.248.083-.48.194-.7.244-.48.636-.845 1.147-1.114.173-.09.357-.164.55-.22a2.94 2.94 0 0 1 1.253-.093c.25.037.489.107.715.222.345.175.603.42.769.735.15.284.193.574.165.867a1.613 1.613 0 0 1-.115.467l-.02.04c-.024.05-.047.1-.068.15z" opacity=".9"/>
</svg>
