<?xml version="1.0" encoding="UTF-8"?>
<svg width="29px" height="29px" viewBox="0 0 29 29" version="1.1" xmlns="http://www.w3.org/2000/svg" xmlns:xlink="http://www.w3.org/1999/xlink">
    <!-- Generator: Sketch 57.1 (83088) - https://sketch.com -->
    <title>Icon_3</title>
    <desc>Created with Sketch.</desc>
    <defs>
        <circle id="path-1" cx="14.5" cy="14.5" r="14.5"></circle>
    </defs>
    <g id="Screens" stroke="none" stroke-width="1" fill="none" fill-rule="evenodd">
        <g id="Icon_3">
            <mask id="mask-2" fill="white">
                <use xlink:href="#path-1"></use>
            </mask>
            <use id="Oval" fill="#CBD8F6" xlink:href="#path-1"></use>
            <path d="M-6.96838602,39.968386 C-7.28785358,41.2817526 -6.93288963,42.7371048 -5.86799778,43.8019967 C-4.27066001,45.3993344 -1.67942318,45.3993344 -0.0820854132,43.8019967 C1.51525236,42.2046589 1.51525236,39.6134221 -0.0820854132,38.0160843 C-0.224070993,37.8740987 -0.330560177,37.7676095 -0.472545757,37.6611204 L12.6611204,24.5274542 C12.7676095,24.6694398 12.8740987,24.8114254 13.0160843,24.9179146 C14.6134221,26.5152524 17.2046589,26.5152524 18.8019967,24.9179146 C20.3993344,23.3205768 20.3993344,20.72934 18.8019967,19.1320022 C17.7726012,18.1026068 16.317249,17.7476428 14.968386,18.031614 C15.2878536,16.7182474 14.9328896,15.2628952 13.8679978,14.1980033 C12.27066,12.6006656 9.67942318,12.6006656 8.08208541,14.1980033 C6.48474764,15.7953411 6.48474764,18.3865779 8.08208541,19.9839157 C8.22407099,20.1259013 8.33056018,20.2323905 8.47254576,20.3388796 L-4.66112035,33.4725458 C-4.76760954,33.3305602 -4.87409872,33.1885746 -5.0160843,33.0820854 C-6.61342207,31.4847476 -9.2046589,31.4847476 -10.8019967,33.0820854 C-12.3993344,34.6794232 -12.3993344,37.27066 -10.8019967,38.8679978 C-9.73710483,39.8973932 -8.28175263,40.2523572 -6.96838602,39.968386 Z" id="Path" fill="#0E0B4D" fill-rule="nonzero" mask="url(#mask-2)"></path>
            <path d="M4.77371048,13.2262895 C4.53410982,14.2113145 4.80033278,15.3028286 5.59900166,16.1014975 C6.79700499,17.2995008 8.74043261,17.2995008 9.93843594,16.1014975 C11.1364393,14.9034942 11.1364393,12.9600666 9.93843594,11.7620632 C9.83194676,11.655574 9.75207987,11.5757072 9.64559068,11.4958403 L19.4958403,1.64559068 C19.5757072,1.75207987 19.655574,1.85856905 19.7620632,1.93843594 C20.9600666,3.13643927 22.9034942,3.13643927 24.1014975,1.93843594 C25.2995008,0.740432612 25.2995008,-1.20299501 24.1014975,-2.40099834 C23.3294509,-3.17304493 22.2379368,-3.43926789 21.2262895,-3.22628952 C21.4658902,-4.21131448 21.1996672,-5.30282862 20.4009983,-6.1014975 C19.202995,-7.29950083 17.2595674,-7.29950083 16.0615641,-6.1014975 C14.8635607,-4.90349418 14.8635607,-2.96006656 16.0615641,-1.76206323 C16.1680532,-1.65557404 16.2479201,-1.57570715 16.3544093,-1.49584027 L6.50415973,8.35440932 C6.42429285,8.24792013 6.34442596,8.14143095 6.23793677,8.06156406 C5.03993344,6.86356073 3.09650582,6.86356073 1.8985025,8.06156406 C0.700499168,9.25956739 0.700499168,11.202995 1.8985025,12.4009983 C2.69717138,13.1730449 3.78868552,13.4392679 4.77371048,13.2262895 Z" id="Path" fill="#0E0B4D" fill-rule="nonzero" mask="url(#mask-2)" transform="translate(13.000000, 5.000000) scale(-1, 1) translate(-13.000000, -5.000000) "></path>
        </g>
    </g>
</svg>