<svg xmlns="http://www.w3.org/2000/svg" width="20" height="12" viewBox="0 0 20 12">
    <path fill="#0E0B4D" fill-rule="nonzero" d="M9.997.03c-3.82 0-7.284 2.093-9.84 5.492a.793.793 0 0 0 0 .946c2.556 3.403 6.02 5.496 9.84 5.496 3.82 0 7.284-2.093 9.84-5.492a.793.793 0 0 0 0-.946C17.281 2.123 13.817.03 9.997.03zm.274 10.169a4.21 4.21 0 0 1-.548-8.404 4.21 4.21 0 0 1 4.47 4.476c-.135 2.093-1.832 3.793-3.922 3.928zm-.127-1.941A2.262 2.262 0 0 1 7.74 5.849a2.275 2.275 0 0 1 2.115-2.117 2.262 2.262 0 0 1 2.405 2.408 2.275 2.275 0 0 1-2.115 2.118z"/>
</svg>
