<svg xmlns="http://www.w3.org/2000/svg" width="34" height="42" viewBox="0 0 34 42">
    <g fill="#0E0B4D" fill-rule="nonzero" opacity=".5">
        <path d="M11.104 37.915c.163 0 .32-.065.435-.18l1.31-1.31a.614.614 0 1 0-.869-.869l-1.13 1.13h-.478a5.088 5.088 0 0 0-.463-1.615l1.39-.463a.614.614 0 0 0 .355-.308l.655-1.31a.614.614 0 1 0-1.099-.55l-.541 1.083-1.464.488a3.954 3.954 0 0 0-.85-.72 1.927 1.927 0 0 0-1.836-2.501 1.927 1.927 0 0 0-1.837 2.502 3.96 3.96 0 0 0-.85.72l-1.464-.489-.542-1.083a.615.615 0 0 0-1.099.55l.656 1.31c.072.146.2.257.355.308l1.39.463a5.085 5.085 0 0 0-.464 1.616h-.478l-1.13-1.13a.614.614 0 0 0-.868.868l1.31 1.31c.115.116.271.18.434.18h.733c.057.494.182.962.364 1.392h-.442a.615.615 0 0 0-.434.18l-1.31 1.31a.62.62 0 0 0-.033.834.62.62 0 0 0 .901.035l1.13-1.13h.948c.703.81 1.667 1.31 2.73 1.31 1.062 0 2.026-.5 2.728-1.31h.948l1.13 1.13a.62.62 0 0 0 .901-.035.62.62 0 0 0-.032-.833l-1.31-1.31a.614.614 0 0 0-.435-.18h-.442c.182-.43.307-.9.365-1.393h.732zM6.518 32.02a.697.697 0 1 1-.001 1.394.697.697 0 0 1 .001-1.394zm0 8.599c-1.467 0-2.661-1.488-2.661-3.317 0-1.303.607-2.47 1.555-3.013a1.914 1.914 0 0 0 2.213 0c.948.543 1.555 1.708 1.555 3.013 0 1.829-1.194 3.317-2.662 3.317zM30.43 7.21l2.808-2.808a2.583 2.583 0 0 0 0-3.648 2.583 2.583 0 0 0-3.648 0L26.78 3.563 23.973.754a.614.614 0 0 0-.869 0L20.788 3.07a.614.614 0 0 0 0 .869l2.345 2.345-3.083 3.083a.62.62 0 0 0 0 .869.62.62 0 0 0 .869 0l3.083-3.083 2.837 2.837-7.656 7.656h-5.675l5.155-5.155a.62.62 0 0 0 0-.868.62.62 0 0 0-.868 0l-9.052 9.051a.616.616 0 0 0-.115.16L6.82 24.45 5.5 25.77a1.942 1.942 0 0 0 0 2.72c.742.743 1.98.743 2.722 0l1.32-1.319 3.616-1.808a.616.616 0 0 0 .16-.115l14.39-14.39 2.345 2.345a.62.62 0 0 0 .869 0l2.316-2.316a.614.614 0 0 0 0-.869l-2.809-2.808zm-17.91 17.1l-3.617 1.808a.616.616 0 0 0-.16.115l-1.39 1.39a.703.703 0 0 1-.984 0 .703.703 0 0 1 0-.984l1.39-1.39a.616.616 0 0 0 .115-.16l1.808-3.617 2.597-2.597h5.675L12.52 24.31zM30.458 1.623a1.353 1.353 0 0 1 1.911 0 1.353 1.353 0 0 1 0 1.91l-2.808 2.81L27.65 4.43l2.808-2.808zm.03 10.278L22.09 3.505l1.447-1.448 8.397 8.397-1.448 1.447z"/>
    </g>
</svg>
