<?xml version="1.0" encoding="UTF-8"?>
<svg width="29px" height="29px" viewBox="0 0 29 29" version="1.1" xmlns="http://www.w3.org/2000/svg" xmlns:xlink="http://www.w3.org/1999/xlink">
    <!-- Generator: Sketch 57.1 (83088) - https://sketch.com -->
    <title>Icon_6</title>
    <desc>Created with Sketch.</desc>
    <defs>
        <circle id="path-1" cx="14.5" cy="14.5" r="14.5"></circle>
    </defs>
    <g id="Screens" stroke="none" stroke-width="1" fill="none" fill-rule="evenodd">
        <g id="Icon_6">
            <mask id="mask-2" fill="white">
                <use xlink:href="#path-1"></use>
            </mask>
            <use id="Oval" fill="#CBD8F6" xlink:href="#path-1"></use>
            <g id="dna" mask="url(#mask-2)" fill="#0E0B4D" fill-rule="nonzero">
                <g transform="translate(5.000000, 4.000000)" id="Path">
                    <path d="M2.4382,23.2647 C2.93935,22.13065 3.66505,21.025 4.5353,19.94115 L13.2844,19.94115 C12.7857,19.3886 12.24905,18.835 11.6841,18.2794 L5.9884,18.2794 C6.8545,17.3565 7.8033,16.4504 8.77065,15.55065 C8.61975,15.4133 8.4694,15.2763 8.3178,15.13845 C8.0562,14.9007 7.79425,14.66225 7.53255,14.4234 C3.58405,18.1003 0.02285,21.9709 0.02355,26.58825 L1.6853,26.58825 C1.6852,26.02675 1.75415,25.47325 1.879,24.9265 L16.394,24.9265 C16.2368,24.37 16.00625,23.8163 15.71325,23.26475 L2.4382,23.2647 Z"></path>
                    <path d="M11.2286,13.2933 C15.6336,9.2764 19.9639,5.0926 19.9647,0 L18.30295,0 C18.30295,0.5615 18.2339,1.115 18.1089,1.66175 L3.6129,1.66175 C3.77135,2.2209 3.98725,2.7756 4.27785,3.3235 L17.54955,3.3235 C17.0481,4.45755 16.3224,5.5632 15.45195,6.64705 L6.70385,6.64705 C7.2119,7.20955 7.7528,7.76265 8.3089,8.3088 L13.9984,8.3088 C12.7683,9.6192 11.38525,10.90205 9.9941,12.1693 C5.81665,8.3639 1.6853,4.42045 1.6853,0 L0.02355,0 C0.02435,5.35285 4.8084,9.702 9.43505,13.90835 C13.79555,17.87205 18.30375,21.9705 18.30295,26.58825 L19.9647,26.58825 C19.9655,21.4956 15.6344,17.3111 11.2286,13.2933 L11.2286,13.2933 Z"></path>
                </g>
            </g>
        </g>
    </g>
</svg>