<svg xmlns="http://www.w3.org/2000/svg" width="17" height="16" viewBox="0 0 17 16">
    <g fill="#0E0B4D" fill-rule="nonzero">
        <path d="M1.063 8.49v6.375c0 .586.477 1.062 1.062 1.062h5.313V8.49H1.063zM15.938 4.24h-3.362c.24-.165.448-.329.593-.475a2.22 2.22 0 0 0 0-3.126c-.833-.84-2.285-.837-3.117 0-.46.462-1.683 2.344-1.514 3.6h-.076C8.63 2.984 7.408 1.102 6.948.64c-.833-.837-2.285-.837-3.117 0a2.224 2.224 0 0 0 0 3.126c.145.146.352.31.593.475H1.062C.478 4.24 0 4.717 0 5.302v1.594c0 .293.238.531.531.531h6.907V5.302h2.125v2.125h6.906A.531.531 0 0 0 17 6.896V5.302c0-.585-.476-1.062-1.063-1.062zm-8.563-.035s-.045.035-.197.035c-.734 0-2.135-.763-2.593-1.224a1.159 1.159 0 0 1 0-1.628 1.128 1.128 0 0 1 1.61 0c.715.72 1.427 2.56 1.18 2.817zm2.446.035c-.151 0-.196-.034-.196-.035-.247-.256.464-2.097 1.18-2.817a1.159 1.159 0 0 1 1.61 0c.447.448.447 1.18 0 1.628-.458.46-1.86 1.224-2.594 1.224zM9.563 8.49v7.437h5.312c.586 0 1.063-.476 1.063-1.062V8.49H9.561z"/>
    </g>
</svg>
