<svg xmlns="http://www.w3.org/2000/svg" width="17" height="15" viewBox="0 0 17 15">
    <g fill="#0E0B4D" fill-rule="nonzero">
        <path d="M12.484 0C10.47 0 9.178 1.361 8.5 2.587 7.822 1.361 6.53 0 4.516 0 1.96 0 0 2.023 0 4.707c0 .7.144 1.346.408 1.967h3.8L5.066 5c.17-.33.722-.33.891 0l1.547 3.018.55-1.074c.17-.33.722-.33.892 0l.55 1.074L11.043 5c.169-.33.722-.33.89 0l.86 1.675h3.799A4.945 4.945 0 0 0 17 4.707C17 2.023 15.04 0 12.484 0z"/>
        <path d="M12.484 7.646a.5.5 0 0 1-.445-.268l-.55-1.075-1.547 3.019a.5.5 0 0 1-.446.268.5.5 0 0 1-.445-.268L8.5 8.247l-.55 1.075c-.17.329-.722.329-.892 0L5.512 6.303l-.55 1.075a.5.5 0 0 1-.446.268H.93c1.025 1.574 2.871 3.069 5.18 4.97a198.31 198.31 0 0 1 2.063 1.715.505.505 0 0 0 .652 0 199.07 199.07 0 0 1 2.063-1.714c2.309-1.902 4.155-3.397 5.18-4.97h-3.585z"/>
    </g>
</svg>
