<?xml version="1.0" encoding="UTF-8"?>
<svg width="29px" height="29px" viewBox="0 0 29 29" version="1.1" xmlns="http://www.w3.org/2000/svg" xmlns:xlink="http://www.w3.org/1999/xlink">
    <!-- Generator: Sketch 57.1 (83088) - https://sketch.com -->
    <title>Icon_1</title>
    <desc>Created with Sketch.</desc>
    <defs>
        <circle id="path-1" cx="14.5" cy="14.5" r="14.5"></circle>
    </defs>
    <g id="Screens" stroke="none" stroke-width="1" fill="none" fill-rule="evenodd">
        <g id="Icon_1">
            <mask id="mask-2" fill="white">
                <use xlink:href="#path-1"></use>
            </mask>
            <use id="Oval" fill="#CBD8F6" xlink:href="#path-1"></use>
            <path d="M9.82640573,11.4423501 C11.9535695,11.4423501 13.3650657,11.1019825 14.205576,10.7962368 C14.0836367,12.0401877 14.0976694,13.0500748 14.1107343,13.8946545 C14.1383158,15.740344 14.1513808,16.6663584 12.8129515,17.8332633 L12.6711728,17.9546838 L12.6334297,18.1351079 C12.5434269,18.5749525 11.7885643,22.4682114 13.0718306,24.0203461 L13.2378036,24.2046712 L17.6595558,24.2046712 L17.7229449,23.7370315 C17.7427843,23.5809891 17.901499,22.2156177 17.2434137,21.4592995 C16.9438881,21.1150309 16.5253265,20.94631 16.0366015,20.9784937 C16.0182138,20.6249601 16.1716057,20.019808 17.1021189,19.2829951 C18.7966885,17.9420053 20.5435177,16.5576163 21.0956319,14.284273 C22.4790626,14.7543509 25.9320746,15.8032486 29.171209,15.8032486 C30.1201099,15.8032486 30.9814273,15.7062097 31.7445159,15.5238351 L31.6651586,20.062232 C31.6588681,20.3830943 31.6356415,23.2099006 32.8376149,24.4470246 C33.211175,24.8322544 33.6805447,25 34.1958835,25 L37.9856804,25 L38.072296,24.5855123 C38.1027808,24.4250811 38.35295,23.0319147 37.6058297,22.1185788 C37.3464667,21.8016176 36.8572577,21.422727 36.0036824,21.422727 C35.8106118,21.422727 35.6044763,21.44272 35.3857597,21.481243 C35.5667332,19.7789175 36.1502999,15.7301037 37.6963164,14.2047889 C37.812933,14.0975097 40.4322091,11.6061946 39.9076764,5.54443342 L39.9062248,5.33328849 C41.2088465,5.17870895 44.1397453,4.64865228 45.0296121,2.97265894 C45.6451153,1.81258092 46.2528764,0.492559399 45.6668902,-0.493433774 C45.2667163,-1.16734207 44.4233026,-1.49454356 43.0892283,-1.49454356 C42.9222876,-1.49454356 42.7466369,-1.4891796 42.5617923,-1.47893931 C42.1582312,-2.2484236 40.9383541,-3.73326495 37.4616316,-3.9970742 L37.4190496,-4 L37.3754998,-3.9970742 C37.2927553,-3.98975971 35.5081829,-3.81031091 34.0594276,-0.925476283 C33.9220039,-0.746027476 33.7681281,-0.461737654 33.6974807,-0.124783508 C33.6781252,-0.077483143 33.657802,-0.0321333087 33.6389305,0.0156546888 C32.4084078,3.13113955 30.7336776,4.8193237 25.4104453,4.8193237 C25.2052775,4.8193237 24.9952709,4.81688554 24.7799416,4.81152158 C23.9500767,4.79201628 23.0108535,4.77056044 22.1809887,4.77056044 C19.3120273,4.77056044 16.8959834,4.95878664 15.4951328,6.74303442 C14.9507608,7.1687377 10.7765335,10.5 8.0063183,6.74303442 C7.86066855,6.58260329 7.08112785,5.77703418 6.22658479,5.83311194 C5.93576917,5.85261724 5.51865925,5.97940173 5.18719719,6.47239831 C4.99896545,6.75229944 4.85767068,7.2418826 5.25058629,7.98893578 C6.06545068,9.54058281 6.97534813,11.4433253 9.82640573,11.4423501 Z" id="Path" fill="#0E0B4D" mask="url(#mask-2)"></path>
        </g>
    </g>
</svg>