<?xml version="1.0" encoding="UTF-8"?>
<svg width="17px" height="17px" viewBox="0 0 17 17" version="1.1" xmlns="http://www.w3.org/2000/svg" xmlns:xlink="http://www.w3.org/1999/xlink">
    <!-- Generator: Sketch 53.2 (72643) - https://sketchapp.com -->
    <title>Path</title>
    <desc>Created with Sketch.</desc>
    <g id="Home" stroke="none" stroke-width="1" fill="none" fill-rule="evenodd">
        <g id="Breeder's_Card_Desktop" transform="translate(-581.000000, -1538.000000)" fill="#0E0B4D" fill-rule="nonzero">
            <g id="Group-25" transform="translate(575.000000, 1532.000000)">
                <g id="Group-30">
                    <path d="M22.7508428,15.9927451 L21.2247492,14.4993009 L22.7508428,13.0059343 C22.9722432,12.7994263 23.0459271,12.5413494 22.9722432,12.2316261 C22.8837993,11.9292643 22.6921127,11.7412374 22.3969896,11.6675067 L20.3176468,11.1364751 L20.9039026,9.078989 C20.9921916,8.77674343 20.9224592,8.51847283 20.6936594,8.30468087 C20.4799296,8.07601104 20.2218035,8.00596105 19.9193973,8.0944534 L17.8623688,8.68077339 L17.3312791,6.60116423 C17.2575564,6.29872494 17.0698213,6.11073679 16.7675701,6.03700608 C16.4650089,5.95579768 16.206999,6.02600265 15.9933079,6.24715606 L14.4999885,7.78480764 L13.006824,6.2471948 C12.792978,6.01860246 12.5349293,5.94855246 12.2326006,6.03704482 C11.9302719,6.11077554 11.7422656,6.29876368 11.6685429,6.60120298 L11.1375694,8.68081214 L9.08034726,8.09449215 C8.77801855,8.00596105 8.51996991,8.07604978 8.30612387,8.30471962 C8.0775178,8.51851157 8.00743674,8.77658846 8.09599689,9.07902775 L8.68217523,11.1365138 L6.60279366,11.6675455 C6.30786433,11.7412762 6.11610022,11.9292643 6.02769503,12.2316649 C5.95385616,12.5413881 6.02769503,12.799465 6.24886297,13.005973 L7.77515035,14.4993397 L6.24886297,15.9927451 C6.02769503,16.1991756 5.95397238,16.4573299 6.02769503,16.7668982 C6.11610022,17.0693375 6.30786433,17.2573257 6.60279366,17.3310951 L8.68217523,17.8619718 L8.09599689,19.9194966 C8.00743674,20.2218197 8.0775178,20.4798191 8.30612387,20.6938047 C8.51996991,20.9223583 8.77801855,20.9922533 9.08034726,20.9038385 L11.1376082,20.3177897 L11.6685817,22.3973214 C11.7423043,22.6996444 11.9302719,22.891352 12.2326394,22.9723667 C12.5423287,23.0460587 12.8004161,22.9723667 13.0068628,22.7512133 L14.500066,21.2247201 L15.9933854,22.7513295 C16.1408307,22.9133976 16.3287983,22.9944898 16.5572494,22.9944898 C16.6090838,22.9944898 16.6789712,22.9870896 16.7676863,22.9725217 C17.0699375,22.8839519 17.2577889,22.6922442 17.3315115,22.3973214 L17.8623301,20.3179059 L19.9195135,20.9041097 C20.2219584,20.9923696 20.4800846,20.9223971 20.6937756,20.6938047 C20.9224205,20.4798191 20.9924628,20.2217809 20.9040188,19.9194966 L20.317918,17.8619718 L22.3971059,17.3312114 C22.6923451,17.2575194 22.8838768,17.0693375 22.9723595,16.7670532 C23.0460821,16.4573687 22.9723595,16.1992143 22.7508428,15.9927451 Z" id="Path"></path>
                </g>
            </g>
        </g>
    </g>
</svg>