<svg xmlns="http://www.w3.org/2000/svg" width="34" height="42" viewBox="0 0 34 42">
    <g fill="#0E0B4D" fill-rule="nonzero" opacity=".5">
        <path d="M33.813 6.665L27.328.18a.614.614 0 1 0-.868.868l.955.956-4.69 4.69-2.346-2.345a.614.614 0 1 0-.868.869l.955.955-3.17 3.17a.614.614 0 1 0 .868.87l3.17-3.171 5.618 5.616-14.21 14.21H8.618l-1.493-1.493V21.25l9.085-9.085a.614.614 0 1 0-.869-.868l-9.264 9.265a.614.614 0 0 0-.18.434v4.378l-2.6 2.6a.614.614 0 0 0 0 .868l.492.492-1.881 1.882a.62.62 0 0 0-.033.834.62.62 0 0 0 .901.035l1.882-1.882.492.492a.62.62 0 0 0 .869 0l2.6-2.6h4.377c.163 0 .32-.064.435-.18l14.39-14.389.955.956a.62.62 0 0 0 .9-.036.62.62 0 0 0-.032-.833L27.3 11.269l4.69-4.69.956.955a.62.62 0 0 0 .901-.035.62.62 0 0 0-.033-.834zM5.584 29.393L4.6 28.41l1.911-1.911.984.984-1.91 1.911zM26.431 10.4l-2.838-2.837 4.69-4.69 2.838 2.837-4.69 4.69z"/>
        <path d="M22.695 13.15l-1.852-1.852a.614.614 0 1 0-.869.868l1.853 1.853a.62.62 0 0 0 .901-.035.62.62 0 0 0-.033-.833zM19.916 15.93l-1.853-1.853a.614.614 0 1 0-.868.869l1.853 1.853a.62.62 0 0 0 .9-.036.62.62 0 0 0-.032-.833zM17.137 18.71l-1.853-1.853a.614.614 0 1 0-.869.868l1.853 1.853c.12.12.277.18.434.18.537 0 .813-.67.435-1.048zM14.377 21.47l-1.853-1.853a.614.614 0 1 0-.869.868l1.853 1.853c.12.12.277.18.434.18.537 0 .813-.67.435-1.048zM11.616 24.23l-1.853-1.853a.614.614 0 1 0-.868.869l1.853 1.852a.62.62 0 0 0 .901-.035.62.62 0 0 0-.033-.833zM3.094 34.987a.614.614 0 0 0-1.011 0c-.346.501-2.074 3.064-2.074 4.28a2.583 2.583 0 0 0 2.58 2.58 2.583 2.583 0 0 0 2.579-2.58c0-1.216-1.728-3.779-2.074-4.28zm-.506 5.63a1.353 1.353 0 0 1-1.35-1.35c0-.448.634-1.676 1.35-2.815.717 1.138 1.351 2.367 1.351 2.815 0 .745-.606 1.35-1.35 1.35z"/>
    </g>
</svg>
