<?xml version="1.0" encoding="UTF-8"?>
<svg width="29px" height="29px" viewBox="0 0 29 29" version="1.1" xmlns="http://www.w3.org/2000/svg" xmlns:xlink="http://www.w3.org/1999/xlink">
    <!-- Generator: Sketch 57.1 (83088) - https://sketch.com -->
    <title>Icon_2</title>
    <desc>Created with Sketch.</desc>
    <defs>
        <circle id="path-1" cx="14.5" cy="14.5" r="14.5"></circle>
    </defs>
    <g id="Screens" stroke="none" stroke-width="1" fill="none" fill-rule="evenodd">
        <g id="Icon_2">
            <mask id="mask-2" fill="white">
                <use xlink:href="#path-1"></use>
            </mask>
            <use id="Oval" fill="#CBD8F6" xlink:href="#path-1"></use>
            <path d="M3.65903097,44.595803 C3.33956342,45.9091696 3.69452737,47.3645218 4.75941922,48.4294137 C6.35675699,50.0267514 8.94799381,50.0267514 10.5453316,48.4294137 C12.1426694,46.8320759 12.1426694,44.2408391 10.5453316,42.6435013 C10.403346,42.5015157 10.2968568,42.3950265 10.1548712,42.2885374 L23.2885374,29.1548712 C23.3950265,29.2968568 23.5015157,29.4388424 23.6435013,29.5453316 C25.2408391,31.1426694 27.8320759,31.1426694 29.4294137,29.5453316 C31.0267514,27.9479938 31.0267514,25.356757 29.4294137,23.7594192 C28.4000182,22.7300238 26.944666,22.3750598 25.595803,22.659031 C25.9152706,21.3456644 25.5603066,19.8903122 24.4954148,18.8254203 C22.898077,17.2280826 20.3068402,17.2280826 18.7095024,18.8254203 C17.1121646,20.4227581 17.1121646,23.0139949 18.7095024,24.6113327 C18.851488,24.7533183 18.9579772,24.8598075 19.0999628,24.9662966 L5.96629664,38.0999628 C5.85980746,37.9579772 5.75331827,37.8159916 5.61133269,37.7095024 C4.01399492,36.1121646 1.4227581,36.1121646 -0.174579674,37.7095024 C-1.77191744,39.3068402 -1.77191744,41.898077 -0.174579674,43.4954148 C0.890312173,44.5248102 2.34566436,44.8797742 3.65903097,44.595803 Z" id="Path" fill="#0E0B4D" fill-rule="nonzero" mask="url(#mask-2)" transform="translate(14.627417, 33.627417) rotate(-45.000000) translate(-14.627417, -33.627417) "></path>
            <rect id="Rectangle" fill="#0E0B4D" mask="url(#mask-2)" x="12" y="13" width="6" height="2" rx="1"></rect>
            <path d="M3.65903097,5.59580302 C3.33956342,6.90916963 3.69452737,8.36452182 4.75941922,9.42941367 C6.35675699,11.0267514 8.94799381,11.0267514 10.5453316,9.42941367 C12.1426694,7.8320759 12.1426694,5.24083907 10.5453316,3.6435013 C10.403346,3.50151572 10.2968568,3.39502654 10.1548712,3.28853735 L23.2885374,-9.84512876 C23.3950265,-9.70314318 23.5015157,-9.5611576 23.6435013,-9.45466842 C25.2408391,-7.85733064 27.8320759,-7.85733064 29.4294137,-9.45466842 C31.0267514,-11.0520062 31.0267514,-13.643243 29.4294137,-15.2405808 C28.4000182,-16.2699762 26.944666,-16.6249402 25.595803,-16.340969 C25.9152706,-17.6543356 25.5603066,-19.1096878 24.4954148,-20.1745797 C22.898077,-21.7719174 20.3068402,-21.7719174 18.7095024,-20.1745797 C17.1121646,-18.5772419 17.1121646,-15.9860051 18.7095024,-14.3886673 C18.851488,-14.2466817 18.9579772,-14.1401925 19.0999628,-14.0337034 L5.96629664,-0.900037245 C5.85980746,-1.04202282 5.75331827,-1.1840084 5.61133269,-1.29049759 C4.01399492,-2.88783536 1.4227581,-2.88783536 -0.174579674,-1.29049759 C-1.77191744,0.306840182 -1.77191744,2.89807701 -0.174579674,4.49541478 C0.890312173,5.52481023 2.34566436,5.87977418 3.65903097,5.59580302 Z" id="Path" fill="#0E0B4D" fill-rule="nonzero" mask="url(#mask-2)" transform="translate(14.627417, -5.372583) rotate(-45.000000) translate(-14.627417, 5.372583) "></path>
        </g>
    </g>
</svg>