<?xml version="1.0" encoding="UTF-8"?>
<svg width="29px" height="29px" viewBox="0 0 29 29" version="1.1" xmlns="http://www.w3.org/2000/svg" xmlns:xlink="http://www.w3.org/1999/xlink">
    <!-- Generator: Sketch 57.1 (83088) - https://sketch.com -->
    <title>Icon_4</title>
    <desc>Created with Sketch.</desc>
    <defs>
        <circle id="path-1" cx="14.5" cy="14.5" r="14.5"></circle>
    </defs>
    <g id="Screens" stroke="none" stroke-width="1" fill="none" fill-rule="evenodd">
        <g id="Icon_4">
            <mask id="mask-2" fill="white">
                <use xlink:href="#path-1"></use>
            </mask>
            <use id="Oval" fill="#CBD8F6" xlink:href="#path-1"></use>
            <g id="heartbeat" mask="url(#mask-2)" fill="#0E0B4D">
                <g transform="translate(4.000000, 6.000000)" id="Path">
                    <path d="M15.04,0 C12.61364,0 11.0562,1.68048 10.24,3.19396 C9.4238,1.68044 7.86636,0 5.44,0 C2.36148,0 0,2.49784 0,5.81072 C0,6.67512 0.17308,7.47316 0.49176,8.24 L5.06912,8.24 L6.10328,6.17164 C6.3072,5.765 6.9728,5.765 7.17672,6.17164 L9.04,9.89824 L9.70328,8.57168 C9.9072,8.16504 10.5728,8.16504 10.77672,8.57168 L11.44,9.89824 L13.30328,6.17168 C13.5072,5.76504 14.1728,5.76504 14.37672,6.17168 L15.41088,8.24 L19.98824,8.24 C20.30692,7.47316 20.48,6.67512 20.48,5.81072 C20.48,2.49784 18.11852,0 15.04,0 Z"></path>
                    <path d="M15.04,9.44 C14.81264,9.44 14.60524,9.31168 14.50328,9.10836 L13.84,7.7818 L11.97672,11.50836 C11.87476,11.71168 11.66736,11.84 11.44,11.84 C11.21264,11.84 11.00524,11.71168 10.90328,11.50836 L10.24,10.1818 L9.57672,11.50836 C9.3728,11.915 8.7072,11.915 8.50328,11.50836 L6.64,7.7818 L5.97672,9.10836 C5.87476,9.31168 5.66736,9.44 5.44,9.44 L1.12148,9.44 C2.3564,11.38296 4.58044,13.22852 7.36244,15.57652 C8.14348,16.23568 8.97436,16.93708 9.8468,17.69352 C9.95988,17.79136 10.09992,17.84 10.23996,17.84 C10.38,17.84 10.52004,17.79136 10.63312,17.69352 C11.5056,16.93708 12.33644,16.23572 13.11748,15.57652 C15.89952,13.22852 18.12352,11.38296 19.35844,9.44 L15.04,9.44 Z"></path>
                </g>
            </g>
        </g>
    </g>
</svg>