<?xml version="1.0" encoding="UTF-8"?>
<svg width="29px" height="29px" viewBox="0 0 29 29" version="1.1" xmlns="http://www.w3.org/2000/svg" xmlns:xlink="http://www.w3.org/1999/xlink">
    <!-- Generator: Sketch 57.1 (83088) - https://sketch.com -->
    <title>Icon_5</title>
    <desc>Created with Sketch.</desc>
    <defs>
        <circle id="path-1" cx="14.5" cy="14.5" r="14.5"></circle>
    </defs>
    <g id="Screens" stroke="none" stroke-width="1" fill="none" fill-rule="evenodd">
        <g id="Icon_5">
            <mask id="mask-2" fill="white">
                <use xlink:href="#path-1"></use>
            </mask>
            <use id="Oval" fill="#CBD8F6" xlink:href="#path-1"></use>
            <g id="vaccine" mask="url(#mask-2)" fill="#0E0B4D" fill-rule="nonzero">
                <g transform="translate(8.000000, 4.000000)" id="Path">
                    <path d="M4.853251,25.0569924 L4.853251,17.2195177 L13,17.2195177 L13,16.9459645 C13,15.828236 12.521908,14.7484772 11.6881138,13.9839086 L10.8704178,13.2340102 L10.8704178,12 L2.12958218,12 L2.12958218,13.2340102 L1.31166562,13.9839086 C0.478091974,14.7484772 0,15.828236 0,16.9459645 L0,29 L13,29 L13,25.0569924 L4.853251,25.0569924 Z"></path>
                    <polygon points="6 19 13 19 13 26 6 26"></polygon>
                    <path d="M13,10 L13,5.98693517 L9.87292125,5.98693517 L9.87292125,2.84081982 C9.87292125,1.27438434 8.58408534,0 6.99988649,0 C5.4159146,0 4.1270787,1.27438434 4.1270787,2.84081982 L4.1270787,5.98693517 L1,5.98693517 L1,10 L13,10 Z"></path>
                </g>
            </g>
        </g>
    </g>
</svg>