<?xml version="1.0" encoding="UTF-8"?>
<svg width="46px" height="40px" viewBox="0 0 46 40" version="1.1" xmlns="http://www.w3.org/2000/svg" xmlns:xlink="http://www.w3.org/1999/xlink">
    <!-- Generator: Sketch 55.2 (78181) - https://sketchapp.com -->
    <title>pet@1,5x</title>
    <desc>Created with Sketch.</desc>
    <g id="Home" stroke="none" stroke-width="1" fill="none" fill-rule="evenodd">
        <g id="Artboard" transform="translate(-582.000000, -65.000000)" fill-rule="nonzero">
            <g id="Group-14" transform="translate(500.000000, 40.000000)">
                <g id="pet" transform="translate(82.000000, 25.000000)">
                    <path d="M44.8814988,11.195781 C44.0950798,7.5475784 42.1599004,4.52050282 39.4416814,2.66291653 C36.8442156,0.887885745 33.7916523,0.350272845 30.5829194,1.10858004 C30.098299,1.22299928 29.6554828,1.36490118 29.2250747,1.54351409 C29.225978,1.54318416 29.2230257,1.54444619 29.2170099,1.54701779 C27.6229948,2.21102592 26.7121946,2.9982976 24.2777251,5.59283239 C23.902071,5.99305025 23.7533585,6.15111005 23.5442231,6.37173422 L22.999915,6.94594363 L22.4556018,6.37173901 C22.2461486,6.15078357 22.0954246,5.9905465 21.7218331,5.59238413 C20.7384943,4.54440778 20.3324226,4.12335009 19.8244612,3.64196176 C18.3653159,2.25914895 17.1108855,1.50883372 15.4168254,1.10854097 C12.2081524,0.350203131 9.15549303,0.887843178 6.55805472,2.66291268 C3.83976977,4.52054401 1.90454649,7.54765532 1.11823276,11.1957757 C0.313108966,14.9311057 0.837895284,18.9343321 2.59807456,22.4641702 C3.93008865,25.1356748 7.11043393,28.4026781 12.0449269,32.1299051 C13.7257515,33.3994364 15.4061267,34.5669536 16.9707137,35.5869161 C17.6332125,36.0187474 19.1623475,36.9507123 20.5709289,37.7812656 C21.307114,38.2153484 21.9558721,38.5896325 22.4367899,38.8568353 C22.6908848,38.998013 22.8946409,39.1073545 23.039457,39.180176 C23.0464991,39.1837171 23.0533712,39.1871562 23.0600687,39.1904913 C23.7448277,38.7770947 30.0720146,34.8168679 31.9719194,33.4583069 C38.1140575,29.0662001 41.9648049,25.3459359 43.4017445,22.4642627 C45.1618126,18.9342156 45.6865908,14.9310594 44.8814988,11.195781 Z M29.2250747,1.54351409 C29.2239215,1.54399266 29.2227684,1.54447148 29.2216154,1.54495057 L29.2285264,1.54205932 C29.228672,1.54201447 29.2287461,1.54199163 29.2273876,1.54257687 Z" id="Path" stroke="#0E0B4D" stroke-width="1.5"></path>
                    <path d="M31.8510469,14.8495495 C31.4206953,14.2001802 30.7490234,13.7746847 29.9597461,13.6512613 C29.7242656,13.6143243 29.4893242,13.6063063 29.2585156,13.6246847 C29.3822305,13.2281982 29.4494336,12.8034234 29.4494336,12.3617117 C29.4494336,10.2004505 27.8414102,8.44216216 25.8647578,8.44216216 C24.6949922,8.44216216 23.654332,9.05765766 22.9994609,10.0079279 C22.3446797,9.05765766 21.3042891,8.44216216 20.134793,8.44216216 C18.1581406,8.44216216 16.5501172,10.2004505 16.5501172,12.3617117 C16.5501172,12.8027027 16.6171406,13.2269369 16.7404961,13.6228829 C16.5165156,13.6066667 16.2888516,13.6154054 16.0605586,13.6511712 C15.270832,13.7745045 14.5988008,14.2002703 14.1683594,14.8500901 C13.7099766,15.5420721 13.5761094,16.4014414 13.7914648,17.2696396 C14.0696211,18.3935135 14.8791133,19.2644144 15.871168,19.639009 C15.2729883,20.5199099 14.9343672,21.5755856 14.9343672,22.6853153 C14.9343672,25.6728829 17.3585312,28.103491 20.3383789,28.103491 C20.345207,28.103491 20.3523945,28.103491 20.3585039,28.103491 C21.2941367,28.103491 22.1959883,27.8654054 22.9997305,27.4103604 C23.8034727,27.8654054 24.7053242,28.103491 25.640957,28.103491 C25.647875,28.103491 25.655332,28.103491 25.6611719,28.103491 C28.6410195,28.103491 31.0651836,25.6728829 31.0651836,22.6853153 C31.0651836,21.578018 30.7280898,20.5245045 30.1324258,19.6448649 C31.1317578,19.2736036 31.9486172,18.3995495 32.2288398,17.2696396 C32.4438359,16.400991 32.3096992,15.5415315 31.8510469,14.8495495 Z M25.8648477,10.2440541 C26.8507031,10.2440541 27.6526484,11.1940541 27.6526484,12.3618018 C27.6526484,13.5294595 26.8506133,14.4793694 25.8648477,14.4793694 C25.6998047,14.4793694 25.5399727,14.4527027 25.3881367,14.402973 C25.2842773,14.3518018 25.1787109,14.3040541 25.0718867,14.2597297 C24.482332,13.9130631 24.0761484,13.1925225 24.0761484,12.3618018 C24.0760586,11.1940541 24.878543,10.2440541 25.8648477,10.2440541 Z M20.134793,10.2440541 C21.1206484,10.2440541 21.9226836,11.1940541 21.9226836,12.3618018 C21.9226836,13.192973 21.5162305,13.9137838 20.9264961,14.2602703 C20.8202109,14.3044144 20.7152734,14.351982 20.6119531,14.4028829 C20.4600273,14.4527928 20.3000156,14.4794595 20.134793,14.4794595 C19.1489375,14.4794595 18.3469922,13.5295495 18.3469922,12.3618919 C18.3469922,11.1940541 19.1490273,10.2440541 20.134793,10.2440541 Z M15.535332,16.8353153 C15.4430625,16.4636036 15.4892422,16.1126126 15.6650664,15.8471171 C15.8151953,15.6204505 16.0476211,15.4768468 16.3376367,15.4315315 C16.4016055,15.4215315 16.4656641,15.4166667 16.5291836,15.4166667 C17.1700391,15.4166667 17.770375,15.9125225 17.94575,16.62 C18.0081914,16.8721622 18.0070234,17.1146847 17.9450312,17.3272973 C17.9272422,17.3735135 17.9101719,17.42 17.8936406,17.4667568 C17.8714492,17.5159459 17.8454844,17.5631532 17.8159258,17.6077477 C17.6658867,17.8342342 17.4332812,17.9778378 17.1430859,18.0232432 C16.4332305,18.1340541 15.7276875,17.6125225 15.535332,16.8353153 Z M25.6712344,26.3016216 C25.6638672,26.3014414 25.6563203,26.3013514 25.6503906,26.3013514 C25.6432031,26.3013514 25.6360156,26.3014414 25.628918,26.3016216 C24.8691094,26.2990991 24.143082,26.0609009 23.5286406,25.6124324 C23.2134687,25.3823423 22.7861719,25.3823423 22.4710898,25.6124324 C21.8563789,26.0610811 21.1299922,26.2993694 20.3697344,26.3016216 C20.353832,26.3012613 20.3408047,26.3013514 20.327418,26.3016216 C18.3433984,26.2956757 16.731332,24.6757658 16.731332,22.6853153 C16.731332,21.2477477 17.5834102,19.9458559 18.9022266,19.3685586 C19.1820898,19.246036 19.3808242,18.9892793 19.4296094,18.6869369 C19.4611445,18.4918919 19.508582,18.3022523 19.5703047,18.1192793 C19.5964492,18.0558559 19.6202578,17.9915315 19.6417305,17.9263964 C19.9745117,17.1017117 20.6047656,16.4295495 21.3862266,16.0346847 C21.4729258,15.9992793 21.5580078,15.9603604 21.6413828,15.9179279 C22.058707,15.7462162 22.5117891,15.6511712 22.9807734,15.65 C22.9958672,15.6502703 23.0077266,15.6502703 23.0198555,15.65 C23.4878516,15.6513514 23.9399453,15.746036 24.3564609,15.9172072 C24.4407344,15.9600901 24.5268047,15.9994595 24.6144922,16.0352252 C25.6242461,16.5457658 26.3815391,17.5195495 26.5701211,18.6869369 C26.6189062,18.9891892 26.8176406,19.246036 27.0975039,19.3685586 C28.4163203,19.9459459 29.2683984,21.2478378 29.2683984,22.6853153 C29.2683984,24.6759459 27.6556133,26.2961261 25.6712344,26.3016216 Z M30.4849727,16.8352252 C30.2922578,17.6123423 29.5851875,18.1345045 28.8765,18.0231532 C28.5863047,17.9778378 28.3536094,17.8340541 28.2036602,17.6076577 C28.0281055,17.3426126 27.9822852,16.9918919 28.0746445,16.6195495 C28.2494805,15.9122523 28.8495469,15.4164865 29.4904023,15.4164865 C29.5539219,15.4164865 29.6179805,15.4213514 29.6820391,15.4314414 C29.6823086,15.4315315 29.6824883,15.4315315 29.6827578,15.4315315 C29.9721445,15.4766667 30.2044805,15.6203604 30.3546094,15.8468468 C30.5306133,16.1126126 30.5769727,16.4636937 30.4849727,16.8352252 Z" id="Shape" fill="#645FC9"></path>
                </g>
            </g>
        </g>
    </g>
</svg>