<?xml version="1.0" encoding="UTF-8"?>
<svg width="7px" height="11px" viewBox="0 0 7 11" version="1.1" xmlns="http://www.w3.org/2000/svg" xmlns:xlink="http://www.w3.org/1999/xlink">
    <!-- Generator: Sketch 53.2 (72643) - https://sketchapp.com -->
    <title>?</title>
    <desc>Created with Sketch.</desc>
    <g id="Home" stroke="none" stroke-width="1" fill="none" fill-rule="evenodd">
        <g id="Breeder's_Card_Desktop" transform="translate(-896.000000, -727.000000)" fill="#0E0B4D" fill-rule="nonzero">
            <g id="Group-12" transform="translate(574.000000, 721.000000)">
                <g id="Group-10" transform="translate(316.000000, 1.000000)">
                    <path d="M10.4275862,12.937931 L8.85517241,12.937931 C8.74482759,10.3172414 10.6482759,10.1241379 11.0344828,8.60689655 C11.1862069,7.46206897 10.4413793,6.86896552 9.54482759,6.86896552 C8.85517241,6.86896552 8.15172414,7.35172414 8.04137931,8.17931034 L6.70344828,8.17931034 C6.77241379,6.34482759 7.93103448,5.46206897 9.53103448,5.46206897 C11.0482759,5.42068966 12.3448276,6.28965517 12.5655172,7.5862069 C12.6206897,7.91724138 12.6344828,8.22068966 12.5931034,8.49655172 C12.3724138,10.3310345 10.3724138,10.6206897 10.4275862,12.937931 Z M9.64137931,15.3517241 C9.13103448,15.3517241 8.71724138,15.0068966 8.71724138,14.5103448 C8.71724138,14 9.13103448,13.6689655 9.64137931,13.6689655 C10.1517241,13.6689655 10.537931,14 10.537931,14.5103448 C10.537931,15.0068966 10.1517241,15.3517241 9.64137931,15.3517241 Z" id="?"></path>
                </g>
            </g>
        </g>
    </g>
</svg>