<?xml version="1.0" encoding="UTF-8"?>
<svg width="29px" height="29px" viewBox="0 0 29 29" version="1.1" xmlns="http://www.w3.org/2000/svg" xmlns:xlink="http://www.w3.org/1999/xlink">
    <!-- Generator: Sketch 57.1 (83088) - https://sketch.com -->
    <title>Icon_7</title>
    <desc>Created with Sketch.</desc>
    <defs>
        <circle id="path-1" cx="14.5" cy="14.5" r="14.5"></circle>
    </defs>
    <g id="Screens" stroke="none" stroke-width="1" fill="none" fill-rule="evenodd">
        <g id="Icon_7">
            <mask id="mask-2" fill="white">
                <use xlink:href="#path-1"></use>
            </mask>
            <use id="Oval" fill="#CBD8F6" xlink:href="#path-1"></use>
            <path d="M23.9643542,15.9808098 C23.7961206,15.0502971 23.4938703,14.084617 23.0642567,12.9953754 C22.9587542,12.7292431 22.135645,10.8026351 22.0938242,10.6039864 C22.0558053,10.426248 21.9322438,9.82079696 21.9331943,9.82269791 C21.5701138,8.06242268 21.2203399,7.37618147 20.2033342,7.37618147 C18.2444102,7.37618147 17.4488646,9.51284385 17.3614212,15.6624015 C17.0629728,15.8648521 16.7379111,16.0178782 16.4014439,16.148093 L16.4014439,5.47523629 C16.4014439,5.21290586 16.188538,5 15.9262076,5 L13.0747898,5 C12.8124594,5 12.5995535,5.21290586 12.5995535,5.47523629 L12.5995535,16.148093 C12.2640367,16.0178782 11.9389751,15.8648521 11.6405267,15.6624015 C11.5521327,9.51284385 10.7565872,7.37618147 8.79766315,7.37618147 C7.62002762,7.37618147 7.25979851,8.26772476 6.87675805,10.6267977 C6.84539246,10.8187932 5.96715579,12.9326442 5.92913688,13.0305429 C5.509028,14.1150321 5.2143815,15.0712075 5.05185069,15.9903145 C4.37701515,19.788403 6.15629983,22.1085066 11.1738446,22.1085066 C11.7023074,22.1085066 12.0891497,22.008707 12.5995535,21.7796431 L12.5995535,23.5342155 C12.5995535,23.7955954 12.8124594,24.0094518 13.0747898,24.0094518 L15.9262076,24.0094518 C16.188538,24.0094518 16.4014439,23.7955954 16.4014439,23.5342155 L16.4014439,21.7786926 C16.9118476,22.008707 17.2977395,22.1085066 17.8271527,22.1085066 C22.8646574,22.1085066 24.6515459,19.7827002 23.9643542,15.9808098 Z" id="Path" fill="#0E0B4D" fill-rule="nonzero" mask="url(#mask-2)"></path>
        </g>
    </g>
</svg>