<?xml version="1.0" encoding="UTF-8"?>
<svg width="44px" height="37px" viewBox="0 0 44 37" version="1.1" xmlns="http://www.w3.org/2000/svg" xmlns:xlink="http://www.w3.org/1999/xlink">
    <!-- Generator: Sketch 55.2 (78181) - https://sketchapp.com -->
    <title>vision@1,5x</title>
    <desc>Created with Sketch.</desc>
    <g id="Home" stroke="none" stroke-width="1" fill="none" fill-rule="evenodd">
        <g id="Artboard" transform="translate(-353.000000, -63.000000)" fill-rule="nonzero">
            <g id="Group-14" transform="translate(270.000000, 40.000000)">
                <g id="vision" transform="translate(83.000000, 23.000000)">
                    <path d="M43.886975,18.152606 C39.3039167,10.7929277 31.3598083,6.23703741 22.7332417,6.02103491 L22.7332417,0.0921770574 L21.266575,0.0921770574 L21.266575,6.02103491 C12.6400083,6.23703741 4.6959,10.7929277 0.112841667,18.152606 C-0.0375833333,18.3930599 -0.0375833333,18.6990249 0.112841667,18.9394788 C4.6959,26.2991571 12.6400083,30.8550474 21.266575,31.0710499 L21.266575,36.9999077 L22.7332417,36.9999077 L22.7332417,31.0710499 C31.3598083,30.8550474 39.3039167,26.2991571 43.886975,18.9394788 C44.0374917,18.6990249 44.0374917,18.3930599 43.886975,18.152606 Z M1.605175,18.5460424 C4.5991,13.93802 9.05153333,10.482995 14.2405083,8.74113466 C11.47465,10.958182 9.77661667,14.2549651 9.57064167,17.8078878 L3.666575,17.8078878 L3.666575,19.284197 L9.57064167,19.284197 C9.77661667,22.8371197 11.47465,26.1339027 14.2405083,28.3509501 C9.05153333,26.6090898 4.5991,23.1540648 1.605175,18.5460424 Z M21.266575,25.1894339 L21.266575,29.5807157 C15.77895,29.2055486 11.410025,24.8079002 11.0373083,19.284197 L15.3999083,19.284197 L15.3999083,17.8078878 L11.0373083,17.8078878 C11.410025,12.2841845 15.77895,7.88653616 21.266575,7.51136908 L21.266575,11.9026509 L22.7332417,11.9026509 L22.7332417,7.51136908 C28.2208667,7.88653616 32.5897917,12.2840923 32.9625083,17.8078878 L28.5999083,17.8078878 L28.5999083,19.284197 L32.9625083,19.284197 C32.5897917,24.8079002 28.2208667,29.2055486 22.7332417,29.5807157 L22.7332417,25.1894339 L21.266575,25.1894339 Z M42.3946417,18.5460424 C39.4007167,23.1540648 34.9482833,26.6090898 29.7593083,28.3509501 C32.5251667,26.1339027 34.2232,22.8371197 34.429175,19.284197 L40.3332417,19.284197 L40.3332417,17.8078878 L34.429175,17.8078878 C34.2232,14.2549651 32.5251667,10.9580898 29.7593083,8.74113466 C34.948375,10.4830873 39.4007167,13.93802 42.3946417,18.5460424 L42.3946417,18.5460424 Z" id="Shape" fill="#0E0B4D"></path>
                    <path d="M21.9999083,22.2368155 C19.9749,22.2368155 18.3332417,20.5843641 18.3332417,18.5460424 C18.335625,16.5087357 19.9759083,14.8576683 21.9999083,14.8552693 C24.0249167,14.8552693 25.666575,16.5077207 25.666575,18.5460424 C25.666575,20.5843641 24.0250083,22.2368155 21.9999083,22.2368155 Z" id="Shape" fill="#645FC9"></path>
                    <path d="M4.39990833,0.0921770574 C3.994925,0.0921770574 3.666575,0.422685786 3.666575,0.830331671 L3.666575,6.73556858 L5.13324167,6.73556858 L5.13324167,1.56848628 L10.266575,1.56848628 L10.266575,0.0921770574 L4.39990833,0.0921770574 Z" id="Path" fill="#0E0B4D"></path>
                    <path d="M39.5999083,0.0921770574 L33.7332417,0.0921770574 L33.7332417,1.56848628 L38.866575,1.56848628 L38.866575,6.73556858 L40.3332417,6.73556858 L40.3332417,0.830331671 C40.3332417,0.422685786 40.0048917,0.0921770574 39.5999083,0.0921770574 Z" id="Path" fill="#0E0B4D"></path>
                    <path d="M38.866575,30.3565162 L38.866575,35.5235985 L33.7332417,35.5235985 L33.7332417,36.9999077 L39.5999083,36.9999077 C40.0048917,36.9999077 40.3332417,36.669399 40.3332417,36.2617531 L40.3332417,30.3565162 L38.866575,30.3565162 Z" id="Path" fill="#0E0B4D"></path>
                    <path d="M5.13324167,35.5235985 L5.13324167,30.3565162 L3.666575,30.3565162 L3.666575,36.2617531 C3.666575,36.669399 3.994925,36.9999077 4.39990833,36.9999077 L10.266575,36.9999077 L10.266575,35.5235985 L5.13324167,35.5235985 Z" id="Path" fill="#0E0B4D"></path>
                </g>
            </g>
        </g>
    </g>
</svg>