<svg xmlns="http://www.w3.org/2000/svg" width="40" height="40" viewBox="0 0 40 40">
    <g fill="none" fill-rule="evenodd">
        <circle cx="20" cy="20" r="19.5" fill="#FFF" stroke="#CBD8F6"/>
        <path fill="#CBD8F6" fill-rule="nonzero" d="M10.277 28.324c-.094-.049-.188-.096-.281-.146a3.108 3.108 0 0 1-1.23-1.183 3.77 3.77 0 0 1-.424-2.826 4.33 4.33 0 0 1 .414-1.08c.217-.404.485-.77.798-1.106a6.77 6.77 0 0 1 1.726-1.322 8.191 8.191 0 0 1 1.521-.64c.495-.152.97-.35 1.436-.577a23.436 23.436 0 0 0 1.707-.948c.494-.295.984-.595 1.49-.868.382-.206.77-.395 1.177-.546.507-.19 1.027-.31 1.57-.3.406.006.796.085 1.17.236.423.17.817.388 1.178.662.552.42.952.954 1.213 1.593.178.44.289.897.374 1.362.09.493.151.992.223 1.488.08.56.174 1.117.312 1.664.138.546.324 1.075.558 1.587.283.618.49 1.26.61 1.933.1.576.13 1.155.068 1.741-.048.456-.151.9-.324 1.33a4.028 4.028 0 0 1-1.21 1.667 3.973 3.973 0 0 1-1.748.808c-.474.096-.95.12-1.425.042a3.407 3.407 0 0 1-.496-.117c-.023-.008-.045-.012-.068-.018-.025.003-.044-.016-.066-.022-.019-.005-.034-.021-.056-.017l-.397-.17c-.01-.019-.032-.019-.048-.028l-.046-.02-.038-.016c-.334-.156-.63-.368-.924-.585-.496-.368-.963-.772-1.45-1.15a10.903 10.903 0 0 0-1.24-.842 6.917 6.917 0 0 0-.944-.44c-.259-.1-.53-.17-.802-.23-.537-.12-1.084-.195-1.63-.27-.578-.08-1.156-.16-1.72-.3a4.144 4.144 0 0 1-.674-.215c-.044-.02-.092-.032-.136-.052-.056-.028-.117-.042-.168-.08zm19.612-17.785a2.75 2.75 0 0 1 1.361 1.78 3.58 3.58 0 0 1 .038 1.544c-.08.44-.226.86-.429 1.26a5.487 5.487 0 0 1-1.569 1.882c-.465.36-.983.642-1.562.83a4.09 4.09 0 0 1-1.608.198 3.083 3.083 0 0 1-1.12-.302 2.708 2.708 0 0 1-1.307-1.337 3.242 3.242 0 0 1-.274-1.537c.02-.367.09-.723.201-1.07.076-.238.17-.47.282-.692.265-.526.612-1 1.038-1.422.453-.45.972-.82 1.573-1.093a4.482 4.482 0 0 1 1.616-.41c.423-.023.84.023 1.25.151.015 0 .027.008.04.012l.036.016c.02.006.035.022.056.017l.254.11c.012.018.034.018.05.028l.038.016c.012.005.027.008.036.02zm-20.856.582c.104-.2.233-.386.377-.561.279-.341.607-.62 1.004-.808.445-.21.902-.274 1.371-.177.381.078.71.256.999.508.331.289.578.645.757 1.048.28.624.38 1.288.341 1.983a4.418 4.418 0 0 1-.377 1.575 3.912 3.912 0 0 1-.52.868c-.284.356-.62.647-1.03.843a2.12 2.12 0 0 1-2.4-.352 3.086 3.086 0 0 1-.806-1.204 4.129 4.129 0 0 1-.274-1.413c-.011-.48.048-.957.187-1.424l.077-.247c.008-.039.028-.074.036-.113.003-.016.012-.03.018-.045.006-.02.024-.036.021-.06l.132-.285c.03-.019.034-.051.049-.078.01-.02.016-.045.038-.058zm6.99-1.876c.256-.548.582-1.002 1.03-1.382a3.355 3.355 0 0 1 1.186-.658 3.09 3.09 0 0 1 1.57-.08 3.278 3.278 0 0 1 1.463.709c.373.311.657.672.875 1.066.348.63.506 1.277.528 1.936a4.33 4.33 0 0 1-.795 2.646c-.367.5-.834.913-1.454 1.189a3.173 3.173 0 0 1-2.735-.078 3.431 3.431 0 0 1-1.065-.843 3.982 3.982 0 0 1-.79-1.443 4.321 4.321 0 0 1-.158-1.81c.039-.326.114-.643.224-.95.04-.116.082-.232.12-.302zM33.775 22.12l-.031.066c-.283.535-.698.974-1.21 1.343a4.805 4.805 0 0 1-1.35.676c-.64.205-1.312.29-2.027.208-.428-.049-.84-.16-1.233-.35-.578-.281-1.012-.68-1.291-1.2a2.41 2.41 0 0 1-.282-1.318c.024-.4.133-.777.313-1.13.395-.78 1.029-1.37 1.856-1.803.28-.147.577-.266.89-.357a4.757 4.757 0 0 1 2.026-.15c.404.06.791.174 1.156.36.558.283.976.679 1.245 1.188.242.46.312.929.267 1.403a2.61 2.61 0 0 1-.187.755l-.03.066c-.04.08-.078.16-.112.243z"/>
    </g>
</svg>
