<svg width="32" height="32" viewBox="0 0 32 32" fill="none" xmlns="http://www.w3.org/2000/svg">
<rect width="32" height="32" rx="4" fill="#645FC9"/>
<path d="M18.2891 16.4082C18.2891 17.6348 18.0586 18.5605 17.5977 19.1855C17.1406 19.8066 16.4434 20.1172 15.5059 20.1172C14.584 20.1172 13.8887 19.8145 13.4199 19.209C12.9551 18.5996 12.7168 17.6992 12.7051 16.5078V15.0312C12.7051 13.8047 12.9336 12.8848 13.3906 12.2715C13.8516 11.6582 14.5527 11.3516 15.4941 11.3516C16.4277 11.3516 17.123 11.6504 17.5801 12.248C18.041 12.8457 18.2773 13.7402 18.2891 14.9316V16.4082ZM16.8652 14.8145C16.8652 14.0137 16.7559 13.4277 16.5371 13.0566C16.3184 12.6816 15.9707 12.4941 15.4941 12.4941C15.0293 12.4941 14.6875 12.6719 14.4688 13.0273C14.25 13.3789 14.1348 13.9297 14.123 14.6797V16.6133C14.123 17.4102 14.2344 18.0039 14.457 18.3945C14.6797 18.7852 15.0293 18.9805 15.5059 18.9805C15.9629 18.9805 16.3008 18.8008 16.5195 18.4414C16.7383 18.0781 16.8535 17.5117 16.8652 16.7422V14.8145Z" fill="white"/>
</svg>
