<svg width="32" height="32" viewBox="0 0 32 32" fill="none" xmlns="http://www.w3.org/2000/svg">
<rect width="32" height="32" rx="4" fill="#645FC9"/>
<path d="M13.6738 20H12.2559V13.1504L10.1641 13.8652V12.6641L13.4922 11.4395H13.6738V20ZM22.1992 16.4082C22.1992 17.6348 21.9688 18.5605 21.5078 19.1855C21.0508 19.8066 20.3535 20.1172 19.416 20.1172C18.4941 20.1172 17.7988 19.8145 17.3301 19.209C16.8652 18.5996 16.627 17.6992 16.6152 16.5078V15.0312C16.6152 13.8047 16.8438 12.8848 17.3008 12.2715C17.7617 11.6582 18.4629 11.3516 19.4043 11.3516C20.3379 11.3516 21.0332 11.6504 21.4902 12.248C21.9512 12.8457 22.1875 13.7402 22.1992 14.9316V16.4082ZM20.7754 14.8145C20.7754 14.0137 20.666 13.4277 20.4473 13.0566C20.2285 12.6816 19.8809 12.4941 19.4043 12.4941C18.9395 12.4941 18.5977 12.6719 18.3789 13.0273C18.1602 13.3789 18.0449 13.9297 18.0332 14.6797V16.6133C18.0332 17.4102 18.1445 18.0039 18.3672 18.3945C18.5898 18.7852 18.9395 18.9805 19.416 18.9805C19.873 18.9805 20.2109 18.8008 20.4297 18.4414C20.6484 18.0781 20.7637 17.5117 20.7754 16.7422V14.8145Z" fill="white"/>
</svg>
