<svg width="40" height="40" viewBox="0 0 40 40" fill="none" xmlns="http://www.w3.org/2000/svg">
<path d="M0 14.0953L4.8 18.6667C5.6 19.4286 6.8 19.4286 7.6 18.6667C8.4 17.9048 8.4 16.7619 7.6 16L2.8 11.4286L0 14.0953Z" fill="#645FC9"/>
<path d="M10 20.9524H4V24.7619L2 28.5714L0 40H4.5L6 32.381L10 28.5714V20.9524Z" fill="#645FC9"/>
<path d="M36 5.71429L34.586 4.36762C34.211 4.01038 33.7024 3.80963 33.172 3.80952H31L29.2 1.52381C28.444 0.56381 27.26 0 26 0V5.71429L21 15.2381H4V28.5714H29L32 22.8571V13.3333H33.514C35.106 13.3333 36.632 12.7314 37.756 11.659L40 9.52381V6.66667C40 6.41408 39.8946 6.17184 39.7071 5.99323C39.5196 5.81463 39.2652 5.71429 39 5.71429H36Z" fill="#645FC9"/>
<path d="M31.982 40L29 30.1219V24.7619H21.584L27.698 40H31.982Z" fill="#645FC9"/>
<path d="M11.656 32.381L10.87 33.1295L13.5 40H18L15.268 32.381H11.656Z" fill="#645FC9"/>
</svg>
