<svg width="24" height="24" viewBox="0 0 24 24" fill="none" xmlns="http://www.w3.org/2000/svg">
<path fill-rule="evenodd" clip-rule="evenodd" d="M15.0578 5.12137H18.0527L14.4927 8.68146L14.4887 8.6855C11.9647 6.57886 8.20456 6.71033 5.83496 9.07993C3.32617 11.5887 3.32617 15.6563 5.83496 18.1651C8.34376 20.6739 12.4113 20.6739 14.9201 18.1651C17.2897 15.7955 17.4212 12.0353 15.3145 9.51139L15.3186 9.50738L18.8787 5.94729V8.94227C18.8787 9.26482 19.1401 9.52629 19.4627 9.52629C19.7852 9.52629 20.0467 9.26482 20.0467 8.94227V3.95334H15.0578C14.7352 3.95334 14.4738 4.21481 14.4738 4.53735C14.4738 4.8599 14.7352 5.12137 15.0578 5.12137ZM14.0942 17.3392C12.0415 19.3918 8.71354 19.3918 6.66089 17.3392C4.60824 15.2865 4.60824 11.9585 6.66089 9.90585C8.71354 7.8532 12.0415 7.8532 14.0942 9.90585C16.1468 11.9585 16.1468 15.2865 14.0942 17.3392Z" fill="#4A90E2"/>
</svg>
