<svg width="20" height="20" viewBox="0 0 20 20" fill="none" xmlns="http://www.w3.org/2000/svg">
<path fill-rule="evenodd" clip-rule="evenodd" d="M19.8411 7.91741L10.2583 0.0913293C10.1842 0.0320956 10.0934 0 10 0C9.90662 0 9.81583 0.0320956 9.74168 0.0913293L0.158876 7.91741C-0.0202812 8.06523 -0.0536126 8.33914 0.0880462 8.53045C0.229705 8.71741 0.492191 8.75219 0.675514 8.60436L1.25048 8.1348V19.5652C1.25048 19.8043 1.43797 20 1.66713 20H18.3329C18.562 20 18.7495 19.8043 18.7495 19.5652V8.1348L19.3245 8.60436C19.4036 8.66523 19.4911 8.69567 19.5828 8.69567C19.7078 8.69567 19.8286 8.63914 19.912 8.53045C20.0536 8.33914 20.0203 8.06523 19.8411 7.91741ZM14.6596 12.3344C14.2772 11.8756 13.6454 11.3618 12.9984 10.985C12.9794 10.9653 12.9526 10.875 12.9331 10.8092L12.933 10.8089C12.8604 10.564 12.7507 10.1941 12.2936 9.92383C11.8483 9.65577 11.077 9.40915 10.7629 9.31474C10.7517 9.16945 10.7374 8.89619 10.7374 8.44409C10.7374 7.51042 10.2604 6.43039 9.94891 6.43039C9.7911 6.43039 9.74582 6.54825 9.64656 6.80668L9.64638 6.80714L9.64603 6.80806C9.50153 7.18373 9.2329 7.88213 8.78549 8.33431C8.38731 8.74961 8.2956 9.28789 8.27464 9.52066C8.04847 9.69539 7.38532 10.2183 6.78836 10.7882C5.99843 11.4607 5.02508 12.5377 4.984 12.5832C4.96241 12.6072 4.94633 12.6359 4.93698 12.6673C4.92764 12.6987 4.92526 12.7319 4.93005 12.7644C4.93607 12.8054 5.57058 16.8579 8.93219 17.2128C8.9606 17.2157 8.9893 17.2126 9.0165 17.2035C9.0437 17.1944 9.06882 17.1796 9.0903 17.1599C9.13346 17.1201 9.15919 17.0634 9.16064 17.0032L9.16083 16.9957L9.16083 16.9956C9.16307 16.908 9.18159 16.1843 9.18159 15.9147C9.18159 15.2064 9.59409 14.4421 10.2606 14.4421C10.7922 14.4421 11.5601 14.6458 12.3183 14.9886C12.5936 15.1075 12.826 15.1653 13.0287 15.1653C13.3371 15.1653 13.5421 15.0326 13.6923 14.9115C13.7336 14.8756 13.7767 14.8409 13.8226 14.8041L13.8227 14.8041L13.8227 14.8041C14.0472 14.6235 14.353 14.3775 14.8022 13.7187C15.1497 13.5082 15.318 13.2711 15.3029 13.0128C15.2865 12.7437 15.0703 12.5154 14.6596 12.3344ZM11.7749 11.8219C11.7203 11.8219 11.6664 11.8107 11.616 11.7889C11.5657 11.7671 11.5199 11.7352 11.4814 11.695C11.4428 11.6547 11.4123 11.607 11.3914 11.5544C11.3706 11.5018 11.3598 11.4455 11.3599 11.3886C11.3599 11.3317 11.3706 11.2754 11.3915 11.2229C11.4124 11.1703 11.443 11.1226 11.4815 11.0824C11.5201 11.0422 11.5658 11.0103 11.6162 10.9885C11.6666 10.9668 11.7205 10.9556 11.7751 10.9556C11.8851 10.9556 11.9907 11.0013 12.0685 11.0825C12.1464 11.1638 12.1901 11.274 12.19 11.3889C12.19 11.5037 12.1463 11.6139 12.0684 11.6951C11.9905 11.7763 11.8849 11.8219 11.7749 11.8219ZM11.1609 8.98715C11.1561 8.84727 11.1524 8.66864 11.1524 8.4441C11.1524 8.11758 11.0868 7.68777 10.9648 7.27962C11.2582 6.86086 11.3043 6.82015 11.4221 6.82015C11.485 6.82306 11.5444 6.85113 11.5879 6.89853C11.7444 7.07652 11.8659 7.91296 11.7948 8.76608C11.7807 8.91267 11.7495 9.05406 11.7136 9.18224C11.5207 9.10841 11.3296 9.04193 11.1609 8.98715Z" fill="#9391AF"/>
</svg>
