<svg width="20" height="20" viewBox="0 0 20 20" fill="none" xmlns="http://www.w3.org/2000/svg">
<path d="M0 7.04763L2.4 9.33334C2.8 9.71429 3.4 9.71429 3.8 9.33334C4.2 8.95239 4.2 8.38096 3.8 8.00001L1.4 5.71429L0 7.04763Z" fill="white"/>
<path d="M5 10.4762H2V12.381L1 14.2857L0 20H2.25L3 16.1905L5 14.2857V10.4762Z" fill="white"/>
<path d="M18 2.85714L17.293 2.18381C17.1055 2.00519 16.8512 1.90482 16.586 1.90476H15.5L14.6 0.761905C14.222 0.281905 13.63 0 13 0V2.85714L10.5 7.61905H2V14.2857H14.5L16 11.4286V6.66667H16.757C17.553 6.66667 18.316 6.36571 18.878 5.82952L20 4.7619V3.33333C20 3.20704 19.9473 3.08592 19.8536 2.99662C19.7598 2.90731 19.6326 2.85714 19.5 2.85714H18Z" fill="white"/>
<path d="M15.991 20L14.5 15.0609V12.3809H10.792L13.849 20H15.991Z" fill="white"/>
<path d="M5.82806 16.1905L5.43506 16.5648L6.75006 20H9.00006L7.63406 16.1905H5.82806Z" fill="white"/>
</svg>
