<svg width="24" height="23" viewBox="0 0 24 23" fill="none" xmlns="http://www.w3.org/2000/svg">
<path fill-rule="evenodd" clip-rule="evenodd" d="M17.131 6.82238L18.8908 5.06255C19.1023 4.85102 19.1023 4.50805 18.8908 4.29652C18.6793 4.08499 18.3363 4.08499 18.1248 4.29652L16.3649 6.05635L14.8329 4.5243C14.6213 4.31276 14.2784 4.31276 14.0668 4.5243C13.8553 4.73583 13.8553 5.07879 14.0668 5.29033L15.5989 6.82238L13.1615 9.25976L13.156 9.26537C10.8151 7.31146 7.32756 7.4334 5.12978 9.63117C2.8029 11.958 2.8029 15.7307 5.12978 18.0575C7.45665 20.3844 11.2293 20.3844 13.5561 18.0575C15.7539 15.8598 15.8758 12.3722 13.9219 10.0313L13.9275 10.0258L16.3649 7.58841L17.897 9.12049C18.1085 9.33202 18.4515 9.33202 18.663 9.12049C18.8746 8.90896 18.8746 8.56599 18.663 8.35446L17.131 6.82238ZM5.89581 10.3972C3.992 12.301 3.992 15.3877 5.89581 17.2915C7.79962 19.1953 10.8863 19.1953 12.7901 17.2915C14.6939 15.3877 14.6939 12.301 12.7901 10.3972C10.8863 8.49341 7.79962 8.49341 5.89581 10.3972Z" fill="#DF4EB5"/>
</svg>
