<svg width="88" height="14" viewBox="0 0 88 14" fill="none" xmlns="http://www.w3.org/2000/svg">
<path d="M6.6 9.084C6.6 10.036 6.296 10.78 5.688 11.316C5.08 11.844 4.364 12.108 3.54 12.108C2.716 12.108 2 11.844 1.392 11.316C0.792 10.78 0.492 10.036 0.492 9.084C0.492 8.14 0.788 7.408 1.38 6.888C1.972 6.36 2.676 6.088 3.492 6.072C4.028 6.064 4.524 6.168 4.98 6.384C5.444 6.592 5.828 6.932 6.132 7.404C6.444 7.876 6.6 8.436 6.6 9.084ZM1.788 9.084C1.788 9.676 1.964 10.14 2.316 10.476C2.668 10.804 3.084 10.964 3.564 10.956C4.036 10.948 4.44 10.78 4.776 10.452C5.12 10.124 5.292 9.668 5.292 9.084C5.292 8.492 5.112 8.032 4.752 7.704C4.392 7.368 3.972 7.208 3.492 7.224C3.02 7.24 2.616 7.412 2.28 7.74C1.952 8.06 1.788 8.508 1.788 9.084ZM10.4158 11.988H9.14381V7.356H7.28381V6.216H12.2878V7.356H10.4158V11.988ZM20.8382 0.624C22.0222 0.624 23.0089 0.976 23.7982 1.68C24.5876 2.37333 24.9822 3.30667 24.9822 4.48V8.352C24.9822 9.52533 24.5876 10.464 23.7982 11.168C23.0089 11.8613 22.0222 12.208 20.8382 12.208C19.6436 12.208 18.6462 11.8613 17.8462 11.168C17.0569 10.464 16.6622 9.52533 16.6622 8.352V4.48C16.6622 3.30667 17.0569 2.37333 17.8462 1.68C18.6462 0.976 19.6436 0.624 20.8382 0.624ZM19.3342 10.144C19.7502 10.4213 20.2516 10.56 20.8382 10.56C21.4249 10.56 21.9209 10.4213 22.3262 10.144C22.7422 9.856 23.0089 9.45067 23.1262 8.928C23.2009 8.55467 23.2382 8.20267 23.2382 7.872V4.976C23.2382 4.64533 23.2009 4.29333 23.1262 3.92C23.0089 3.38667 22.7422 2.976 22.3262 2.688C21.9209 2.4 21.4249 2.256 20.8382 2.256C20.2516 2.256 19.7502 2.4 19.3342 2.688C18.9182 2.976 18.6516 3.38667 18.5342 3.92C18.4596 4.29333 18.4222 4.64533 18.4222 4.976V7.872C18.4222 8.20267 18.4596 8.55467 18.5342 8.928C18.6516 9.45067 18.9182 9.856 19.3342 10.144ZM30.5979 13.332H29.4219L29.3859 10.98H29.4099H29.5299C29.7859 10.98 29.9859 10.892 30.1299 10.716C30.2819 10.532 30.3779 10.356 30.4179 10.188C30.4659 10.012 30.5179 9.708 30.5739 9.276C30.5819 9.212 30.5899 9.164 30.5979 9.132L31.0179 6.216H35.0979V10.98H35.8779L35.8419 13.332H34.7139V12H30.5979V13.332ZM33.8379 10.98V7.308H32.0739L31.7979 9.504C31.7259 9.968 31.6539 10.304 31.5819 10.512C31.5179 10.712 31.4099 10.868 31.2579 10.98H33.8379ZM42.7992 9.084C42.7992 10.036 42.4952 10.78 41.8872 11.316C41.2792 11.844 40.5632 12.108 39.7392 12.108C38.9152 12.108 38.1992 11.844 37.5912 11.316C36.9912 10.78 36.6912 10.036 36.6912 9.084C36.6912 8.14 36.9872 7.408 37.5792 6.888C38.1712 6.36 38.8752 6.088 39.6912 6.072C40.2272 6.064 40.7232 6.168 41.1792 6.384C41.6432 6.592 42.0272 6.932 42.3312 7.404C42.6432 7.876 42.7992 8.436 42.7992 9.084ZM37.9872 9.084C37.9872 9.676 38.1632 10.14 38.5152 10.476C38.8672 10.804 39.2832 10.964 39.7632 10.956C40.2352 10.948 40.6392 10.78 40.9752 10.452C41.3192 10.124 41.4912 9.668 41.4912 9.084C41.4912 8.492 41.3112 8.032 40.9512 7.704C40.5912 7.368 40.1712 7.208 39.6912 7.224C39.2192 7.24 38.8152 7.412 38.4792 7.74C38.1512 8.06 37.9872 8.508 37.9872 9.084ZM49.6027 2.272H47.8107V0.799999H51.3947V10.56H53.4747V12H47.5547V10.56H49.6027V2.272ZM59.1917 0.624C60.3757 0.624 61.3624 0.976 62.1517 1.68C62.9411 2.37333 63.3357 3.30667 63.3357 4.48V8.352C63.3357 9.52533 62.9411 10.464 62.1517 11.168C61.3624 11.8613 60.3757 12.208 59.1917 12.208C57.9971 12.208 56.9997 11.8613 56.1997 11.168C55.4104 10.464 55.0157 9.52533 55.0157 8.352V4.48C55.0157 3.30667 55.4104 2.37333 56.1997 1.68C56.9997 0.976 57.9971 0.624 59.1917 0.624ZM57.6877 10.144C58.1037 10.4213 58.6051 10.56 59.1917 10.56C59.7784 10.56 60.2744 10.4213 60.6797 10.144C61.0957 9.856 61.3624 9.45067 61.4797 8.928C61.5544 8.55467 61.5917 8.20267 61.5917 7.872V4.976C61.5917 4.64533 61.5544 4.29333 61.4797 3.92C61.3624 3.38667 61.0957 2.976 60.6797 2.688C60.2744 2.4 59.7784 2.256 59.1917 2.256C58.6051 2.256 58.1037 2.4 57.6877 2.688C57.2717 2.976 57.0051 3.38667 56.8877 3.92C56.8131 4.29333 56.7757 4.64533 56.7757 4.976V7.872C56.7757 8.20267 56.8131 8.55467 56.8877 8.928C57.0051 9.45067 57.2717 9.856 57.6877 10.144ZM73.4594 7.368H71.4674L71.1914 9.948C71.1034 10.868 70.8914 11.472 70.5554 11.76C70.2194 12.048 69.5954 12.128 68.6834 12L68.7074 11.04C69.1714 11.104 69.4714 11.052 69.6074 10.884C69.7514 10.716 69.8514 10.388 69.9074 9.9L70.3394 6.216H74.7434V12H73.4594V7.368ZM79.0838 6.084C80.0838 6.084 80.8078 6.384 81.2558 6.984C81.7038 7.584 81.8318 8.372 81.6398 9.348H77.3678C77.3678 9.86 77.5438 10.268 77.8958 10.572C78.2558 10.876 78.7078 11.028 79.2518 11.028C80.0198 11.068 80.7198 10.948 81.3518 10.668L81.5198 11.64C80.7838 11.968 80.0558 12.132 79.3358 12.132C78.3678 12.148 77.5758 11.868 76.9598 11.292C76.3438 10.716 76.0518 9.948 76.0838 8.988C76.0998 8.068 76.3958 7.356 76.9718 6.852C77.5478 6.34 78.2518 6.084 79.0838 6.084ZM79.0718 7.092C78.1278 7.092 77.5678 7.536 77.3918 8.424H80.5838C80.5998 8.008 80.4598 7.684 80.1638 7.452C79.8758 7.212 79.5118 7.092 79.0718 7.092ZM85.6092 11.988H84.3372V7.356H82.4772V6.216H87.4812V7.356H85.6092V11.988Z" fill="#645FC9"/>
</svg>
