<svg width="33" height="33" viewBox="0 0 33 33" fill="none" xmlns="http://www.w3.org/2000/svg">
<path d="M0 11.6286L3.96 15.4C4.62 16.0286 5.61 16.0286 6.27 15.4C6.93 14.7714 6.93 13.8286 6.27 13.2L2.31 9.42859L0 11.6286Z" fill="#645FC9"/>
<path d="M8.25 17.2857H3.3V20.4286L1.65 23.5714L0 33H3.7125L4.95 26.7143L8.25 23.5714V17.2857Z" fill="#645FC9"/>
<path d="M29.6999 4.71429L28.5334 3.60329C28.224 3.30856 27.8044 3.14295 27.3668 3.14286H25.5749L24.0899 1.25714C23.4662 0.465143 22.4894 0 21.4499 0V4.71429L17.3249 12.5714H3.29993V23.5714H23.9249L26.3999 18.8571V11H27.649C28.9624 11 30.2213 10.5034 31.1486 9.61871L32.9999 7.85714V5.5C32.9999 5.29162 32.913 5.09177 32.7583 4.94442C32.6036 4.79707 32.3937 4.71429 32.1749 4.71429H29.6999Z" fill="#645FC9"/>
<path d="M26.3852 33L23.9251 24.8506V20.4286H17.8069L22.8509 33H26.3852Z" fill="#645FC9"/>
<path d="M9.61622 26.7143L8.96777 27.3318L11.1375 33H14.85L12.5961 26.7143H9.61622Z" fill="#645FC9"/>
</svg>
