<svg width="24" height="23" viewBox="0 0 24 23" fill="none" xmlns="http://www.w3.org/2000/svg">
<path d="M0 7.30611L2.82857 9.99998C3.3 10.449 4.00714 10.449 4.47857 9.99998C4.95 9.55101 4.95 8.87754 4.47857 8.42856L1.65 5.73468L0 7.30611Z" fill="#645FC9"/>
<path d="M5.89285 11.3469H2.35714V13.5918L1.17857 15.8367L0 22.5714H2.65178L3.53571 18.0816L5.89285 15.8367V11.3469Z" fill="#645FC9"/>
<path d="M20.8571 3.36735L20.0239 2.57378C19.8029 2.36326 19.5032 2.24496 19.1906 2.2449H17.9107L16.85 0.897959C16.4045 0.332245 15.7068 0 14.9643 0V3.36735L12.0179 8.97959H2V16.8367H16.7321L18.5 13.4694V7.85714H19.3922C20.3303 7.85714 21.2296 7.50245 21.8919 6.87051L23.2143 5.61225V3.92857C23.2143 3.77973 23.1522 3.63698 23.0417 3.53173C22.9312 3.42648 22.7813 3.36735 22.625 3.36735H20.8571Z" fill="#645FC9"/>
<path d="M18.8466 22.5714L17.0893 16.7504V13.5918H12.7192L16.3221 22.5714H18.8466Z" fill="#645FC9"/>
<path d="M6.86876 18.0816L6.40558 18.5228L7.9554 22.5714H10.6072L8.99726 18.0816H6.86876Z" fill="#645FC9"/>
</svg>
