<svg width="16" height="16" viewBox="0 0 16 16" fill="none" xmlns="http://www.w3.org/2000/svg">
<path fill-rule="evenodd" clip-rule="evenodd" d="M10.8029 1.6946H13.5483L10.2849 4.95801L10.2812 4.96172C7.96766 3.03063 4.52083 3.15115 2.3487 5.32327C0.0489693 7.623 0.0489693 11.3516 2.3487 13.6513C4.64843 15.9511 8.37702 15.9511 10.6768 13.6513C12.8489 11.4792 12.9694 8.03236 11.0383 5.71878L11.042 5.71511L14.3054 2.45169V5.19709C14.3054 5.49276 14.5451 5.73244 14.8408 5.73244C15.1364 5.73244 15.3761 5.49276 15.3761 5.19709V0.623901H10.8029C10.5073 0.623901 10.2676 0.863585 10.2676 1.15925C10.2676 1.45491 10.5073 1.6946 10.8029 1.6946ZM9.91965 12.8942C8.03806 14.7758 4.98739 14.7758 3.10579 12.8942C1.2242 11.0126 1.2242 7.96197 3.10579 6.08037C4.98739 4.19878 8.03806 4.19878 9.91965 6.08037C11.8012 7.96197 11.8012 11.0126 9.91965 12.8942Z" fill="white"/>
</svg>
