<?xml version="1.0" encoding="UTF-8"?>
<svg width="32px" height="32px" viewBox="0 0 32 32" version="1.1" xmlns="http://www.w3.org/2000/svg" xmlns:xlink="http://www.w3.org/1999/xlink">
    <!-- Generator: Sketch 53.2 (72643) - https://sketchapp.com -->
    <title>antibacterial</title>
    <desc>Created with Sketch.</desc>
    <defs>
        <path d="M25.6066406,4.39341797 C22.773457,1.56029297 19.0066406,0 15,0 C6.70998047,0 0,6.70880859 0,15 C0,19.0066406 1.56029297,22.773457 4.39335938,25.606582 C7.22654297,28.439707 10.9933594,30 15,30 C23.2900195,30 30,23.2911914 30,15 C30,10.993418 28.439707,7.22660156 25.6066406,4.39341797 Z" id="path-1"></path>
    </defs>
    <g id="Home" stroke="none" stroke-width="1" fill="none" fill-rule="evenodd">
        <g id="Search_Desktop" transform="translate(-1066.000000, -501.000000)">
            <g id="Stats" transform="translate(1035.000000, 299.000000)">
                <g id="Group-20" transform="translate(32.000000, 203.000000)">
                    <g id="antibacterial">
                        <path d="M24.3744141,17.357168 L23.3964844,17.3685352 C23.2766602,16.2821484 22.8633398,15.2389453 22.1897461,14.3589844 L22.5022852,14.0974805 C22.6884375,13.9417383 22.7131055,13.6645898 22.5573047,13.4784375 C22.4016211,13.2922852 22.1243555,13.2676172 21.9383203,13.423418 L21.6058008,13.7016211 C21.4144922,13.5155859 21.2091211,13.3403906 20.9900977,13.177793 C20.7952148,13.0330664 20.52,13.0738477 20.375332,13.2686719 C20.2306055,13.4635547 20.2713281,13.7387695 20.4662109,13.8834961 C22.3818164,15.3056836 23.0602734,17.8289063 22.1605664,20.0071289 C21.534668,21.5225391 20.265,22.6282031 18.6756445,23.0383008 C17.1247266,23.4383203 15.4651172,23.1210352 14.1472852,22.0681641 C13.7754492,21.7710938 13.4099414,21.4619531 13.0610156,21.1492969 C12.8800781,20.9872852 12.6024023,21.0026953 12.4404492,21.1833984 C12.2784961,21.3641602 12.2937305,21.6420117 12.4744922,21.8039063 C12.6561914,21.9667383 12.8422266,22.1285742 13.0311914,22.2883594 L12.425918,23.0374805 C12.2733984,23.2262695 12.3027539,23.5029492 12.491543,23.6554688 C12.6815039,23.809043 12.9579492,23.7774023 13.1095898,23.5898438 L13.7125195,22.8436523 C14.6047852,23.5235156 15.6387891,23.9326758 16.7155664,24.0499219 L16.7014453,25.0297852 C16.6979297,25.2724805 16.8918164,25.4720508 17.1345117,25.4755078 C17.1366797,25.4755078 17.1388477,25.4755664 17.140957,25.4755664 C17.3807227,25.4755664 17.5767773,25.2829688 17.5802344,25.0424414 L17.5941211,24.080625 C18.0273633,24.0641016 18.4632422,24.0007617 18.8952539,23.8892578 C19.7217773,23.6759766 20.4746484,23.3019141 21.1203516,22.7961328 L21.5928516,23.3990625 C21.7426172,23.5901953 22.0188867,23.6235938 22.2097852,23.4738867 C22.4008594,23.3241797 22.4343164,23.0479688 22.2846094,22.8569531 L21.7719141,22.2027539 C22.2745312,21.6718359 22.6826953,21.0449414 22.9728516,20.3425195 C23.2545703,19.6604297 23.40375,18.9514453 23.4290625,18.2469141 L24.384668,18.2358398 C24.6273633,18.2330273 24.8218359,18.0339844 24.8189648,17.7913477 C24.8162109,17.5504102 24.6199805,17.3569922 24.3796875,17.3569922 C24.3779297,17.357168 24.3761719,17.357168 24.3744141,17.357168 L24.3744141,17.357168 Z" id="Path" fill="#645FC9" fill-rule="nonzero"></path>
                        <path d="M18.1037109,21.3735352 C18.7724414,21.3735352 19.4411719,21.1190039 19.9503516,20.6098828 C20.9685352,19.5916992 20.9685352,17.9349023 19.9503516,16.9166602 C18.9320508,15.898418 17.2753711,15.8984766 16.2570703,16.9166602 C15.2388867,17.9348437 15.2388867,19.5916406 16.2570703,20.6098828 C16.7661914,21.1190039 17.4349219,21.3735352 18.1037109,21.3735352 L18.1037109,21.3735352 Z" id="Path" fill="#645FC9" fill-rule="nonzero"></path>
                        <path d="M9.44179688,9.83449219 C8.66560547,10.6107422 8.66560547,11.8737305 9.44179688,12.6499219 C10.2180469,13.4261719 11.4810352,13.4261719 12.2573438,12.6499219 C13.0335352,11.8736719 13.0335352,10.6106836 12.2573438,9.83449219 C11.4810352,9.05818359 10.2180469,9.05830078 9.44179688,9.83449219 L9.44179688,9.83449219 Z" id="Path" fill="#645FC9" fill-rule="nonzero"></path>
                        <path d="M14.3158008,8.17734375 C13.6040625,7.38714844 12.6687305,6.88716797 11.6743359,6.70710937 L11.7008789,6.16470703 C11.7127148,5.92230469 11.5258594,5.71617187 11.2833984,5.70427734 C11.041582,5.69326172 10.8349219,5.87929687 10.8230273,6.12175781 L10.7980664,6.631875 C9.68730469,6.64066406 8.62505859,7.04279297 7.79115234,7.75060547 L7.37167969,7.33792969 C7.19865234,7.16777344 6.92044922,7.16994141 6.75023437,7.34296875 C6.58007812,7.51599609 6.58230469,7.79419922 6.75533203,7.96441406 L7.17703125,8.37925781 C6.50753906,9.20630859 6.11390625,10.2669727 6.13166016,11.4008203 L5.48689453,11.4479297 C5.24484375,11.465625 5.06296875,11.6762109 5.08060547,11.9182031 C5.09753906,12.1493555 5.2903125,12.3256641 5.51847656,12.3256641 C5.5490625,12.3256641 5.50300781,12.3275977 6.22839844,12.2749805 C6.26431641,12.4477734 6.31019531,12.6189844 6.36603516,12.7878516 C6.66492187,13.69125 7.03945312,14.5817578 7.48541016,15.4508203 L6.61664062,15.9158203 C6.40265625,16.0303711 6.32203125,16.2966797 6.43658203,16.5106055 C6.55107422,16.7245898 6.81732422,16.8052148 7.03136719,16.6906641 L7.9040625,16.2235547 C8.08892578,16.5474023 8.28380859,16.8678516 8.48853516,17.1843164 C8.62042969,17.3881641 8.89259766,17.4464062 9.09621094,17.3145703 C9.3,17.1827344 9.35830078,16.9106836 9.22646484,16.7068945 C8.35998047,15.3675586 7.67835937,13.9560937 7.20046875,12.5116992 C6.34201172,9.91705078 8.45285156,7.28613281 11.1711328,7.52513672 C11.1721875,7.52525391 11.1732422,7.5253125 11.1743555,7.52542969 C12.1081641,7.60833984 13.0036523,8.03355469 13.6627734,8.76539062 C14.1781641,9.33761719 14.7402539,9.89179687 15.3295898,10.4109961 C15.5117578,10.5714844 15.7894922,10.5538477 15.9498633,10.3717969 C16.110293,10.1896875 16.0927148,9.91195312 15.9106055,9.75158203 C15.6007031,9.47859375 15.3002344,9.196875 15.011543,8.90888672 L15.6299414,8.32986328 C15.8070703,8.16398437 15.8162695,7.88589844 15.6503906,7.70871094 C15.4845117,7.53152344 15.2063672,7.52232422 15.0292383,7.68826172 L14.4036914,8.27396484 C14.3742187,8.24191406 14.3449219,8.20962891 14.3158008,8.17734375 Z" id="Path" fill="#0E0B4D" fill-rule="nonzero"></path>
                        <path d="M23.479043,5.07246094 L23.2755469,4.90535156 C20.9544141,2.99806641 18.0154102,1.94765625 14.9999414,1.94765625 C7.92597656,1.94765625 2.27748047,7.52636719 1.96154297,14.3966016 C1.81277344,17.630918 2.85826172,20.7842578 4.90535156,23.2755469 L5.07251953,23.479043 C5.23751953,23.6798438 5.53945312,23.6941992 5.72291016,23.5108008 L23.5108594,5.72279297 C23.6944922,5.53910156 23.6794336,5.23716797 23.479043,5.07246094 Z M5.44546875,22.5452344 C3.62841797,20.25 2.70410156,17.3795508 2.83951172,14.4370313 C3.13435547,8.026875 8.40533203,2.8265625 14.9999414,2.8265625 C17.7382031,2.8265625 20.4086719,3.75503906 22.5451758,5.44546875 L5.44546875,22.5452344 Z" id="Shape" fill="#0E0B4D" fill-rule="nonzero"></path>
                        <mask id="mask-2" fill="white">
                            <use xlink:href="#path-1"></use>
                        </mask>
                        <path stroke="#0E0B4D" d="M25.9601904,4.03986092 L25.9602013,4.03987189 C28.8870538,6.96684538 30.5,10.8608448 30.5,15 C30.5,23.566935 23.5665607,30.5 15,30.5 C10.8607742,30.5 6.96677615,28.8870451 4.03980233,25.9601318 C1.11294701,23.0332159 -0.5,19.1392146 -0.5,15 C-0.5,6.43306502 6.43343927,-0.5 15,-0.5 C19.1392258,-0.5 23.0332238,1.11295494 25.9601904,4.03986092 Z"></path>
                        <path d="M25.0945898,6.72433594 L24.9273633,6.52083984 C24.7633008,6.32132813 24.4616016,6.30474609 24.2770898,6.48914063 L6.48914062,24.2771484 C6.30515625,24.4611914 6.32091797,24.763125 6.52095703,24.9274219 L6.72439453,25.0945898 C9.04558594,27.0019336 11.9845898,28.0523438 15.0000586,28.0523438 C22.0723242,28.0523438 27.7224609,22.4750391 28.038457,15.6033984 C28.1872852,12.3691992 27.1417969,9.21591797 25.0945898,6.72433594 Z M27.1604883,15.5629688 C26.8656445,21.9729492 21.594668,27.1734375 15.0000586,27.1734375 C12.2617969,27.1734375 9.59132812,26.2449609 7.45476562,24.5545313 L24.5545898,7.45470703 C26.3717578,9.75011719 27.2958984,12.6203906 27.1604883,15.5629688 L27.1604883,15.5629688 Z" id="Shape" fill="#0E0B4D" fill-rule="nonzero" mask="url(#mask-2)"></path>
                    </g>
                </g>
            </g>
        </g>
    </g>
</svg>