<?xml version="1.0" encoding="UTF-8"?>
<svg width="32px" height="32px" viewBox="0 0 32 32" version="1.1" xmlns="http://www.w3.org/2000/svg" xmlns:xlink="http://www.w3.org/1999/xlink">
    <!-- Generator: Sketch 53.2 (72643) - https://sketchapp.com -->
    <title>Group 17</title>
    <desc>Created with Sketch.</desc>
    <defs>
        <path d="M25.6066406,4.39341797 C22.773457,1.56029297 19.0066406,0 15,0 C6.70998047,0 0,6.70880859 0,15 C0,19.0066406 1.56029297,22.773457 4.39335938,25.606582 C7.22654297,28.439707 10.9933594,30 15,30 C23.2900195,30 30,23.2911914 30,15 C30,10.993418 28.439707,7.22660156 25.6066406,4.39341797 Z" id="path-1"></path>
    </defs>
    <g id="🔵-Home" stroke="none" stroke-width="1" fill="none" fill-rule="evenodd">
        <g id="Search_Desktop" transform="translate(-1066.000000, -373.000000)">
            <g id="Group-4" transform="translate(1035.000000, 299.000000)">
                <g id="Group-21" transform="translate(32.000000, 75.000000)">
                    <g id="Group-17">
                        <mask id="mask-2" fill="white">
                            <use xlink:href="#path-1"></use>
                        </mask>
                        <path stroke="#0E0B4D" d="M25.9601904,4.03986092 L25.9602013,4.03987189 C28.8870538,6.96684538 30.5,10.8608448 30.5,15 C30.5,23.566935 23.5665607,30.5 15,30.5 C10.8607742,30.5 6.96677615,28.8870451 4.03980233,25.9601318 C1.11294701,23.0332159 -0.5,19.1392146 -0.5,15 C-0.5,6.43306502 6.43343927,-0.5 15,-0.5 C19.1392258,-0.5 23.0332238,1.11295494 25.9601904,4.03986092 Z"></path>
                        <g id="dog-running" mask="url(#mask-2)" fill-rule="nonzero">
                            <g transform="translate(-16.000000, 1.250000)">
                                <path d="M14.2682727,12.3943867 C13.5559101,12.4271124 12.3458316,12.4827029 10.6380371,12.5611584 C10.631958,12.5614076 10.6257944,12.5616569 10.6197996,12.5619892 C7.63897982,12.7381287 4.81638731,11.168992 3.42890114,8.56403895 C3.23402996,8.19821724 2.77471488,8.05697333 2.40312559,8.24881579 C2.03136745,8.44057516 1.88800035,8.89247257 2.0827871,9.2582112 C3.31567659,11.5730326 5.49328603,13.2061445 7.99309149,13.8115823 C7.90435249,13.8886849 7.81510689,13.9699417 7.725608,14.0567651 C6.77193817,14.9824943 5.63361354,16.6744301 5.46820945,19.5480789 L2.17828073,20.9699896 C1.9861114,21.0529911 1.83742503,21.2106027 1.76743014,21.40527 L0.0435632164,26.2016638 C-0.0786112186,26.5417292 0.0632360867,26.9190997 0.380872731,27.0990611 L1.20865308,27.5679077 C1.32533937,27.6340431 1.4562104,27.6676093 1.58784132,27.6676093 C1.67649589,27.6676093 1.76548818,27.6523217 1.85059657,27.6214973 C2.0620166,27.5448102 2.22801172,27.379721 2.30366362,27.1707631 L3.52785652,23.7890517 L6.48148892,23.5485217 L5.58396698,24.7480978 C5.45951286,24.9144333 5.41054177,25.1239728 5.44862101,25.3270317 L6.38624859,30.33014 C6.4526973,30.6848284 6.76704106,30.9423077 7.13356436,30.9423077 L8.08866955,30.9423077 C8.31402102,30.9423077 8.52780517,30.8438524 8.67218546,30.6736119 C8.81656575,30.5032884 8.87668199,30.2787106 8.83632306,30.0606134 L8.18289669,26.5288511 L14.5244844,22.2109419 C15.1251402,21.7145111 15.5611518,21.167731 15.873047,20.6054972 C19.0662156,21.1570962 23.5273134,21.9413322 26.4040274,22.3999595 L32.3649071,30.4197052 C32.5122425,30.6179452 32.7427444,30.7261214 32.97865,30.7261214 C33.0963495,30.7261214 33.2153999,30.699202 33.3260915,30.6431199 L34.0246894,30.2890962 C34.2038561,30.1982847 34.3390332,30.0411716 34.4005004,29.8523202 C34.4619675,29.6634688 34.4446588,29.4582497 34.3523736,29.2819441 L31.261791,23.376121 L34.4296297,24.0104723 L34.3533024,25.089825 C34.3339672,25.3643367 34.4693132,25.6272165 34.7058098,25.7741102 L35.171964,26.0635771 C35.2947294,26.1397657 35.4355635,26.1789817 35.5775797,26.1789817 C35.6553424,26.1789817 35.7335273,26.1671836 35.8091792,26.1434214 C36.0231322,26.0760398 36.1957975,25.9189267 36.2808215,25.7143723 L37.3697529,23.0948795 C37.449542,22.9029539 37.4447293,22.6869338 37.3564969,22.498664 C37.2682645,22.3103111 37.1044646,22.1665747 36.9043586,22.1016025 L31.1821708,20.1640685 C31.1876589,20.1392261 32.8891511,12.4112736 32.8891511,12.4112736 C33.2067877,12.4633677 33.5275484,12.4907857 33.8506732,12.4907857 C36.0760717,12.4907857 38.1139446,11.2087064 39.1689339,9.14488373 C39.2644276,8.95810944 39.2760793,8.74059383 39.2011029,8.54501257 C39.1261265,8.3494313 38.9714454,8.19364758 38.7743789,8.11546493 L35.4640174,6.80123194 C35.2583388,5.74888177 34.4460941,4.90607109 33.4008146,4.64036638 L33.222239,2.61617506 C33.1961492,2.31997829 32.9941012,2.0671517 32.7077892,1.97218595 C32.4213083,1.87722019 32.105107,1.95831081 31.9022147,2.17856821 L31.0526507,3.10072474 L30.5275623,1.29230426 C30.4370502,0.980570654 30.1525957,0.761725687 29.8233073,0.750426175 C29.4935968,0.739542086 29.1948731,0.938031314 29.0824929,1.24295198 L25.1589796,11.8940717 L14.2682727,12.3943867 Z M21.528744,12.0608434 C20.0462184,12.12895 18.8361398,12.1845406 17.8985083,12.227615 L21.528744,12.0608434 Z" id="Shape" stroke="#645FC9" stroke-width="1.2" fill="none"></path>
                                <path d="M37.3333333,14.75 L38.6666667,14.75 L38.6666667,16.0833333 L37.3333333,16.0833333 L37.3333333,14.75 Z M36,16.0833333 L37.3333333,16.0833333 L37.3333333,17.4166667 L36,17.4166667 L36,16.0833333 Z M37.3333333,17.4166667 L38.6666667,17.4166667 L38.6666667,18.75 L37.3333333,18.75 L37.3333333,17.4166667 Z M38.6666667,16.0833333 L40,16.0833333 L40,17.4166667 L38.6666667,17.4166667 L38.6666667,16.0833333 Z" id="Combined-Shape" stroke="none" fill="#0E0B4D"></path>
                                <path d="M21.3333333,5.75 L22.6666667,5.75 L22.6666667,7.08333333 L21.3333333,7.08333333 L21.3333333,5.75 Z M20,7.08333333 L21.3333333,7.08333333 L21.3333333,8.41666667 L20,8.41666667 L20,7.08333333 Z M21.3333333,8.41666667 L22.6666667,8.41666667 L22.6666667,9.75 L21.3333333,9.75 L21.3333333,8.41666667 Z M22.6666667,7.08333333 L24,7.08333333 L24,8.41666667 L22.6666667,8.41666667 L22.6666667,7.08333333 Z" id="Combined-Shape" stroke="none" fill="#0E0B4D"></path>
                                <path d="M40,19.75 L41,19.75 L41,20.75 L40,20.75 L40,19.75 Z M39,20.75 L40,20.75 L40,21.75 L39,21.75 L39,20.75 Z M40,21.75 L41,21.75 L41,22.75 L40,22.75 L40,21.75 Z M41,20.75 L42,20.75 L42,21.75 L41,21.75 L41,20.75 Z" id="Combined-Shape" stroke="none" fill="#0E0B4D"></path>
                            </g>
                        </g>
                    </g>
                </g>
            </g>
        </g>
    </g>
</svg>