<svg width="20" height="20" viewBox="0 0 20 20" fill="none" xmlns="http://www.w3.org/2000/svg">
<path fill-rule="evenodd" clip-rule="evenodd" d="M10 20C15.5228 20 20 15.5228 20 10C20 4.47715 15.5228 0 10 0C4.47715 0 0 4.47715 0 10C0 15.5228 4.47715 20 10 20Z" fill="#CBD8F6"/>
<path fill-rule="evenodd" clip-rule="evenodd" d="M8.85534 12.938H10.4278C10.3974 11.6627 10.9895 11.0015 11.5649 10.359C12.035 9.83402 12.494 9.32148 12.5933 8.49659C12.6346 8.22073 12.6209 7.91728 12.5657 7.58625C12.345 6.2897 11.0484 5.42073 9.5312 5.46211C7.9312 5.46211 6.77258 6.34487 6.70361 8.17935H8.04154C8.15189 7.35177 8.85534 6.86901 9.54499 6.86901C10.4415 6.86901 11.1864 7.46211 11.0346 8.60694C10.8838 9.19952 10.5015 9.59012 10.0982 10.0022C9.46879 10.6453 8.78809 11.3408 8.85534 12.938ZM8.71741 14.5104C8.71741 15.0069 9.1312 15.3518 9.64155 15.3518C10.1519 15.3518 10.5381 15.0069 10.5381 14.5104C10.5381 14 10.1519 13.669 9.64155 13.669C9.1312 13.669 8.71741 14 8.71741 14.5104Z" fill="#0E0B4D"/>
</svg>
