<?xml version="1.0" encoding="UTF-8"?>
<svg width="32px" height="32px" viewBox="0 0 32 32" version="1.1" xmlns="http://www.w3.org/2000/svg" xmlns:xlink="http://www.w3.org/1999/xlink">
    <!-- Generator: Sketch 53.2 (72643) - https://sketchapp.com -->
    <title>antibacterial</title>
    <desc>Created with Sketch.</desc>
    <defs>
        <path d="M25.6066406,4.39341797 C22.773457,1.56029297 19.0066406,0 15,0 C6.70998047,0 0,6.70880859 0,15 C0,19.0066406 1.56029297,22.773457 4.39335938,25.606582 C7.22654297,28.439707 10.9933594,30 15,30 C23.2900195,30 30,23.2911914 30,15 C30,10.993418 28.439707,7.22660156 25.6066406,4.39341797 Z" id="path-1"></path>
        <path d="M23.4853125,6.51473437 C21.2187656,4.24823438 18.2053125,3 15,3 C8.36798437,3 3,8.36704687 3,15 C3,18.2053125 4.24823438,21.2187656 6.5146875,23.4852656 C8.78123438,25.7517656 11.7946875,27 15,27 C21.6320156,27 27,21.6329531 27,15 C27,11.7947344 25.7517656,8.78128125 23.4853125,6.51473437 Z" id="path-3"></path>
    </defs>
    <g id="🔵-Home" stroke="none" stroke-width="1" fill="none" fill-rule="evenodd">
        <g id="Search_Desktop" transform="translate(-1066.000000, -469.000000)">
            <g id="Group-4" transform="translate(1035.000000, 299.000000)">
                <g id="Group-19" transform="translate(32.000000, 171.000000)">
                    <g id="antibacterial">
                        <mask id="mask-2" fill="white">
                            <use xlink:href="#path-1"></use>
                        </mask>
                        <path stroke="#0E0B4D" d="M25.9601904,4.03986092 L25.9602013,4.03987189 C28.8870538,6.96684538 30.5,10.8608448 30.5,15 C30.5,23.566935 23.5665607,30.5 15,30.5 C10.8607742,30.5 6.96677615,28.8870451 4.03980233,25.9601318 C1.11294701,23.0332159 -0.5,19.1392146 -0.5,15 C-0.5,6.43306502 6.43343927,-0.5 15,-0.5 C19.1392258,-0.5 23.0332238,1.11295494 25.9601904,4.03986092 Z"></path>
                        <mask id="mask-4" fill="white">
                            <use xlink:href="#path-3"></use>
                        </mask>
                        <path stroke="#0E0B4D" d="M23.8388622,6.16117733 L23.8388732,6.1611883 C26.1991076,8.52152035 27.5,11.6621546 27.5,15 C27.5,21.9087777 21.9084758,27.5 15,27.5 C11.6620978,27.5 8.52146438,26.1991005 6.16113045,23.8388154 C3.80089313,21.4785292 2.5,18.3378932 2.5,15 C2.5,8.09122233 8.09152415,2.5 15,2.5 C18.3379022,2.5 21.4785356,3.80089953 23.8388622,6.16117733 Z"></path>
                        <g id="noun_Bacteria_2574880" mask="url(#mask-4)" fill-rule="nonzero">
                            <g transform="translate(15.000000, 15.000000) rotate(-300.000000) translate(-15.000000, -15.000000) translate(6.000000, 7.000000)" id="Path">
                                <path d="M15.0906663,10.6140628 L16.2837562,11.8071524 C16.3902627,11.9136593 16.3902627,12.0863403 16.2837562,12.1928472 C16.1772494,12.2993537 16.0045683,12.2993537 15.8980615,12.1928472 L14.7376157,11.0324014 C14.3675981,11.4367184 13.9471773,11.7989428 13.4900103,12.1069861 L14.4087407,13.4850816 C14.4922915,13.6104074 14.4584258,13.7797356 14.3330998,13.8632861 C14.2077739,13.9468369 14.0384458,13.9129713 13.9548952,13.7876452 L13.0257363,12.3939069 C12.488759,12.6970626 11.9114264,12.9273988 11.3128678,13.0679851 L11.9779484,14.61984 C12.0372819,14.7582843 11.9731495,14.9186149 11.834705,14.9779484 C11.6962607,15.0372818 11.5359301,14.9731495 11.4765966,14.8347049 L10.7683989,13.1822433 C10.1883778,13.2936745 9.59829147,13.3758557 9.01460521,13.4286966 L9.26901639,14.9551637 C9.29377866,15.1037373 9.19340957,15.244254 9.04483594,15.2690163 C8.8962623,15.2937786 8.75574558,15.1934095 8.73098331,15.0448358 L8.46846313,13.469715 C7.79869432,13.5096303 7.14444124,13.5101193 6.53131543,13.471041 L6.26901644,15.0448358 C6.24425417,15.1934095 6.10373744,15.2937786 5.95516381,15.2690163 C5.80659017,15.244254 5.70622108,15.1037373 5.73098336,14.9551637 L5.98607363,13.4246226 C5.34733955,13.3558634 4.76671574,13.2400211 4.27739229,13.0769133 C4.19872875,13.0506922 4.12172693,13.023707 4.04639993,12.9959662 L3.53145894,14.5407892 C3.48382794,14.6836827 3.32937703,14.7609082 3.18648322,14.7132769 C3.04358968,14.6656459 2.96636422,14.511195 3.01399549,14.3683012 L3.54109658,12.7869982 C2.94270513,12.5092861 2.4789455,12.1736327 2.15891042,11.786342 L0.958498893,12.5065888 C0.82934044,12.5840837 0.661814989,12.5422023 0.584320081,12.4130442 C0.506825173,12.2838857 0.548706536,12.1163602 0.677864716,12.0388653 L1.86013906,11.3295006 C1.7120037,11.0310983 1.63636361,10.7084166 1.63636361,10.3636362 C1.63636361,10.0524399 1.67907188,9.76660211 1.76293361,9.51148784 L0.18648327,8.9860043 C0.0435897265,8.9383733 -0.0336357267,8.7839224 0.0139955452,8.64102858 C0.0616265444,8.49813504 0.216077451,8.42090958 0.358971267,8.46854086 L1.99533488,9.01399539 C1.99793997,9.01486376 2.00052351,9.01576757 2.00308469,9.0167063 C2.2646596,8.63067176 2.66312259,8.36265968 3.18864949,8.24657004 L2.74126823,6.9044257 C2.69363695,6.76153188 2.77086241,6.60708098 2.91375595,6.55944998 C3.05664977,6.51181871 3.21110067,6.58904416 3.25873167,6.7319377 L3.74230466,8.18265668 C3.76738603,8.18209841 3.79267848,8.18181804 3.81818175,8.18181804 C5.03593001,8.18181804 5.81590381,7.82105414 6.29262617,6.72395879 L4.78712337,5.97120726 C4.6524021,5.90384663 4.59779556,5.74002672 4.66515619,5.60530518 C4.73251683,5.47058391 4.89633673,5.41597736 5.03105828,5.483338 L6.4788678,6.20724289 C6.50502398,6.11965353 6.52992071,6.02856099 6.55359725,5.93385372 C6.70662207,5.32175473 6.9024037,4.76807501 7.1443567,4.27739338 L5.85968281,3.50658894 C5.73052463,3.42909403 5.68864327,3.26156858 5.76613817,3.13241013 C5.84363308,3.00325195 6.01115853,2.96137059 6.14031699,3.03886549 L7.40723878,3.79901857 C7.75050778,3.23807394 8.16820868,2.77864386 8.6670754,2.42975778 L7.94795632,1.23122616 C7.87046141,1.10206771 7.91234277,0.934542257 8.04150095,0.857047349 C8.17065941,0.779552441 8.33818486,0.821433804 8.41567977,0.950591984 L9.13408975,2.14794187 C9.65007911,1.88201015 10.2398698,1.7165547 10.9090907,1.65912352 L10.9090907,0.272727268 C10.9090907,0.122104089 11.0311948,0 11.181818,0 C11.3324412,0 11.4545453,0.122104089 11.4545453,0.272727268 L11.4545453,1.63636361 C12.219128,1.63636361 12.9200016,1.7961807 13.538078,2.08826806 L14.2206835,0.950591984 C14.4077728,0.638776353 14.8754962,0.91941053 14.6884069,1.23122616 L14.0165809,2.35093605 C14.6003869,2.71913504 15.0927278,3.21727522 15.4733466,3.81612184 L16.7687735,3.03886549 C16.897932,2.96137059 17.0654574,3.00325195 17.1429523,3.13241013 C17.2204473,3.26156858 17.1785659,3.42909403 17.0494077,3.50658894 L15.7413936,4.29139738 C16.035234,4.88179874 16.232094,5.54960854 16.3166599,6.27272717 L17.7272724,6.27272717 C17.8778956,6.27272717 17.9999997,6.39483125 17.9999997,6.54545443 C17.9999997,6.69607761 17.8778956,6.8181817 17.7272724,6.8181817 L16.3585336,6.8181817 C16.3619264,6.90838079 16.3636361,6.99930288 16.3636361,7.09090897 C16.3636361,7.67638078 16.2624425,8.2507335 16.0771456,8.7988414 L17.5407892,9.28672266 C17.6836827,9.33435366 17.7609082,9.48880457 17.7132769,9.63169838 C17.6656459,9.77459192 17.511195,9.85181738 17.3683012,9.80418611 L15.8780253,9.30742757 C15.6717147,9.7699152 15.4054789,10.2088084 15.0906663,10.6140628 Z" stroke="#645FC9" stroke-width="0.8" fill="none"></path>
                                <path d="M11.4545453,8.72727258 C10.2495604,8.72727258 9.27272711,7.75043932 9.27272711,6.54545443 C9.27272711,5.34046955 10.2495604,4.36363629 11.4545453,4.36363629 C12.6595301,4.36363629 13.6363634,5.34046955 13.6363634,6.54545443 C13.6363634,7.75043932 12.6595301,8.72727258 11.4545453,8.72727258 Z" stroke="none" fill="#645FC9"></path>
                                <path d="M5.18181809,11.7272725 C4.57932565,11.7272725 4.09090902,11.2388559 4.09090902,10.6363635 C4.09090902,10.033871 4.57932565,9.54545438 5.18181809,9.54545438 C5.78431054,9.54545438 6.27272717,10.033871 6.27272717,10.6363635 C6.27272717,11.2388559 5.78431054,11.7272725 5.18181809,11.7272725 Z" stroke="none" fill="#645FC9"></path>
                            </g>
                        </g>
                    </g>
                </g>
            </g>
        </g>
    </g>
</svg>