<?xml version="1.0" encoding="UTF-8"?>
<svg width="32px" height="32px" viewBox="0 0 32 32" version="1.1" xmlns="http://www.w3.org/2000/svg" xmlns:xlink="http://www.w3.org/1999/xlink">
    <!-- Generator: Sketch 53.2 (72643) - https://sketchapp.com -->
    <title>Group 17</title>
    <desc>Created with Sketch.</desc>
    <defs>
        <path d="M25.6066406,4.39341797 C22.773457,1.56029297 19.0066406,0 15,0 C6.70998047,0 0,6.70880859 0,15 C0,19.0066406 1.56029297,22.773457 4.39335938,25.606582 C7.22654297,28.439707 10.9933594,30 15,30 C23.2900195,30 30,23.2911914 30,15 C30,10.993418 28.439707,7.22660156 25.6066406,4.39341797 Z" id="path-1"></path>
    </defs>
    <g id="🔵-Home" stroke="none" stroke-width="1" fill="none" fill-rule="evenodd">
        <g id="Search_Desktop" transform="translate(-1066.000000, -421.000000)">
            <g id="Group-4" transform="translate(1035.000000, 299.000000)">
                <g id="Group-20" transform="translate(32.000000, 123.000000)">
                    <g id="Group-17">
                        <mask id="mask-2" fill="white">
                            <use xlink:href="#path-1"></use>
                        </mask>
                        <path stroke="#0E0B4D" d="M25.9601904,4.03986092 L25.9602013,4.03987189 C28.8870538,6.96684538 30.5,10.8608448 30.5,15 C30.5,23.566935 23.5665607,30.5 15,30.5 C10.8607742,30.5 6.96677615,28.8870451 4.03980233,25.9601318 C1.11294701,23.0332159 -0.5,19.1392146 -0.5,15 C-0.5,6.43306502 6.43343927,-0.5 15,-0.5 C19.1392258,-0.5 23.0332238,1.11295494 25.9601904,4.03986092 Z"></path>
                        <g id="pet-brush" mask="url(#mask-2)" fill-rule="nonzero">
                            <g transform="translate(-2.500000, 1.500000)">
                                <path d="M27.1302449,9.74695978 L25.3226504,7.93915925 C25.5513034,7.63408257 25.6751056,7.26494189 25.6751056,6.8768498 C25.6751056,6.40224036 25.4903293,5.95626406 25.1547656,5.62070037 L24.4393495,4.90528433 C24.1037858,4.56972058 23.6576035,4.38494427 23.1829941,4.38494427 C22.7085906,4.38494427 22.2624083,4.56972058 21.9268446,4.90528433 L21.7466002,5.08552876 C21.1535443,5.04247609 20.5091961,5.10860005 19.8358027,5.27833884 L19.176417,3.73977206 C19.0903116,3.53892821 18.8577448,3.44602505 18.6569009,3.53213043 C18.4562631,3.61802978 18.3631539,3.85059669 18.4492593,4.05144049 L19.0744501,5.50987574 C18.8286996,5.59742309 18.5804773,5.697536 18.330607,5.81083249 C17.936335,5.98922305 17.5437111,6.19768865 17.1562369,6.43210943 L16.2294714,5.2043871 C16.0980474,5.03011647 15.850031,4.99550953 15.6755544,5.12693348 C15.5012837,5.25856345 15.4666768,5.50657984 15.5983068,5.68085052 L16.4914954,6.86449018 C15.9379903,7.24928637 15.4005529,7.68702298 14.8907185,8.16966614 L13.9169863,7.19593405 C13.7624911,7.04143876 13.5120028,7.04143876 13.3577135,7.19593405 C13.2032183,7.35042928 13.2032183,7.60071162 13.3577135,7.75520685 L14.3312396,8.72893899 C13.8488024,9.23877336 13.4108599,9.77621086 13.0260637,10.3297159 L11.842424,9.43652729 C11.6681534,9.30489732 11.420137,9.33950426 11.288507,9.51398092 C11.1568771,9.68825154 11.19169,9.93626793 11.3659606,10.0678979 L12.5936829,10.9944575 C12.3590561,11.3819316 12.1507966,11.7747615 11.972406,12.1688275 C11.8591095,12.4189038 11.7589966,12.6671262 11.6714492,12.9126707 L10.213014,12.2874798 C10.0121701,12.2013744 9.77960329,12.2944836 9.69370394,12.4953274 C9.60759856,12.6959653 9.70050172,12.9285322 9.90134557,13.0146375 L11.4399124,13.6740233 C11.2701736,14.3474166 11.2040496,14.9917649 11.2471023,15.5848206 L9.14720267,17.6847202 C8.49770461,17.5660679 7.80247593,17.757024 7.30129332,18.2580006 L2.80321532,22.7560786 C2.64872009,22.9105739 2.64872009,23.1610622 2.80321532,23.3155575 C2.95771061,23.4698467 3.20799289,23.4698467 3.36248818,23.3155575 L5.53015968,21.147886 L8.91216389,24.5296842 L5.21828523,28.2233569 C4.4923635,28.9494846 3.31078375,28.9494846 2.58486202,28.2233569 L1.836487,27.4751878 C1.48464979,27.1233506 1.29101573,26.655745 1.29101573,26.1582703 C1.29101573,25.6610015 1.48464979,25.1931899 1.836487,24.8415587 L2.03403495,24.6438047 C2.18853018,24.4895155 2.18853018,24.2390272 2.03403495,24.0845319 C1.87953966,23.9300366 1.62905135,23.9300366 1.47476209,24.0847378 L1.27721414,24.2822858 C0.776031531,24.7832624 0.5,25.449652 0.5,26.1582703 C0.5,26.8670945 0.776031531,27.5332781 1.27721414,28.0344607 L2.02538319,28.7828357 C2.54263333,29.3000859 3.22220649,29.5586079 3.90157362,29.5586079 C4.58094081,29.5586079 5.26051397,29.3000859 5.77776406,28.7828357 L11.8018432,22.7585506 C12.3028199,22.2573679 12.493776,21.5621393 12.3751237,20.9126412 L14.1137103,19.1740545 L15.9085332,20.9686714 C16.1481039,21.2082421 16.4647162,21.3384301 16.796778,21.3384301 C16.8540443,21.3384301 16.9119285,21.3345162 16.9698127,21.3266885 C17.3634666,21.2733361 17.7017082,21.0444771 17.8976082,20.6988197 L18.8552728,19.0100836 C19.0884577,18.5987142 19.4291712,18.2582066 19.8405406,18.0248158 L21.3786954,17.1524325 C22.1868086,16.6943026 22.8560821,16.0250292 23.314212,15.2171219 L24.1865953,13.6787611 C24.4030947,13.2968489 24.715175,12.9730268 25.0890536,12.7425198 C25.2748599,12.6277814 25.3327441,12.3842968 25.2180056,12.1982845 C25.1034732,12.0124782 24.8597826,11.954594 24.6737703,12.0693325 C24.1870072,12.3694653 23.7805817,12.7911344 23.4983704,13.2886091 L22.6261931,14.8269699 C22.238513,15.5106629 21.6722364,16.0767336 20.9885434,16.4644137 L19.4503886,17.3367969 C18.914599,17.6406376 18.4710946,18.084348 18.167254,18.6199315 L17.2095893,20.3086677 C17.1364616,20.4376198 17.0103935,20.5229012 16.8635199,20.5428825 C16.7166465,20.5626579 16.5726569,20.5140434 16.4678061,20.4093986 L14.6731892,18.6147817 L16.0898077,17.1981631 L17.0777534,18.1861089 C17.155001,18.2633565 17.2561439,18.3020833 17.3572868,18.3020833 C17.4586357,18.3020833 17.5597786,18.2633565 17.6370262,18.1861089 C17.7915215,18.0316136 17.7915215,17.7813312 17.6370262,17.626836 L16.6490805,16.6388903 L19.4450327,13.8427321 L20.4329784,14.8306778 C20.5102261,14.9079254 20.611369,14.9464462 20.7127179,14.9464462 C20.8138608,14.9464462 20.9152096,14.9079254 20.9922513,14.8306778 C21.1467466,14.6761825 21.1467466,14.4256942 20.9922513,14.2714049 L20.0043056,13.2834593 L22.8729736,10.4147913 L23.8609193,11.402737 C23.9381669,11.4799846 24.0393098,11.5187114 24.1404527,11.5187114 C24.2418016,11.5187114 24.3429445,11.4799846 24.4201921,11.402737 C24.5746874,11.2482417 24.5746874,10.9979594 24.4201921,10.8434641 L23.4322464,9.85551841 L24.7763552,8.51161564 L26.5709721,10.3062326 C26.6756169,10.4108774 26.7244374,10.5550729 26.704456,10.7019464 C26.6844746,10.8486139 26.5991933,10.9746821 26.4702412,11.0478098 L26.2825809,11.1543086 C26.0926548,11.2620433 26.0259128,11.5034679 26.1336475,11.6933941 C26.2065693,11.8217281 26.3402592,11.8938259 26.478069,11.8938259 C26.5441929,11.8938259 26.6113469,11.8773464 26.672939,11.8423274 L26.8605992,11.7360348 C27.2060506,11.5399288 27.4349096,11.2018931 27.488262,10.8082392 C27.5416143,10.4145853 27.4112203,10.0277291 27.1302449,9.74695978 L27.1302449,9.74695978 Z M12.1779877,13.9782759 C12.200441,13.9819838 12.2226883,13.9844557 12.2449357,13.9844557 C12.3984009,13.9844557 12.5442445,13.8946425 12.6085145,13.7446791 C12.6946199,13.5438353 12.6017167,13.3112684 12.4008729,13.225369 L12.3988129,13.2243391 C12.6004808,12.6487927 12.8800142,12.0592388 13.2287615,11.4738048 L13.5004671,11.6789745 C13.5717409,11.7327389 13.6555804,11.758694 13.7383898,11.758694 C13.8582782,11.758694 13.9767245,11.7045177 14.0543841,11.6015208 C14.1860141,11.4272502 14.1514072,11.1792338 13.9769305,11.0476039 L13.6580523,10.8070032 C14.0179233,10.2866632 14.4307346,9.77600488 14.8907185,9.28841782 L15.2122746,9.61017998 C15.2895222,9.68742757 15.3908711,9.7259484 15.492014,9.7259484 C15.593157,9.7259484 15.6945058,9.68742757 15.7717534,9.61017998 C15.9260427,9.45568469 15.9260427,9.20519638 15.7717534,9.05090712 L15.4499913,8.72914497 C15.9375784,8.26936708 16.4480307,7.85634976 16.9683707,7.49668477 L17.2091774,7.81556304 C17.286837,7.91855983 17.4052833,7.97273618 17.5251716,7.97273618 C17.6079811,7.97273618 17.6918205,7.946781 17.7630944,7.89301666 C17.937365,7.76138669 17.9719719,7.5133703 17.840548,7.33909962 L17.6353783,7.06739399 C18.2206063,6.71844067 18.8103662,6.43890726 19.3859125,6.23744542 L19.3867366,6.23950538 C19.4512126,6.38946878 19.5970561,6.47928202 19.7505214,6.47928202 C19.8024318,6.47928202 19.8553721,6.46877633 19.9062526,6.44714701 C20.0778453,6.37360728 20.1703365,6.19295078 20.1398495,6.01641421 C20.415469,5.9519382 20.6857327,5.90744357 20.9481686,5.88375428 L12.0453278,14.7868011 C12.069017,14.5241592 12.1135117,14.2538955 12.1779877,13.9782759 Z M9.47143675,23.9704114 L6.08943254,20.5884071 L6.89239588,19.7854437 L10.2744001,23.167448 L9.47143675,23.9704114 Z M11.2425704,22.1992777 L10.8336729,22.6081751 L7.45166873,19.2261709 L7.86056617,18.8172735 C8.36257276,18.3154728 9.1791317,18.3154728 9.68093231,18.8172735 L11.2425704,20.3789116 C11.744371,20.8807122 11.744371,21.6974771 11.2425704,22.1992777 Z M24.5952867,7.57372643 L12.0496536,20.1193595 C11.9777619,20.0138908 11.8953644,19.9131599 11.8018432,19.8196387 L10.2402052,18.2580006 C10.1466841,18.1644795 10.0461591,18.082082 9.94048434,18.0101902 L22.4861174,5.46455713 C22.6723357,5.27833884 22.9197341,5.17596 23.1829941,5.17596 C23.446254,5.17596 23.6938584,5.27833884 23.8800767,5.46455713 L24.5952867,6.17997317 C24.781505,6.36598547 24.8840899,6.6135899 24.8840899,6.8768498 C24.8840899,7.14010975 24.781505,7.38750815 24.5952867,7.57372643 Z" id="Shape" fill="#0E0B4D"></path>
                                <path d="M23.070151,25.1234698 C23.2929073,25.1234698 23.4735124,24.9428647 23.4735124,24.7201084 C23.4735124,24.4973521 23.2929073,24.3167471 23.070151,24.3167471 L22.9443023,24.3167471 C22.3937141,24.3167471 21.9457814,23.8688144 21.9457814,23.3182262 C21.9457814,22.3228313 21.1359327,21.5130834 20.1405378,21.5130834 L19.9033613,21.5130834 C19.680605,21.5130834 19.5,21.6936884 19.5,21.9164447 C19.5,22.139201 19.680605,22.3198061 19.9033613,22.3198061 L20.1405378,22.3198061 C20.691126,22.3198061 21.1390587,22.7677388 21.1390587,23.318327 C21.1390587,24.3137219 21.9489074,25.1234698 22.9443023,25.1234698 L23.070151,25.1234698 Z" id="Path" fill="#645FC9"></path>
                                <path d="M17.070151,4.11038634 C17.2929073,4.11038634 17.4735124,3.92978131 17.4735124,3.70702502 C17.4735124,3.48426873 17.2929073,3.3036637 17.070151,3.3036637 L16.9443023,3.3036637 C16.3937141,3.3036637 15.9457814,2.85573095 15.9457814,2.30514275 C15.9457814,1.30974785 15.1359327,0.5 14.1405378,0.5 L13.9033613,0.5 C13.680605,0.5 13.5,0.680605031 13.5,0.90336132 C13.5,1.12611761 13.680605,1.30672264 13.9033613,1.30672264 L14.1405378,1.30672264 C14.691126,1.30672264 15.1390587,1.75465539 15.1390587,2.30524359 C15.1390587,3.30063849 15.9489074,4.11038634 16.9443023,4.11038634 L17.070151,4.11038634 Z" id="Path" fill="#645FC9"></path>
                                <path d="M23.420672,20.2412852 C23.6398989,20.2593356 23.8367392,20.0946633 23.8542855,19.870697 L23.8728401,19.6343272 C23.9159997,19.0839407 24.3958989,18.6739239 24.9463862,18.7166802 C25.8561677,18.790092 26.799529,18.1742601 26.8969407,16.9325123 C26.9385878,16.4017896 26.134487,16.3348316 26.0927391,16.8694871 L26.0828568,16.9951341 C26.0397979,17.544008 25.5592938,17.9560416 25.0093106,17.9126803 C24.0255123,17.833924 23.1470922,18.5680416 23.0686384,19.5714029 L23.0500838,19.8077726 C23.0327393,20.0297222 23.1986216,20.2239406 23.420672,20.2412852 Z" id="Path" fill="#645FC9"></path>
                            </g>
                        </g>
                    </g>
                </g>
            </g>
        </g>
    </g>
</svg>